<svg width="411" height="46" viewBox="0 0 411 46" fill="none" xmlns="http://www.w3.org/2000/svg">
<path d="M17.413 1.63L0.572998 44.34H8.50302L11.973 35.24H31.413L34.883 44.34H42.993L26.153 1.63H17.413ZM18.323 28.43C15.363 31.41 12.183 34.61 12.023 34.68C11.733 34.83 14.563 28.43 14.563 28.43L21.693 9.67L28.813 28.43H18.323Z" fill="#004D43"/>
<path d="M63.693 27.51H78.213C76.793 33.7 71.223 37.97 64.163 37.97C55.743 37.97 49.313 31.53 49.313 22.98C49.313 14.43 55.743 8 64.163 8C69.623 8 74.153 10.6 76.593 14.61L82.003 9.19C78.123 4.13 71.613 0.869995 64.163 0.869995C51.413 0.869995 41.683 10.4 41.683 22.97C41.683 35.54 51.413 45.07 64.163 45.07C76.913 45.07 86.083 35.72 86.083 23.34V20.87H70.323L63.703 27.49L63.693 27.51Z" fill="#004D43"/>
<path d="M98.583 1.63H91.213V44.34H98.583V1.63Z" fill="#004D43"/>
<path d="M180.713 1.63L163.873 44.34H171.803L175.273 35.24H194.713L198.183 44.34H206.293L189.453 1.63H180.713ZM181.623 28.43C178.663 31.41 175.483 34.61 175.323 34.68C175.033 34.83 177.863 28.43 177.863 28.43L184.993 9.67L192.113 28.43H181.623Z" fill="#004D43"/>
<path d="M350.553 1.63L333.713 44.34H341.643L345.113 35.24H364.553L368.023 44.34H376.133L359.293 1.63H350.553ZM351.463 28.43C348.503 31.41 345.323 34.61 345.163 34.68C344.873 34.83 347.703 28.43 347.703 28.43L354.833 9.67L361.953 28.43H351.463Z" fill="#004D43"/>
<path d="M166.093 20.89H150.333L143.713 27.51H158.233C156.813 33.7 151.243 37.97 144.183 37.97C135.763 37.97 129.333 31.53 129.333 22.98C129.333 14.43 135.763 8 144.183 8C149.643 8 154.173 10.6 156.613 14.61L162.023 9.19C158.143 4.13 151.633 0.869995 144.183 0.869995C131.433 0.869995 121.703 10.4 121.703 22.97C121.703 35.54 131.433 45.07 144.183 45.07C156.933 45.07 166.103 35.72 166.103 23.34V20.87L166.093 20.89Z" fill="#004D43"/>
<path d="M269.743 1.63H237.553H234.153H205.853V8.56H218.043V44.35H225.423V15.59L218.393 8.56H234.153H237.553H269.743V1.63Z" fill="#004D43"/>
<path d="M249.313 26.33H269.743V19.4H249.313V19.39H241.943V44.35H270.063V37.42H249.313V26.33Z" fill="#004D43"/>
<path d="M331.073 1.63L320.743 31.64L310.833 1.63H303.103L292.833 31.87L282.783 1.63H274.613L289.283 44.35H296.723L306.793 13.89L316.953 44.35H324.453L339.003 1.63H331.073Z" fill="#004D43"/>
<path d="M401.853 1.63L389.783 21.63L377.653 1.63H369.233L386.013 29.05V44.35H393.373V29.05L410.093 1.63H401.853Z" fill="#004D43"/>
</svg>
