<svg width="410" height="10" viewBox="0 0 410 10" fill="none" xmlns="http://www.w3.org/2000/svg">
<path d="M4.05304 6.37L0.613037 0.73999H2.34305L4.83304 4.84L7.31305 0.73999H9.00305L5.57303 6.37V9.50999H4.06305V6.37H4.05304Z" fill="white"/>
<path d="M10.063 5.12001C10.063 2.54001 12.053 0.580017 14.673 0.580017C17.293 0.580017 19.2831 2.54001 19.2831 5.12001C19.2831 7.70001 17.303 9.66002 14.673 9.66002C12.043 9.66002 10.063 7.70001 10.063 5.12001ZM17.743 5.12001C17.743 3.37001 16.423 2.04001 14.683 2.04001C12.943 2.04001 11.6331 3.36001 11.6331 5.12001C11.6331 6.88001 12.953 8.20001 14.683 8.20001C16.413 8.20001 17.743 6.88001 17.743 5.12001Z" fill="white"/>
<path d="M21.823 6.13V0.73999H23.323V6.09999C23.323 7.28999 24.223 8.2 25.423 8.2C26.623 8.2 27.523 7.29999 27.523 6.09999V0.73999H29.0331V6.13C29.0331 8.15 27.483 9.66 25.423 9.66C23.363 9.66 21.823 8.15 21.823 6.13Z" fill="white"/>
<path d="M32.013 0.740005H35.853C37.483 0.740005 38.7231 1.93002 38.7231 3.52002C38.7231 4.83002 37.863 5.85001 36.643 6.15001L38.993 9.50002H37.103L34.893 6.23001H33.5331V9.50002H32.023V0.730011L32.013 0.740005ZM33.523 2.16002V4.92001H35.813C36.583 4.92001 37.173 4.32001 37.173 3.53001C37.173 2.74001 36.583 2.16002 35.813 2.16002H33.523Z" fill="white"/>
<path d="M45.213 5.12001C45.213 2.54001 47.203 0.580017 49.823 0.580017C51.853 0.580017 53.543 1.76001 54.083 3.43001H52.393C51.893 2.59001 50.953 2.04001 49.823 2.04001C48.093 2.04001 46.773 3.36001 46.773 5.12001C46.773 6.88001 48.093 8.20001 49.823 8.20001C51.273 8.20001 52.413 7.32002 52.703 6.05002H50.123V4.69002H54.313V5.20001C54.313 7.74001 52.403 9.66002 49.813 9.66002C47.223 9.66002 45.203 7.70001 45.203 5.12001H45.213Z" fill="white"/>
<path d="M59.1631 0.73999H60.953L64.4131 9.50999H62.7531L62.043 7.64H58.053L57.343 9.50999H55.713L59.1631 0.73999ZM61.5031 6.23999L60.043 2.39L58.583 6.23999H61.5031Z" fill="white"/>
<path d="M67.613 2.16H65.113V0.73999H71.613V2.16H69.123V9.5H67.613V2.16Z" fill="white"/>
<path d="M74.173 0.740021H79.873V2.16003H75.683V4.38004H79.453V5.80003H75.683V8.07002H79.9431V9.49002H74.173V0.720032V0.740021Z" fill="white"/>
<path d="M81.933 0.73999H83.613L85.733 7.45999L87.863 0.73999H89.243L91.403 7.45999L93.513 0.73999H95.143L92.153 9.50999H90.623L88.5331 3.03L86.463 9.50999H84.9431L81.933 0.73999Z" fill="white"/>
<path d="M99.123 0.73999H100.913L104.373 9.50999H102.713L102.003 7.64H98.013L97.303 9.50999H95.673L99.123 0.73999ZM101.463 6.23999L100.003 2.39L98.543 6.23999H101.463Z" fill="white"/>
<path d="M107.993 6.37L104.553 0.73999H106.283L108.773 4.84L111.253 0.73999H112.943L109.513 6.37V9.50999H108.003V6.37H107.993Z" fill="white"/>
<path d="M121.343 2.16H118.843V0.73999H125.343V2.16H122.853V9.5H121.343V2.16Z" fill="white"/>
<path d="M126.823 5.12001C126.823 2.54001 128.813 0.580017 131.433 0.580017C134.053 0.580017 136.043 2.54001 136.043 5.12001C136.043 7.70001 134.063 9.66002 131.433 9.66002C128.803 9.66002 126.823 7.70001 126.823 5.12001ZM134.493 5.12001C134.493 3.37001 133.173 2.04001 131.433 2.04001C129.693 2.04001 128.383 3.36001 128.383 5.12001C128.383 6.88001 129.703 8.20001 131.433 8.20001C133.163 8.20001 134.493 6.88001 134.493 5.12001Z" fill="white"/>
<path d="M144.913 2.16H142.413V0.73999H148.913V2.16H146.423V9.5H144.913V2.16Z" fill="white"/>
<path d="M151.473 0.73999H152.983V4.39H157.273V0.73999H158.773V9.50999H157.273V5.81H152.983V9.50999H151.473V0.73999Z" fill="white"/>
<path d="M161.943 0.740021H167.643V2.16003H163.453V4.38004H167.223V5.80003H163.453V8.07002H167.713V9.49002H161.943V0.720032V0.740021Z" fill="white"/>
<path d="M173.933 0.73999H175.613L177.733 7.45999L179.863 0.73999H181.253L183.413 7.45999L185.523 0.73999H187.153L184.163 9.50999H182.633L180.543 3.03L178.473 9.50999H176.953L173.943 0.73999H173.933Z" fill="white"/>
<path d="M188.583 5.12001C188.583 2.54001 190.573 0.580017 193.193 0.580017C195.813 0.580017 197.803 2.54001 197.803 5.12001C197.803 7.70001 195.823 9.66002 193.193 9.66002C190.563 9.66002 188.583 7.70001 188.583 5.12001ZM196.263 5.12001C196.263 3.37001 194.943 2.04001 193.203 2.04001C191.463 2.04001 190.153 3.36001 190.153 5.12001C190.153 6.88001 191.473 8.20001 193.203 8.20001C194.933 8.20001 196.263 6.88001 196.263 5.12001Z" fill="white"/>
<path d="M200.523 0.740005H204.363C205.993 0.740005 207.233 1.93002 207.233 3.52002C207.233 4.83002 206.373 5.85001 205.153 6.15001L207.503 9.50002H205.613L203.403 6.23001H202.043V9.50002H200.533V0.730011L200.523 0.740005ZM202.033 2.16002V4.92001H204.323C205.093 4.92001 205.683 4.32001 205.683 3.53001C205.683 2.74001 205.093 2.16002 204.323 2.16002H202.033Z" fill="white"/>
<path d="M209.913 0.740005H211.423V8.08002H215.293V9.50002H209.913V0.730011V0.740005Z" fill="white"/>
<path d="M217.843 0.740005H221.243C223.793 0.740005 225.703 2.62001 225.703 5.12001C225.703 7.62001 223.793 9.50002 221.243 9.50002H217.843V0.730011V0.740005ZM219.353 2.16002V8.08002H221.223C222.903 8.08002 224.163 6.81001 224.163 5.12001C224.163 3.43001 222.903 2.16002 221.223 2.16002H219.353Z" fill="white"/>
<path d="M227.973 3.41002C228.353 3.27002 228.623 2.99002 228.763 2.52002C228.293 2.45002 227.963 2.05002 227.963 1.55002C227.963 1.01002 228.373 0.580017 228.953 0.580017C229.473 0.580017 229.923 0.920007 229.923 1.71001C229.923 3.11001 229.003 4.24001 227.983 4.45001V3.40001L227.973 3.41002Z" fill="white"/>
<path d="M231.933 6.96002H233.483C233.483 7.72002 234.223 8.30003 235.173 8.30003C236.063 8.30003 236.773 7.82003 236.773 7.12003C236.773 5.38003 232.083 6.17002 232.083 3.18002C232.083 1.61002 233.433 0.590027 235.123 0.590027C236.813 0.590027 238.183 1.70003 238.183 3.17003H236.633C236.633 2.47003 235.973 1.95003 235.093 1.95003C234.303 1.95003 233.633 2.38002 233.633 3.07002C233.633 4.81002 238.333 3.91002 238.333 6.96002C238.333 8.60002 236.923 9.66003 235.163 9.66003C233.403 9.66003 231.933 8.49003 231.933 6.97003V6.96002Z" fill="white"/>
<path d="M245.283 0.740005H246.793V8.08002H250.663V9.50002H245.283V0.730011V0.740005Z" fill="white"/>
<path d="M253.223 0.740021H258.923V2.16003H254.733V4.38004H258.503V5.80003H254.733V8.07002H258.993V9.49002H253.223V0.720032V0.740021Z" fill="white"/>
<path d="M264.313 0.73999H266.103L269.563 9.50999H267.903L267.193 7.64H263.203L262.493 9.50999H260.863L264.313 0.73999ZM266.653 6.23999L265.193 2.39L263.733 6.23999H266.653Z" fill="white"/>
<path d="M271.843 0.740005H275.243C277.793 0.740005 279.703 2.62001 279.703 5.12001C279.703 7.62001 277.793 9.50002 275.243 9.50002H271.843V0.730011V0.740005ZM273.353 2.16002V8.08002H275.223C276.903 8.08002 278.163 6.81001 278.163 5.12001C278.163 3.43001 276.903 2.16002 275.223 2.16002H273.353Z" fill="white"/>
<path d="M282.413 0.73999H283.923V9.50999H282.413V0.73999Z" fill="white"/>
<path d="M287.083 0.73999H288.613L292.993 6.94V0.73999H294.503V9.50999H292.963L288.583 3.31V9.50999H287.073V0.73999H287.083Z" fill="white"/>
<path d="M297.223 5.12001C297.223 2.54001 299.213 0.580017 301.833 0.580017C303.863 0.580017 305.553 1.76001 306.093 3.43001H304.403C303.903 2.59001 302.963 2.04001 301.833 2.04001C300.103 2.04001 298.783 3.36001 298.783 5.12001C298.783 6.88001 300.103 8.20001 301.833 8.20001C303.283 8.20001 304.423 7.32002 304.713 6.05002H302.133V4.69002H306.323V5.20001C306.323 7.74001 304.413 9.66002 301.823 9.66002C299.233 9.66002 297.213 7.70001 297.213 5.12001H297.223Z" fill="white"/>
<path d="M313.313 0.73999H314.823V9.50999H313.313V0.73999Z" fill="white"/>
<path d="M317.983 0.73999H319.513L323.893 6.94V0.73999H325.403V9.50999H323.863L319.483 3.31V9.50999H317.973V0.73999H317.983Z" fill="white"/>
<path d="M328.093 6.96002H329.643C329.643 7.72002 330.383 8.30003 331.333 8.30003C332.223 8.30003 332.933 7.82003 332.933 7.12003C332.933 5.38003 328.243 6.17002 328.243 3.18002C328.243 1.61002 329.593 0.590027 331.283 0.590027C332.973 0.590027 334.343 1.70003 334.343 3.17003H332.793C332.793 2.47003 332.133 1.95003 331.253 1.95003C330.463 1.95003 329.793 2.38002 329.793 3.07002C329.793 4.81002 334.493 3.91002 334.493 6.96002C334.493 8.60002 333.083 9.66003 331.323 9.66003C329.563 9.66003 328.093 8.49003 328.093 6.97003V6.96002Z" fill="white"/>
<path d="M338.813 2.16H336.313V0.73999H342.813V2.16H340.323V9.5H338.813V2.16Z" fill="white"/>
<path d="M345.373 0.73999H346.883V9.50999H345.373V0.73999Z" fill="white"/>
<path d="M351.933 2.16H349.433V0.73999H355.933V2.16H353.443V9.5H351.933V2.16Z" fill="white"/>
<path d="M358.313 6.13V0.73999H359.813V6.09999C359.813 7.28999 360.713 8.2 361.913 8.2C363.113 8.2 364.013 7.29999 364.013 6.09999V0.73999H365.523V6.13C365.523 8.15 363.973 9.66 361.913 9.66C359.853 9.66 358.313 8.15 358.313 6.13Z" fill="white"/>
<path d="M370.403 2.16H367.903V0.73999H374.403V2.16H371.913V9.5H370.403V2.16Z" fill="white"/>
<path d="M376.963 0.73999H378.473V9.50999H376.963V0.73999Z" fill="white"/>
<path d="M381.173 5.12001C381.173 2.54001 383.163 0.580017 385.783 0.580017C388.403 0.580017 390.393 2.54001 390.393 5.12001C390.393 7.70001 388.413 9.66002 385.783 9.66002C383.153 9.66002 381.173 7.70001 381.173 5.12001ZM388.853 5.12001C388.853 3.37001 387.533 2.04001 385.793 2.04001C384.053 2.04001 382.743 3.36001 382.743 5.12001C382.743 6.88001 384.063 8.20001 385.793 8.20001C387.523 8.20001 388.853 6.88001 388.853 5.12001Z" fill="white"/>
<path d="M393.113 0.73999H394.643L399.023 6.94V0.73999H400.533V9.50999H398.993L394.613 3.31V9.50999H393.103V0.73999H393.113Z" fill="white"/>
<path d="M403.223 6.96002H404.773C404.773 7.72002 405.513 8.30003 406.463 8.30003C407.353 8.30003 408.063 7.82003 408.063 7.12003C408.063 5.38003 403.373 6.17002 403.373 3.18002C403.373 1.61002 404.723 0.590027 406.413 0.590027C408.103 0.590027 409.473 1.70003 409.473 3.17003H407.923C407.923 2.47003 407.263 1.95003 406.383 1.95003C405.593 1.95003 404.923 2.38002 404.923 3.07002C404.923 4.81002 409.623 3.91002 409.623 6.96002C409.623 8.60002 408.213 9.66003 406.453 9.66003C404.693 9.66003 403.223 8.49003 403.223 6.97003V6.96002Z" fill="white"/>
</svg>
