<svg width="108" height="111" viewBox="0 0 108 111" fill="none" xmlns="http://www.w3.org/2000/svg">
<path d="M62.6753 32.7172L62.1932 33.1391L61.9521 33.3501V33.8724L62.6753 33.4606V33.2797L62.4845 33.4103V33.2797L62.6753 32.9784V32.7172Z" fill="white"/>
<path d="M62.6753 34.1941L62.5247 34.2343L62.6753 33.9429V33.6918L62.5849 33.7923L62.2735 34.0534V34.5959L62.6753 34.3849V34.1941Z" fill="white"/>
<path d="M63.8707 32.2451C63.8707 32.2451 63.9109 32.2753 63.931 32.2853V32.8479L63.7 32.7273L62.9064 32.3456V32.7374L63.3685 33.1392L63.6096 33.3501V33.8725L62.9064 33.4707V33.7118L62.9767 33.7821L63.268 34.0935V34.6158L62.9064 34.3948V34.6962L63.1374 34.9172V35.0377L62.8361 35.4295L62.5347 35.0377V34.9272L62.7658 34.7062L62.7858 31.7831L62.2334 32.2451V32.436L62.6753 32.1849V32.3456L61.8516 32.7374L61.6206 32.8579V32.2954C61.6206 32.2954 61.6507 32.2753 61.6809 32.2552C61.701 32.2452 61.711 32.2351 61.7411 32.215C61.7813 32.1849 61.8215 32.1648 61.8617 32.1246C62.1128 31.9538 62.4142 31.7429 62.6251 31.5922V30.7384L60.6161 30.8288C59.8024 33.1392 57.6226 34.7966 55.041 34.7966C51.7763 34.7966 49.1243 32.1447 49.1243 28.88C49.1243 27.4737 49.6165 26.1778 50.4402 25.1733L51.7461 26.6299L48.7024 20.9945H59.943L65.4679 30.6279L63.1374 30.7283V31.7529C63.3785 31.9137 63.6698 32.1246 63.8808 32.2652L63.8707 32.2451Z" fill="white"/>
<path d="M53.9862 81.9289H53.9561L52.7004 81.296L26.623 68.6993V31.4817L33.072 34.5957C33.072 34.5957 31.8164 66.4693 53.9561 81.8988C53.9561 81.9088 53.9762 81.9189 53.9862 81.9289Z" fill="white"/>
<path d="M87.2059 36.8457V72.3858L61.922 81.2959L90.1391 74.214V36.8457H87.2059Z" fill="white"/>
<path d="M85.7493 34.174H82.8161V69.6236L58.6573 81.2962L85.7493 71.4619V34.174Z" fill="white"/>
<path d="M20.7465 36.856H17.8233V74.2142L46.0304 81.2961L20.7465 72.386V36.856Z" fill="white"/>
<path d="M25.1463 34.174H22.2131V71.4619L49.3051 81.2962L25.1463 69.6337V34.174Z" fill="white"/>
<path d="M81.3595 36.8557V68.6991L55.2821 81.2858L54.0164 81.9187H54.0063C54.0063 81.9187 54.0063 81.8584 53.9862 81.7881V81.758C53.9862 81.6977 53.9762 81.6374 53.9661 81.547C53.6246 77.5791 51.4548 44.6508 81.3093 36.8658C81.3294 36.8658 81.3394 36.8557 81.3595 36.8457V36.8557Z" fill="white"/>
<path d="M53.9963 81.9189C53.9963 81.9189 53.9963 81.8486 53.9862 81.7883C53.9963 81.8587 54.0063 81.8988 54.0063 81.9189H53.9963Z" fill="white"/>
<path d="M52.7205 68.9407C52.61 76.1532 53.9159 81.6078 53.9862 81.9292C53.936 81.8891 53.8958 81.8388 53.8456 81.7987C41.6004 69.0713 38.5366 53.2601 38.6572 40.2917C38.6572 39.2872 38.6974 38.3027 38.7375 37.3384C39.1193 29.1515 40.1338 22.5819 41.1484 18.8953H41.1283C41.068 18.9154 41.0379 18.9154 41.0178 18.9154L34.8199 20.0806C34.7898 20.0806 34.7697 20.0606 34.7697 20.0405V15.5603C34.7697 15.5603 34.7898 15.5101 34.8199 15.5201C35.2619 15.5904 38.386 16.0826 42.5045 15.9119H42.5547V17.4588L42.826 17.2479L43.3182 16.8662V15.8717C44.5336 15.8014 45.8194 15.6708 47.1454 15.4498C48.4613 15.2288 49.8275 14.9274 51.1635 14.5156C51.1936 14.5156 51.2238 14.5256 51.2238 14.5558V19.3072C51.2238 19.3072 51.1936 19.3373 51.1736 19.3574L43.5793 18.8049C43.4186 18.7446 43.4488 18.8049 43.2981 18.7748C41.9118 38.3931 57.6728 38.9456 65.0862 38.1521C51.6859 48.8904 52.7004 68.9508 52.7004 68.9508L52.7205 68.9407Z" fill="white"/>
<path d="M81.3595 31.4718V36.8561C81.3595 36.8561 81.3294 36.8661 81.3093 36.8762C51.4548 44.6612 53.6146 77.5896 53.9661 81.5575C53.9661 81.6378 53.9762 81.7081 53.9862 81.7684V81.7985C53.9963 81.8688 54.0063 81.909 54.0063 81.9291C53.926 81.6177 52.6201 76.1632 52.7306 68.9507C52.821 62.9436 53.8958 55.701 57.492 49.2117C59.0892 46.3187 61.1887 43.5663 63.9109 41.1454C63.9109 41.1454 63.921 41.1454 63.931 41.1354C70.7517 34.3146 81.3796 31.4718 81.3796 31.4718H81.3595Z" fill="#A3A3A3"/>
<path d="M53.9561 81.8989C31.8163 66.4693 33.072 34.5958 33.072 34.5958L37.3312 36.645C37.3312 36.645 37.0499 39.6586 37.3814 44.3397C38.0444 53.6817 41.1685 69.7039 53.8556 81.7884C53.8857 81.8285 53.9259 81.8587 53.9561 81.8989Z" fill="#A3A3A3"/>
<path d="M36.186 7.48391L36.8289 9.44273H38.8982L37.2207 10.6582L37.8636 12.6271L36.186 11.4116L34.5185 12.6271L35.1614 10.6582L33.4838 9.44273H35.5532L36.186 7.48391Z" fill="white"/>
<path d="M48.5818 7.48391L49.2147 9.44273H51.284L49.6165 10.6582L50.2493 12.6271L48.5818 11.4116L46.9043 12.6271L47.5472 10.6582L45.8796 9.44273H47.9389L48.5818 7.48391Z" fill="white"/>
<path d="M42.2635 0L43.2579 3.05375H46.4724L43.8707 4.94226L44.8652 7.99601L42.2635 6.10751L39.6718 7.99601L40.6663 4.94226L38.0645 3.05375H41.279L42.2635 0Z" fill="white"/>
<path d="M100.737 80.2212C101.5 79.508 102.244 78.7546 102.947 77.9611C103.188 77.6898 103.419 77.4186 103.65 77.1373C103.68 77.1072 103.7 77.067 103.73 77.0369L102.736 74.9877L102.354 74.2142C101.641 74.626 100.908 75.0178 100.154 75.3995C100.154 75.7812 100.144 76.183 100.134 76.6049C100.114 78.0615 100.084 79.6888 100.054 80.8541C100.275 80.6632 100.496 80.4623 100.707 80.2614L100.737 80.2313V80.2212Z" fill="white"/>
<path d="M96.9498 85.4249L96.0156 84.9427C95.8147 85.0833 95.6238 85.2139 95.4229 85.3545C95.2522 85.4751 95.0814 85.5856 94.9106 85.6961L95.4531 85.9773L96.1964 86.3691L96.4174 86.4896H96.4375L95.895 87.0321H95.8649L95.654 87.0823L95.5234 87.1125L93.886 87.4239L91.2843 87.9261C90.8925 88.1471 90.5108 88.3581 90.1492 88.5489L91.4852 88.8402L93.8659 89.3525L98.5671 90.3671C99.4209 89.3726 100.184 88.4183 100.888 87.4942L97.3315 85.6258L96.9598 85.4249H96.9498Z" fill="white"/>
<path d="M87.457 88.7597C87.2662 87.7452 87.0151 86.379 86.7338 84.9124C86.4425 83.3855 86.1311 81.7481 85.8398 80.2614C84.5439 80.5628 83.2581 80.824 82.0025 81.0651L81.3294 88.2776L81.0482 91.3012L85.5283 89.5533C85.5283 89.5533 86.2617 89.2921 87.457 88.7597Z" fill="white"/>
<path d="M104.785 75.6406C105.498 74.6461 106.141 73.6014 106.704 72.4964C106.975 71.964 107.226 71.4116 107.467 70.849L107.538 70.4472C106.453 71.4417 105.247 72.3558 103.961 73.1996L104.243 74.0233L104.795 75.6305L104.785 75.6406Z" fill="white"/>
<path d="M78.0647 92.4666C78.0647 92.4666 78.0647 92.4666 78.0748 92.4666C78.8382 92.2255 79.4711 91.9844 79.9231 91.7433L79.5313 89.3927L78.2455 81.6981C76.6584 81.9492 75.1315 82.1401 73.695 82.3108L72.0577 93.4812L71.9874 93.9734C71.9874 93.9734 71.9974 93.9734 72.0074 93.9734C74.2676 93.5013 76.4475 92.9889 78.0547 92.4766L78.0647 92.4666Z" fill="white"/>
<path d="M93.2531 80.8641L92.6203 78.403C91.3144 78.8249 89.9884 79.2166 88.6524 79.5682L88.5821 83.7671L88.5017 88.2875C90.0688 87.5542 92.1281 86.4994 94.338 85.1032L93.2531 80.8641Z" fill="white"/>
<path d="M95.3828 84.43C96.6183 83.6063 97.8941 82.6721 99.1397 81.6374L98.0648 77.8805L97.6831 76.5244C96.8192 76.8961 95.9352 77.2477 95.0412 77.5691L95.1517 79.6887L95.3928 84.42L95.3828 84.43Z" fill="white"/>
<path d="M81.9322 92.7676L81.3194 92.3859L80.9477 92.5265L80.124 92.848L79.8628 92.9484L80.0939 93.079L83.2883 94.9173L82.7157 95.4698L74.8 95.068L74.4484 95.0479L74.1571 95.1584C74.2074 95.1885 74.2676 95.2086 74.3379 95.2387C76.1159 96.0022 81.9924 98.5436 85.4078 100.081C86.4123 100.533 86.7941 100.693 87.2059 100.904L90.8423 98.2824L88.1502 96.6149L81.9422 92.7676H81.9322Z" fill="white"/>
<path d="M107.578 72.3958V72.3757C107.578 72.2049 107.558 72.0944 107.558 72.0341C107.558 72.0341 107.558 72.0241 107.558 72.0141C107.558 71.994 107.558 71.9839 107.558 71.9839C107.417 72.3054 107.276 72.6268 107.116 72.9382C106.523 74.1436 105.83 75.2888 105.046 76.3636C104.996 76.434 104.956 76.5043 104.906 76.5646H105.117L106.483 76.6148H106.885C107.548 74.4751 107.608 73.0487 107.588 72.3958H107.578Z" fill="white"/>
<path d="M105.498 77.7198L104.303 77.3381C104.223 77.4486 104.132 77.5491 104.042 77.6596C103.891 77.8504 103.74 78.0312 103.58 78.2121L104.835 78.7244L102.234 79.6988C102.043 79.8997 101.842 80.1006 101.651 80.2914L103.339 80.422L105.267 80.5727C105.729 79.6485 106.101 78.7947 106.392 78.0112L106.232 77.9609L105.498 77.7299V77.7198Z" fill="white"/>
<path d="M100.606 81.2758C100.415 81.4465 100.215 81.6273 100.024 81.7981C99.9433 81.8785 99.8629 81.9388 99.7725 82.0191L100.004 82.1798L100.265 82.3707L101.058 82.9433L98.326 83.6665L97.432 83.9076C97.1808 84.0985 96.9197 84.2893 96.6685 84.4702L97.5726 84.6208L98.2356 84.7313L102.364 85.4245C103.027 84.4601 103.61 83.536 104.112 82.6721C103.67 82.5314 102.414 82.0995 101.44 81.6876C101.109 81.547 100.817 81.4064 100.596 81.2758H100.606Z" fill="white"/>
<path d="M90.4204 89.463L89.4058 88.9407C89.0844 89.1114 88.5721 89.3626 88.4515 89.4229L90.6715 90.789L89.7474 91.4018H85.4982H83.8508L82.555 91.894L90.0487 94.1943L93.896 95.3797C94.8503 94.4354 95.7343 93.5213 96.5681 92.6273L92.8111 90.6986L90.4204 89.4731V89.463Z" fill="white"/>
<path d="M71.2038 96.6048L74.79 99.1664L72.8512 100.271L65.0461 98.2824L63.1375 98.8851L80.7669 105.706L84.6042 102.933L71.8668 96.3638L71.2038 96.6048Z" fill="white"/>
<path d="M49.7773 102.833C50.8923 103.577 51.8466 104.32 52.6603 105.023C49.3253 108.278 48.2103 111 48.2103 111L44.2625 108.921C45.709 106.51 47.6276 104.501 49.7773 102.833Z" fill="white"/>
<path d="M70.6714 95.7714C65.2771 97.0572 61.0883 98.9356 57.8838 100.955C57.1103 100.402 56.2967 99.8698 55.4328 99.3676C61.249 96.5549 67.3364 95.4499 70.3399 95.1586L70.6614 95.7714H70.6714Z" fill="white"/>
<path d="M60.9778 95.9322C60.9778 95.9322 60.9778 95.9322 60.9878 95.9322C60.9878 95.9322 60.9979 95.9322 61.0079 95.9322C61.028 95.9322 61.038 95.9322 61.0581 95.9322C61.0782 95.9322 61.0983 95.9322 61.1284 95.9322C61.1385 95.9322 61.1586 95.9322 61.1686 95.9322C62.0024 95.8016 64.9456 95.3496 68.3007 94.7268L68.3409 94.325L69.6769 82.4515H65.5383L60.9275 95.9724H60.9376C60.9376 95.9724 60.9476 95.9724 60.9577 95.9724L60.9778 95.9322Z" fill="white"/>
<path d="M6.864 80.2212C6.10056 79.508 5.35722 78.7546 4.65405 77.9611C4.41297 77.6898 4.18193 77.4186 3.95089 77.1373C3.92075 77.1072 3.90066 77.067 3.87052 77.0369L4.86501 74.9877L5.24672 74.2142C5.95993 74.626 6.69324 75.0178 7.44663 75.3995C7.44663 75.7812 7.45668 76.183 7.46672 76.6049C7.48681 78.0615 7.51695 79.6888 7.54709 80.8541C7.32609 80.6632 7.10509 80.4623 6.89414 80.2614L6.864 80.2313V80.2212Z" fill="white"/>
<path d="M10.6511 85.4249L11.5853 84.9427C11.7862 85.0833 11.977 85.2139 12.1779 85.3545C12.3487 85.4751 12.5195 85.5856 12.6903 85.6961L12.1478 85.9773L11.4045 86.3691L11.1835 86.4896H11.1634L11.7058 87.0321H11.736L11.9469 87.0823L12.0775 87.1125L13.7149 87.4239L16.3166 87.9261C16.7084 88.1471 17.0901 88.3581 17.4517 88.5489L16.1157 88.8402L13.7349 89.3525L9.03378 90.3671C8.17993 89.3726 7.4165 88.4183 6.71333 87.4942L10.2693 85.6258L10.641 85.4249H10.6511Z" fill="white"/>
<path d="M20.1338 88.7597C20.3246 87.7452 20.5758 86.379 20.857 84.9124C21.1484 83.3855 21.4598 81.7481 21.7511 80.2614C23.0469 80.5628 24.3327 80.824 25.5883 81.0651L26.2614 88.2776L26.5426 91.3012L22.0625 89.5533C22.0625 89.5533 21.3292 89.2921 20.1338 88.7597Z" fill="white"/>
<path d="M2.80573 75.6406C2.09252 74.6461 1.44962 73.6014 0.887083 72.4964C0.615861 71.964 0.364736 71.4116 0.12365 70.849L0.0533255 70.4472C1.13821 71.4417 2.34364 72.3558 3.62943 73.1996L3.34817 74.0233L2.79567 75.6305L2.80573 75.6406Z" fill="white"/>
<path d="M29.5361 92.4666C29.5361 92.4666 29.5361 92.4666 29.5261 92.4666C28.7626 92.2255 28.1298 91.9844 27.6778 91.7433L28.0695 89.3927L29.3553 81.6981C30.9425 81.9492 32.4693 82.1401 33.9058 82.3108L35.5432 93.4812L35.6135 93.9734C35.6135 93.9734 35.6035 93.9734 35.5934 93.9734C33.3332 93.5013 31.1534 92.9889 29.5462 92.4766L29.5361 92.4666Z" fill="white"/>
<path d="M14.3477 80.8641L14.9806 78.403C16.2864 78.8249 17.6124 79.2166 18.9484 79.5682L19.0188 83.7671L19.0991 88.2875C17.5321 87.5542 15.4728 86.4994 13.2628 85.1032L14.3477 80.8641Z" fill="white"/>
<path d="M12.2181 84.43C10.9826 83.6063 9.7068 82.6721 8.46119 81.6374L9.53604 77.8805L9.91777 76.5244C10.7817 76.8961 11.6656 77.2477 12.5597 77.5691L12.4492 79.6887L12.2081 84.42L12.2181 84.43Z" fill="white"/>
<path d="M25.6687 92.7676L26.2815 92.3859L26.6531 92.5265L27.4769 92.848L27.738 92.9484L27.507 93.079L24.3126 94.9173L24.8852 95.4698L32.8008 95.068L33.1524 95.0479L33.4437 95.1584C33.3935 95.1885 33.3332 95.2086 33.2629 95.2387C31.4849 96.0022 25.6084 98.5436 22.1931 100.081C21.1885 100.533 20.8068 100.693 20.395 100.904L16.7586 98.2824L19.4507 96.6149L25.6587 92.7676H25.6687Z" fill="white"/>
<path d="M0.013157 72.3958V72.3757C0.013157 72.2049 0.0332364 72.0944 0.0332364 72.0341C0.0332364 72.0341 0.0332364 72.0241 0.0332364 72.0141C0.0332364 71.994 0.0332364 71.9839 0.0332364 71.9839C0.17387 72.3054 0.314506 72.6268 0.47523 72.9382C1.0679 74.1436 1.76102 75.2888 2.54455 76.3636C2.59477 76.434 2.63496 76.5043 2.68518 76.5646H2.47424L1.10809 76.6148H0.706282C0.0432951 74.4751 -0.0169886 73.0487 0.00310189 72.3958H0.013157Z" fill="white"/>
<path d="M2.10256 77.7198L3.29794 77.3381C3.3783 77.4486 3.46872 77.5491 3.55912 77.6596C3.7098 77.8504 3.86047 78.0312 4.0212 78.2121L2.76554 78.7244L5.36727 79.6988C5.55813 79.8997 5.75902 80.1006 5.94988 80.2914L4.26229 80.422L2.3336 80.5727C1.87152 79.6485 1.49985 78.7947 1.20854 78.0112L1.36925 77.9609L2.10256 77.7299V77.7198Z" fill="white"/>
<path d="M6.9946 81.2758C7.18546 81.4465 7.38636 81.6273 7.57722 81.7981C7.65758 81.8785 7.73795 81.9388 7.82835 82.0191L7.59732 82.1798L7.33613 82.3707L6.54256 82.9433L9.27487 83.6665L10.1689 83.9076C10.42 84.0985 10.6812 84.2893 10.9323 84.4702L10.0283 84.6208L9.36528 84.7313L5.23668 85.4245C4.57369 84.4601 3.99106 83.536 3.4888 82.6721C3.93079 82.5314 5.18645 82.0995 6.16084 81.6876C6.49233 81.547 6.78364 81.4064 7.00464 81.2758H6.9946Z" fill="white"/>
<path d="M17.1805 89.463L18.195 88.9407C18.5165 89.1114 19.0288 89.3626 19.1494 89.4229L16.9293 90.789L17.8535 91.4018H22.1026H23.7501L25.0459 91.894L17.5521 94.1943L13.7048 95.3797C12.7505 94.4354 11.8665 93.5213 11.0328 92.6273L14.7897 90.6986L17.1805 89.4731V89.463Z" fill="white"/>
<path d="M44.4533 98.8851L43.1977 99.3673L26.834 105.706L22.9866 102.933L34.7998 96.8459L35.7341 96.3638L36.397 96.6048L35.7341 97.0669L32.8008 99.1664L34.7396 100.271L41.2188 98.6239L42.5447 98.2824L44.4533 98.8851Z" fill="white"/>
<path d="M63.3384 108.92L59.3906 111C59.3906 111 58.0245 107.675 53.8055 103.968C53.0119 103.275 52.1179 102.562 51.1133 101.859C47.7482 99.518 43.1474 97.2377 36.9395 95.7611L37.2609 95.1483C40.5457 95.4597 47.5372 96.7556 53.8055 100.201C54.7196 100.703 55.6337 101.256 56.4976 101.859C59.1897 103.707 61.6006 106.017 63.3384 108.91V108.92Z" fill="white"/>
<path d="M46.6432 95.942H46.6331C46.6331 95.942 46.6231 95.942 46.6131 95.942C46.6131 95.942 46.6131 95.942 46.603 95.942C46.603 95.942 46.593 95.942 46.5829 95.942C46.5628 95.942 46.5528 95.942 46.5327 95.942C46.5126 95.942 46.4925 95.942 46.4624 95.942C46.4523 95.942 46.4322 95.942 46.4222 95.942C45.5884 95.8114 42.6452 95.3594 39.2901 94.7366L39.2499 94.3348L39.1997 93.8827L37.9139 82.4613H42.0525L46.5126 95.5502L46.6633 95.9822L46.6432 95.942Z" fill="white"/>
</svg>
