<svg width="410" height="10" viewBox="0 0 410 10" fill="none" xmlns="http://www.w3.org/2000/svg">
<path d="M4.05304 6.37001L0.613037 0.740005H2.34305L4.83304 4.84001L7.31305 0.740005H9.00305L5.57303 6.37001V9.51001H4.06305V6.37001H4.05304Z" fill="#004D43"/>
<path d="M10.063 5.12001C10.063 2.54001 12.053 0.580017 14.673 0.580017C17.293 0.580017 19.2831 2.54001 19.2831 5.12001C19.2831 7.70001 17.303 9.66002 14.673 9.66002C12.043 9.66002 10.063 7.70001 10.063 5.12001ZM17.743 5.12001C17.743 3.37001 16.423 2.04001 14.683 2.04001C12.943 2.04001 11.6331 3.36001 11.6331 5.12001C11.6331 6.88001 12.953 8.20001 14.683 8.20001C16.413 8.20001 17.743 6.88001 17.743 5.12001Z" fill="#004D43"/>
<path d="M21.823 6.13002V0.740005H23.323V6.10001C23.323 7.29001 24.223 8.20001 25.423 8.20001C26.623 8.20001 27.523 7.30001 27.523 6.10001V0.740005H29.0331V6.13002C29.0331 8.15002 27.483 9.66002 25.423 9.66002C23.363 9.66002 21.823 8.15002 21.823 6.13002Z" fill="#004D43"/>
<path d="M32.013 0.740005H35.853C37.483 0.740005 38.7231 1.93002 38.7231 3.52002C38.7231 4.83002 37.863 5.85001 36.643 6.15001L38.993 9.50002H37.103L34.893 6.23001H33.5331V9.50002H32.023V0.730011L32.013 0.740005ZM33.523 2.16002V4.92001H35.813C36.583 4.92001 37.173 4.32001 37.173 3.53001C37.173 2.74001 36.583 2.16002 35.813 2.16002H33.523Z" fill="#004D43"/>
<path d="M45.213 5.12001C45.213 2.54001 47.203 0.580017 49.823 0.580017C51.853 0.580017 53.543 1.76001 54.083 3.43001H52.393C51.893 2.59001 50.953 2.04001 49.823 2.04001C48.093 2.04001 46.773 3.36001 46.773 5.12001C46.773 6.88001 48.093 8.20001 49.823 8.20001C51.273 8.20001 52.413 7.32002 52.703 6.05002H50.123V4.69002H54.313V5.20001C54.313 7.74001 52.403 9.66002 49.813 9.66002C47.223 9.66002 45.203 7.70001 45.203 5.12001H45.213Z" fill="#004D43"/>
<path d="M59.1631 0.740005H60.953L64.4131 9.51001H62.7531L62.043 7.64001H58.053L57.343 9.51001H55.713L59.1631 0.740005ZM61.5031 6.24001L60.043 2.39001L58.583 6.24001H61.5031Z" fill="#004D43"/>
<path d="M67.613 2.16002H65.113V0.740005H71.613V2.16002H69.123V9.50002H67.613V2.16002Z" fill="#004D43"/>
<path d="M74.173 0.740005H79.873V2.16002H75.683V4.38002H79.453V5.80002H75.683V8.07001H79.9431V9.49001H74.173V0.720016V0.740005Z" fill="#004D43"/>
<path d="M81.933 0.740005H83.613L85.733 7.46001L87.863 0.740005H89.243L91.403 7.46001L93.513 0.740005H95.143L92.153 9.51001H90.623L88.5331 3.03001L86.463 9.51001H84.9431L81.933 0.740005Z" fill="#004D43"/>
<path d="M99.123 0.740005H100.913L104.373 9.51001H102.713L102.003 7.64001H98.013L97.303 9.51001H95.673L99.123 0.740005ZM101.463 6.24001L100.003 2.39001L98.543 6.24001H101.463Z" fill="#004D43"/>
<path d="M107.993 6.37001L104.553 0.740005H106.283L108.773 4.84001L111.253 0.740005H112.943L109.513 6.37001V9.51001H108.003V6.37001H107.993Z" fill="#004D43"/>
<path d="M121.343 2.16002H118.843V0.740005H125.343V2.16002H122.853V9.50002H121.343V2.16002Z" fill="#004D43"/>
<path d="M126.823 5.12001C126.823 2.54001 128.813 0.580017 131.433 0.580017C134.053 0.580017 136.043 2.54001 136.043 5.12001C136.043 7.70001 134.063 9.66002 131.433 9.66002C128.803 9.66002 126.823 7.70001 126.823 5.12001ZM134.493 5.12001C134.493 3.37001 133.173 2.04001 131.433 2.04001C129.693 2.04001 128.383 3.36001 128.383 5.12001C128.383 6.88001 129.703 8.20001 131.433 8.20001C133.163 8.20001 134.493 6.88001 134.493 5.12001Z" fill="#004D43"/>
<path d="M144.913 2.16002H142.413V0.740005H148.913V2.16002H146.423V9.50002H144.913V2.16002Z" fill="#004D43"/>
<path d="M151.473 0.740005H152.983V4.39001H157.273V0.740005H158.773V9.51001H157.273V5.81001H152.983V9.51001H151.473V0.740005Z" fill="#004D43"/>
<path d="M161.943 0.740005H167.643V2.16002H163.453V4.38002H167.223V5.80002H163.453V8.07001H167.713V9.49001H161.943V0.720016V0.740005Z" fill="#004D43"/>
<path d="M173.933 0.740005H175.613L177.733 7.46001L179.863 0.740005H181.253L183.413 7.46001L185.523 0.740005H187.153L184.163 9.51001H182.633L180.543 3.03001L178.473 9.51001H176.953L173.943 0.740005H173.933Z" fill="#004D43"/>
<path d="M188.583 5.12001C188.583 2.54001 190.573 0.580017 193.193 0.580017C195.813 0.580017 197.803 2.54001 197.803 5.12001C197.803 7.70001 195.823 9.66002 193.193 9.66002C190.563 9.66002 188.583 7.70001 188.583 5.12001ZM196.263 5.12001C196.263 3.37001 194.943 2.04001 193.203 2.04001C191.463 2.04001 190.153 3.36001 190.153 5.12001C190.153 6.88001 191.473 8.20001 193.203 8.20001C194.933 8.20001 196.263 6.88001 196.263 5.12001Z" fill="#004D43"/>
<path d="M200.523 0.740005H204.363C205.993 0.740005 207.233 1.93002 207.233 3.52002C207.233 4.83002 206.373 5.85001 205.153 6.15001L207.503 9.50002H205.613L203.403 6.23001H202.043V9.50002H200.533V0.730011L200.523 0.740005ZM202.033 2.16002V4.92001H204.323C205.093 4.92001 205.683 4.32001 205.683 3.53001C205.683 2.74001 205.093 2.16002 204.323 2.16002H202.033Z" fill="#004D43"/>
<path d="M209.913 0.740005H211.423V8.08002H215.293V9.50002H209.913V0.730011V0.740005Z" fill="#004D43"/>
<path d="M217.843 0.740005H221.243C223.793 0.740005 225.703 2.62001 225.703 5.12001C225.703 7.62001 223.793 9.50002 221.243 9.50002H217.843V0.730011V0.740005ZM219.353 2.16002V8.08002H221.223C222.903 8.08002 224.163 6.81001 224.163 5.12001C224.163 3.43001 222.903 2.16002 221.223 2.16002H219.353Z" fill="#004D43"/>
<path d="M227.973 3.41002C228.353 3.27002 228.623 2.99002 228.763 2.52002C228.293 2.45002 227.963 2.05002 227.963 1.55002C227.963 1.01002 228.373 0.580017 228.953 0.580017C229.473 0.580017 229.923 0.920007 229.923 1.71001C229.923 3.11001 229.003 4.24001 227.983 4.45001V3.40001L227.973 3.41002Z" fill="#004D43"/>
<path d="M231.933 6.96001H233.483C233.483 7.72001 234.223 8.30002 235.173 8.30002C236.063 8.30002 236.773 7.82001 236.773 7.12001C236.773 5.38001 232.083 6.17001 232.083 3.18001C232.083 1.61001 233.433 0.590012 235.123 0.590012C236.813 0.590012 238.183 1.70001 238.183 3.17001H236.633C236.633 2.47001 235.973 1.95001 235.093 1.95001C234.303 1.95001 233.633 2.38001 233.633 3.07001C233.633 4.81001 238.333 3.91001 238.333 6.96001C238.333 8.60001 236.923 9.66002 235.163 9.66002C233.403 9.66002 231.933 8.49002 231.933 6.97002V6.96001Z" fill="#004D43"/>
<path d="M245.283 0.740005H246.793V8.08002H250.663V9.50002H245.283V0.730011V0.740005Z" fill="#004D43"/>
<path d="M253.223 0.740005H258.923V2.16002H254.733V4.38002H258.503V5.80002H254.733V8.07001H258.993V9.49001H253.223V0.720016V0.740005Z" fill="#004D43"/>
<path d="M264.313 0.740005H266.103L269.563 9.51001H267.903L267.193 7.64001H263.203L262.493 9.51001H260.863L264.313 0.740005ZM266.653 6.24001L265.193 2.39001L263.733 6.24001H266.653Z" fill="#004D43"/>
<path d="M271.843 0.740005H275.243C277.793 0.740005 279.703 2.62001 279.703 5.12001C279.703 7.62001 277.793 9.50002 275.243 9.50002H271.843V0.730011V0.740005ZM273.353 2.16002V8.08002H275.223C276.903 8.08002 278.163 6.81001 278.163 5.12001C278.163 3.43001 276.903 2.16002 275.223 2.16002H273.353Z" fill="#004D43"/>
<path d="M282.413 0.740005H283.923V9.51001H282.413V0.740005Z" fill="#004D43"/>
<path d="M287.083 0.740005H288.613L292.993 6.94002V0.740005H294.503V9.51001H292.963L288.583 3.31001V9.51001H287.073V0.740005H287.083Z" fill="#004D43"/>
<path d="M297.223 5.12001C297.223 2.54001 299.213 0.580017 301.833 0.580017C303.863 0.580017 305.553 1.76001 306.093 3.43001H304.403C303.903 2.59001 302.963 2.04001 301.833 2.04001C300.103 2.04001 298.783 3.36001 298.783 5.12001C298.783 6.88001 300.103 8.20001 301.833 8.20001C303.283 8.20001 304.423 7.32002 304.713 6.05002H302.133V4.69002H306.323V5.20001C306.323 7.74001 304.413 9.66002 301.823 9.66002C299.233 9.66002 297.213 7.70001 297.213 5.12001H297.223Z" fill="#004D43"/>
<path d="M313.313 0.740005H314.823V9.51001H313.313V0.740005Z" fill="#004D43"/>
<path d="M317.983 0.740005H319.513L323.893 6.94002V0.740005H325.403V9.51001H323.863L319.483 3.31001V9.51001H317.973V0.740005H317.983Z" fill="#004D43"/>
<path d="M328.093 6.96001H329.643C329.643 7.72001 330.383 8.30002 331.333 8.30002C332.223 8.30002 332.933 7.82001 332.933 7.12001C332.933 5.38001 328.243 6.17001 328.243 3.18001C328.243 1.61001 329.593 0.590012 331.283 0.590012C332.973 0.590012 334.343 1.70001 334.343 3.17001H332.793C332.793 2.47001 332.133 1.95001 331.253 1.95001C330.463 1.95001 329.793 2.38001 329.793 3.07001C329.793 4.81001 334.493 3.91001 334.493 6.96001C334.493 8.60001 333.083 9.66002 331.323 9.66002C329.563 9.66002 328.093 8.49002 328.093 6.97002V6.96001Z" fill="#004D43"/>
<path d="M338.813 2.16002H336.313V0.740005H342.813V2.16002H340.323V9.50002H338.813V2.16002Z" fill="#004D43"/>
<path d="M345.373 0.740005H346.883V9.51001H345.373V0.740005Z" fill="#004D43"/>
<path d="M351.933 2.16002H349.433V0.740005H355.933V2.16002H353.443V9.50002H351.933V2.16002Z" fill="#004D43"/>
<path d="M358.313 6.13002V0.740005H359.813V6.10001C359.813 7.29001 360.713 8.20001 361.913 8.20001C363.113 8.20001 364.013 7.30001 364.013 6.10001V0.740005H365.523V6.13002C365.523 8.15002 363.973 9.66002 361.913 9.66002C359.853 9.66002 358.313 8.15002 358.313 6.13002Z" fill="#004D43"/>
<path d="M370.403 2.16002H367.903V0.740005H374.403V2.16002H371.913V9.50002H370.403V2.16002Z" fill="#004D43"/>
<path d="M376.963 0.740005H378.473V9.51001H376.963V0.740005Z" fill="#004D43"/>
<path d="M381.173 5.12001C381.173 2.54001 383.163 0.580017 385.783 0.580017C388.403 0.580017 390.393 2.54001 390.393 5.12001C390.393 7.70001 388.413 9.66002 385.783 9.66002C383.153 9.66002 381.173 7.70001 381.173 5.12001ZM388.853 5.12001C388.853 3.37001 387.533 2.04001 385.793 2.04001C384.053 2.04001 382.743 3.36001 382.743 5.12001C382.743 6.88001 384.063 8.20001 385.793 8.20001C387.523 8.20001 388.853 6.88001 388.853 5.12001Z" fill="#004D43"/>
<path d="M393.113 0.740005H394.643L399.023 6.94002V0.740005H400.533V9.51001H398.993L394.613 3.31001V9.51001H393.103V0.740005H393.113Z" fill="#004D43"/>
<path d="M403.223 6.96001H404.773C404.773 7.72001 405.513 8.30002 406.463 8.30002C407.353 8.30002 408.063 7.82001 408.063 7.12001C408.063 5.38001 403.373 6.17001 403.373 3.18001C403.373 1.61001 404.723 0.590012 406.413 0.590012C408.103 0.590012 409.473 1.70001 409.473 3.17001H407.923C407.923 2.47001 407.263 1.95001 406.383 1.95001C405.593 1.95001 404.923 2.38001 404.923 3.07001C404.923 4.81001 409.623 3.91001 409.623 6.96001C409.623 8.60001 408.213 9.66002 406.453 9.66002C404.693 9.66002 403.223 8.49002 403.223 6.97002V6.96001Z" fill="#004D43"/>
</svg>
