<svg width="8" height="7" viewBox="0 0 8 7" fill="none" xmlns="http://www.w3.org/2000/svg">
<path d="M7.23787 5.36849C7.23787 5.36849 7.25704 5.38287 7.26663 5.38767V5.65609L7.15639 5.59857L6.77772 5.41642V5.60336L6.99821 5.79509L7.11325 5.89575V6.14501L6.77772 5.95327V6.06831L6.81127 6.10187L6.95028 6.25046V6.49971L6.77772 6.39425V6.53805L6.88796 6.64351V6.70103L6.74416 6.88797L6.60036 6.70103V6.6483L6.71061 6.54285L6.72019 5.148L6.45657 5.36849V5.45956L6.66747 5.33973V5.41642L6.27442 5.60336L6.16418 5.66088V5.39246C6.16418 5.39246 6.17856 5.38287 6.19294 5.37329C6.20252 5.36849 6.20731 5.3637 6.22169 5.35411C6.24087 5.33973 6.26004 5.33014 6.27921 5.31097C6.39904 5.22948 6.54285 5.12883 6.64351 5.05693V4.64949L5.68485 4.69264C5.29659 5.7951 4.25644 6.58599 3.02457 6.58599C1.46675 6.58599 0.201317 5.32056 0.201317 3.76274C0.201317 3.09168 0.436188 2.47334 0.829238 1.99401L1.45237 2.68904L0 0H5.36369L8 4.59677L6.88796 4.6447V5.13362C7.003 5.21031 7.14201 5.31097 7.24267 5.37808L7.23787 5.36849Z" fill="#004D43"/>
</svg>
