<svg width="144" height="50" viewBox="0 0 144 50" fill="none" xmlns="http://www.w3.org/2000/svg">
<mask id="mask0_1_980" style="mask-type:luminance" maskUnits="userSpaceOnUse" x="0" y="-1" width="144" height="52">
<path d="M144 -0.00634766H0V50.9937H144V-0.00634766Z" fill="white"/>
</mask>
<g mask="url(#mask0_1_980)">
<path d="M52.5452 2.83134C48.1604 2.89927 47.0136 4.4827 46.9488 8.17414L46.676 29.3563C46.542 38.9927 42.4256 48.6877 27.5884 48.6877C15.11 48.6877 5.59616 43.4079 5.59616 29.2929V8.17414C5.59616 4.4827 4.38456 2.89927 0 2.83134V0.85437C5.39744 1.04876 7.68656 1.04876 9.84656 1.04876C12.0066 1.04876 14.3156 1.04876 19.6933 0.85437V2.83134C15.3136 2.89927 14.0971 4.4827 14.0971 8.17414V30.9396C14.0971 40.8384 20.5076 46.1811 28.0602 46.1811C39.7986 46.1811 43.9796 38.7889 43.9796 27.3116C43.9796 23.6151 43.91 20.9971 43.8456 18.0827L43.642 8.51418C43.5724 4.55559 42.6984 2.84096 37.7727 2.84096V0.864147C40.2556 0.92726 42.9668 1.05834 45.0572 1.05834C47.1476 1.05834 49.9136 0.92726 52.5452 0.864147V2.83134Z" fill="#CC0011"/>
<path d="M99.2236 15.4991H97.466C95.9764 5.99853 87.7532 2.50147 79.6596 2.50147C70.6868 2.50147 61.9872 9.43266 61.9872 22.2311C61.9872 34.6364 69.2716 45.9194 80.9408 45.9194C86.0004 45.9194 93.8908 43.0054 99.6952 34.044L99.7252 41.8154C94.1092 46.4442 86.0004 48.6735 78.7808 48.6735C55.4428 48.6735 52.0016 30.9935 52.0016 23.7999C52.0016 13.1143 59.7628 0 80.7372 0C84.9876 0 92.8132 1.19001 99.2236 3.69625V15.4991Z" fill="#CC0011"/>
<path d="M135.07 5.45979V5.42565C135 5.22168 134.737 4.15794 136.411 3.93458C136.618 3.53455 136.9 3.17675 137.245 2.88062C137.56 3.22133 137.828 3.60196 138.039 4.01228C138.405 4.07809 138.739 4.25953 138.99 4.529C139.24 4.79842 139.393 5.14082 139.425 5.50339C139.425 5.50339 138.58 5.01768 138.382 5.63462L138.471 7.71835H140.492C140.627 7.60897 140.725 7.46245 140.774 7.2979C140.823 7.13335 140.82 6.95836 140.765 6.79546C140.765 6.79546 142.091 6.19807 142.166 8.1409C142.588 8.30361 142.982 8.52983 143.333 8.81122C143.024 9.21903 142.588 9.51748 142.091 9.66118C142.091 9.66118 141.932 11.0552 140.691 10.9822C140.691 10.9822 141.113 10.2198 140.507 9.97687H138.382V12.0412C138.421 12.1156 138.475 12.1817 138.541 12.2357C138.606 12.2897 138.682 12.3305 138.764 12.3557C138.845 12.381 138.931 12.3903 139.016 12.383C139.102 12.3757 139.185 12.3519 139.261 12.3131C139.261 12.3131 139.906 13.6683 138.074 13.6683C137.876 14.1142 137.597 14.5207 137.25 14.8681C136.874 14.5183 136.586 14.0876 136.411 13.61C136.411 13.61 135.085 13.4983 135.065 12.2937C135.065 12.2937 135.775 12.5608 136.103 12.0606L136.008 9.99145H133.978C133.893 10.037 133.82 10.0998 133.763 10.1757C133.706 10.2515 133.666 10.3383 133.646 10.4306C133.626 10.5227 133.627 10.618 133.648 10.7098C133.669 10.8016 133.71 10.8879 133.769 10.9629C133.769 10.9629 132.394 11.4048 132.279 9.67577C131.845 9.47954 131.452 9.20429 131.122 8.8646C131.474 8.52021 131.892 8.24926 132.354 8.06797C132.354 8.06797 132.542 6.69836 133.784 6.71295C133.784 6.71295 133.332 7.53374 133.958 7.73289H136.098V5.6492C136.051 5.56173 135.985 5.48599 135.904 5.42718C135.823 5.36848 135.73 5.32855 135.631 5.31033C135.532 5.29211 135.43 5.29606 135.333 5.32195C135.236 5.34779 135.146 5.39499 135.07 5.45979ZM136.56 5.37231V8.20405H133.665C133.508 8.13793 133.375 8.02969 133.279 7.89216C133.183 7.75463 133.129 7.59321 133.123 7.42683C132.98 7.56439 132.869 7.72976 132.795 7.91207C132.722 8.09449 132.688 8.28989 132.696 8.48576C132.514 8.48013 132.332 8.50977 132.162 8.57308C131.992 8.63654 131.836 8.73215 131.703 8.85498C131.962 9.08581 132.296 9.22005 132.647 9.23378C132.686 10.5063 133.143 10.4626 133.143 10.4626C132.989 9.90409 133.64 9.49116 133.64 9.49116H136.515V12.2743C136.422 12.4165 136.3 12.538 136.156 12.6308C136.013 12.7238 135.85 12.7859 135.681 12.8134C135.82 13.1582 136.748 13.2991 136.748 13.2991C136.743 13.4885 136.786 13.6761 136.873 13.8454C136.959 14.0148 137.087 14.1608 137.245 14.2707C137.503 14.1054 137.597 13.2651 137.597 13.2651C138.62 13.4887 138.844 12.8426 138.844 12.8426C138.642 12.8404 138.444 12.7867 138.27 12.6871C138.096 12.5875 137.952 12.4452 137.851 12.2743V9.53969H140.696C141.153 9.66118 141.277 10.3848 141.277 10.3848C141.546 10.0481 141.699 9.63662 141.714 9.20941C141.88 9.21606 142.046 9.19021 142.202 9.13351C142.358 9.07685 142.501 8.99036 142.622 8.87914C142.508 8.74842 142.366 8.64268 142.207 8.56909C142.048 8.49538 141.875 8.45541 141.699 8.45178C141.813 7.43179 141.292 7.18407 141.292 7.18407C141.283 7.3801 141.235 7.57249 141.15 7.74998C141.064 7.92763 140.944 8.08686 140.795 8.2186H137.846V5.35292C137.954 5.21605 138.089 5.10234 138.244 5.01885C138.398 4.93533 138.568 4.88363 138.744 4.86721C138.406 4.61897 137.996 4.48274 137.572 4.47859C137.578 4.14089 137.454 3.81324 137.225 3.56055C136.986 3.8184 136.835 4.14269 136.793 4.48837C135.845 4.28921 135.566 4.83803 135.566 4.83803C135.763 4.8344 135.958 4.88195 136.129 4.97591C136.301 5.06972 136.444 5.20659 136.545 5.37231H136.56Z" fill="#CC0011"/>
<path d="M104.215 5.46607L106.454 3.27551L109.826 6.57341L113.207 3.27551L115.551 5.56802L111.37 9.45368V14.7966H108.192V9.45368L104.215 5.46607ZM108.624 9.24006V14.277H110.923V9.20612L114.702 5.55343L113.158 3.95545L109.801 7.23411L106.39 3.89711L104.865 5.44652L108.624 9.24006Z" fill="#CC0011"/>
<path d="M109.337 7.54138H110.201L110.012 8.29421L110.593 8.0125V8.95475L110.097 8.76533V10.1837C110.038 10.364 109.94 10.5297 109.809 10.6694C109.71 10.6694 109.615 10.48 109.521 10.1837V8.76533L108.94 8.95475V8.02709L109.521 8.30879L109.337 7.54138Z" fill="#CC0011"/>
<path d="M109.243 11.0363H110.206L110.017 11.6968L110.598 11.5074V12.3573L110.017 12.1679V13.6833C109.918 13.9651 109.824 14.0574 109.724 14.0574C109.585 13.9715 109.482 13.8385 109.436 13.6833V12.1679L108.94 12.3573V11.5074L109.521 11.6968L109.228 11.0363H109.243Z" fill="#CC0011"/>
<path d="M105.776 5.56719L106.452 4.90649L106.839 5.4699L107.033 4.90649L107.708 5.56719L107.127 5.75661L108.284 6.88828C108.41 7.05001 108.478 7.24819 108.478 7.45169C108.268 7.45204 108.064 7.38556 107.897 7.2623L106.74 6.22773L106.551 6.71344L105.871 6.0529L106.452 5.86348L105.776 5.58178V5.56719Z" fill="#CC0011"/>
<path d="M113.103 4.80652L113.778 5.46706L113.202 5.84586L113.778 6.03543L113.103 6.69597L112.815 6.21026L111.752 7.34193C111.566 7.3993 111.372 7.43027 111.176 7.43425C111.184 7.26822 111.217 7.10449 111.276 6.94854L112.428 5.81688L111.931 5.53518L112.512 4.87444L112.8 5.43789L113.088 4.77734L113.103 4.80652Z" fill="#CC0011"/>
<path d="M112.248 34.5012C112.541 34.545 113.599 34.8558 113.599 34.8558C113.684 34.7295 114.448 33.967 114.448 33.967C114.269 33.8747 113.237 33.5251 113.237 33.5251C113.122 33.6174 112.248 34.5012 112.248 34.5012Z" fill="#CC0011"/>
<path d="M135.476 35.1758L135.079 35.5692L135.476 35.9579L135.874 35.5692L135.476 35.1758Z" fill="#CC0011"/>
<path d="M132.795 33.6757L132.398 34.0644L131.996 33.6757L132.398 33.2921L132.795 33.6757Z" fill="#CC0011"/>
<path d="M134.739 34.627L133.92 35.4091L133.12 34.6224L133.945 33.816L134.739 34.627ZM133.93 34.4765L133.786 34.6079L133.93 34.7487L134.089 34.6177L133.93 34.4765Z" fill="#CC0011"/>
<path d="M117.335 28.3236C117.314 28.3099 117.296 28.2911 117.285 28.2688C117.274 28.2469 117.268 28.2219 117.27 28.1972C117.272 28.2117 117.272 28.2262 117.27 28.241C117.237 28.3275 117.23 28.4213 117.249 28.5116C117.268 28.602 117.314 28.6849 117.379 28.751L117.548 28.5809L117.717 28.4158C117.715 28.3947 117.715 28.3736 117.717 28.3525C117.74 28.3099 117.754 28.2629 117.758 28.2148C117.762 28.1664 117.755 28.1183 117.739 28.0725C117.722 28.0268 117.697 27.9849 117.663 27.9497C117.63 27.9141 117.588 27.886 117.543 27.8668L117.434 28.0756L117.335 28.3236Z" fill="#CC0011"/>
<path d="M144.158 17.6392C144.252 45.8495 123.71 49.9053 123.71 49.9053C123.71 49.9053 103.262 45.6602 103.262 17.6392V1.4115H144.158V17.6392ZM104.131 2.19831V16.964C104.131 16.964 105.486 18.0424 106.614 18.0036C106.614 18.0036 107.482 18.2899 108.898 16.8329C108.898 16.8329 110.154 15.3758 111.554 15.4097C111.554 15.4097 112.378 15.167 114.375 16.5852C114.375 16.5852 115.755 18.0424 117.438 18.0424C117.438 18.0424 118.928 18.1393 120.537 16.6483C120.537 16.6483 121.917 15.4049 123.516 15.371C123.516 15.371 124.708 15.1572 126.595 16.6823C126.595 16.6823 128.005 18.0474 129.693 18.0424C130.276 18.0013 130.842 17.8398 131.356 17.5685C131.869 17.2972 132.318 16.9224 132.672 16.4687C132.672 16.4687 134.053 15.1232 135.503 15.1572C136.574 15.2227 137.576 15.6931 138.298 16.4687C138.298 16.4687 139.892 18.1393 141.124 17.9939C141.124 17.9939 142.579 17.9939 143.264 16.9544V2.2371L104.131 2.19831ZM123.447 18.1104H123.024V22.2488H123.447V18.1104ZM124.355 18.1104H123.933V22.2488H124.355V18.1104ZM124.792 17.7264C124.876 17.5622 124.92 17.3811 124.921 17.1971C124.922 17.018 124.882 16.8409 124.803 16.6791C124.724 16.5174 124.609 16.3752 124.466 16.2633C124.323 16.1515 124.156 16.0729 123.977 16.0335C123.798 15.9939 123.612 15.9945 123.434 16.0355C123.256 16.0763 123.089 16.1561 122.947 16.269C122.804 16.3818 122.69 16.5248 122.612 16.6872C122.535 16.8495 122.496 17.027 122.498 17.2061C122.501 17.3854 122.545 17.5615 122.627 17.7217H123.442C123.343 17.672 123.261 17.597 123.203 17.5044C123.145 17.4117 123.114 17.3055 123.114 17.1971C123.128 17.0512 123.196 16.9154 123.307 16.8165C123.418 16.7177 123.562 16.6629 123.712 16.6629C123.862 16.6629 124.007 16.7177 124.117 16.8165C124.228 16.9154 124.297 17.0512 124.311 17.1971C124.31 17.3073 124.278 17.4154 124.219 17.5089C124.159 17.6024 124.074 17.6779 123.973 17.7264H124.792ZM119.226 36.917V38.5249H128.978C128.978 38.5249 129.788 42.0365 131.958 42.3133V40.7883C131.958 40.7883 131.347 40.9341 130.91 39.8169L130.344 38.2383C130.344 38.2383 132.772 37.4128 134.023 36.1204L132.593 35.3192C131.774 35.9077 130.875 36.3801 129.922 36.723L129.351 34.945L127.911 35.2461L128.457 36.9268L119.226 36.917ZM120.864 38.9086V39.4525H124.142V38.8988L120.864 38.9086ZM119.315 38.8652V42.1143H126.764C126.764 42.1143 127.161 42.1143 127.146 41.7451C127.146 41.7451 127.206 41.4878 126.833 41.1234L124.643 38.8503V39.9382H120.368V38.8745L119.315 38.8652ZM118.158 42.6V43.1341H129.663L125.661 38.8652H125.378L127.364 40.9682C127.495 41.1218 127.583 41.3056 127.62 41.5019C127.658 41.6982 127.643 41.9008 127.578 42.09C127.578 42.09 127.424 42.5515 126.674 42.5757L118.158 42.6ZM135.359 36.4364C136.531 36.9463 136.848 36.3297 136.848 36.3297C137.295 35.5183 136.302 34.9114 136.302 34.9114L132.454 32.7497C131.382 32.4533 131.103 33.0899 131.103 33.0899C131 33.3136 130.984 33.5666 131.057 33.8016C131.13 34.0362 131.288 34.2372 131.501 34.367L135.359 36.4364ZM118.824 38.1413V36.8783C117.468 36.2397 116.079 35.6704 114.663 35.1734C114.663 35.1734 115.234 34.5031 115.427 34.3139C116.876 34.9387 118.259 35.6981 119.559 36.5823H121.167C117.868 34.0253 113.959 32.3321 109.806 31.6618C109.806 31.6618 109.379 31.5551 109.23 32.0939C109.206 32.2218 109.232 32.354 109.302 32.4639C109.374 32.5737 109.484 32.6535 109.613 32.6867C110.454 32.8033 111.284 32.9871 112.095 33.2354L111.028 34.3088C111.028 34.3088 109.449 34.0174 108.62 33.9252C108.546 33.922 108.472 33.933 108.402 33.958C108.333 33.983 108.27 34.0214 108.216 34.0706C108.162 34.1199 108.118 34.1793 108.088 34.245C108.057 34.3111 108.04 34.3823 108.039 34.4546C108.039 34.4546 107.974 34.9161 108.356 35.0474C108.371 35.0474 113.958 35.3047 118.824 38.1413ZM117.334 25.6535C117.505 25.519 117.711 25.4349 117.929 25.4099C118.147 25.3849 118.368 25.4205 118.566 25.5128C118.668 25.4885 118.774 25.4885 118.876 25.5131C118.978 25.5378 119.072 25.5859 119.151 25.6535C119.112 25.483 119.114 25.3059 119.159 25.137C119.204 24.9676 119.29 24.8116 119.41 24.6818C119.384 24.7596 119.376 24.8413 119.385 24.9223C119.394 25.0032 119.421 25.0814 119.463 25.1514C119.505 25.2214 119.562 25.282 119.63 25.3294C119.698 25.3767 119.775 25.4091 119.856 25.4252C119.211 25.833 119.856 26.1439 119.856 26.1439C119.156 26.5568 119.802 26.8724 119.802 26.8724C119.305 27.3049 119.916 27.3585 119.916 27.3585C119.727 28.3298 120.413 28.5922 120.413 28.5922C120.333 28.616 120.249 28.616 120.169 28.5922C120.348 29.6241 120.348 30.6784 120.169 31.7103C120.201 31.7791 120.218 31.8534 120.218 31.9289C120.218 32.0044 120.201 32.0787 120.169 32.1475C120.313 32.5409 119.862 32.5604 119.862 32.5604C119.771 32.7861 119.649 32.9988 119.499 33.1916L119.668 33.4102L120.055 32.9245L120.15 33.0168L119.862 33.5854L120.358 33.488C120.497 33.4375 120.618 33.3488 120.706 33.2322C120.794 33.1157 120.846 32.9769 120.855 32.8322C120.591 32.0454 121.048 31.7928 121.048 31.7928C120.696 30.705 121.197 28.3931 121.197 28.3931C121.932 28.3153 121.545 27.4703 121.545 27.4703C122.071 27.193 121.664 26.6202 121.664 26.6202C122.111 26.382 121.788 25.7701 121.788 25.7701C122.235 25.4737 121.972 24.7647 121.972 24.7647C122.468 24.5657 122.111 23.9533 122.111 23.9533C122.518 23.696 122.111 22.982 122.111 22.982C122.473 23.1036 122.607 22.4963 122.607 22.4963V17.882C122.44 17.8973 122.278 17.9485 122.134 18.0326C121.99 18.1167 121.866 18.2308 121.773 18.3677C121.586 18.3638 121.401 18.417 121.246 18.5194C121.09 18.6223 120.971 18.7693 120.904 18.941C120.689 18.9464 120.481 19.0239 120.316 19.1596C120.151 19.2952 120.038 19.4822 119.996 19.6886C119.29 19.6886 119.29 20.5387 119.29 20.5387C119.129 20.5716 118.987 20.6647 118.895 20.7976C118.802 20.931 118.766 21.094 118.794 21.2528C118.662 21.3286 118.552 21.4346 118.471 21.5617C118.391 21.6884 118.343 21.8327 118.332 21.9813C117.87 22.1807 117.87 22.8119 117.87 22.8119C117.304 22.9675 117.503 23.5795 117.503 23.5795C117.081 23.7589 117.24 24.3905 117.24 24.3905C117.117 24.4937 117.018 24.6212 116.948 24.7643C116.879 24.907 116.842 25.0631 116.838 25.221C117.018 25.347 117.189 25.4846 117.349 25.634L117.334 25.6535ZM116.728 26.6006C117.17 27.4312 117.721 27.3925 117.721 27.3925C117.925 27.4253 118.134 27.4038 118.326 27.3303C118.518 27.2568 118.687 27.134 118.814 26.9745C118.926 26.8395 118.994 26.6745 119.008 26.5009C119.022 26.3277 118.982 26.1541 118.893 26.0031C118.729 25.7071 118.531 26.0614 118.531 26.0614C118.268 26.8337 117.945 26.795 117.945 26.795C117.498 26.9698 117.175 26.2217 117.175 26.2217C117.07 26.0016 116.901 25.8162 116.689 25.6895C116.477 25.5624 116.232 25.4995 115.983 25.5077C116.314 25.8064 116.574 26.1732 116.743 26.5811L116.728 26.6006ZM116.788 28.0823C116.766 28.2219 116.716 28.356 116.639 28.4757C116.837 28.5672 117.014 28.6966 117.161 28.8557C117.307 29.0149 117.42 29.201 117.493 29.4032C117.96 30.3503 118.382 30.0543 118.382 30.0543L118.188 29.7579C118.14 29.7066 118.114 29.6402 118.114 29.5706C118.114 29.5017 118.14 29.4349 118.188 29.3836C118.367 29.2476 118.57 29.4423 118.57 29.4423C118.163 28.5531 118.848 28.3587 118.848 28.3587C118.882 28.0666 118.826 27.771 118.69 27.509C118.489 27.6236 118.267 27.6967 118.036 27.7241C117.806 27.7518 117.572 27.7331 117.349 27.6693C117.2 27.8398 117.013 27.9743 116.803 28.0627L116.788 28.0823ZM117.493 26.0082L117.692 26.3625C117.692 26.3625 117.796 26.5811 117.999 26.3625C118.131 26.1986 118.228 26.0102 118.282 25.8088C118.282 25.8088 118.034 25.634 117.508 25.9984L117.493 26.0082ZM115.879 26.1681C115.631 25.9499 115.304 25.8365 114.97 25.8526C115.209 26.1142 115.427 26.3934 115.621 26.6882C115.621 26.6882 115.775 26.2264 115.894 26.149L115.879 26.1681ZM119.087 28.5726C119.027 28.627 118.96 28.6747 118.888 28.7134C118.831 28.7717 118.799 28.8491 118.799 28.9296C118.799 29.0102 118.831 29.088 118.888 29.1459C118.888 29.1459 119.31 29.8208 118.948 30.1172C119.116 30.8121 119.116 31.5351 118.948 32.23C118.819 32.512 118.737 32.8119 118.704 33.1188L118.928 32.7208H119.067L118.968 33.2064L119.271 33.1384C119.402 32.9108 119.49 32.6625 119.534 32.4048C119.534 32.4048 119.464 31.9919 119.737 31.9191C119.694 31.8452 119.671 31.7615 119.671 31.6763C119.671 31.5911 119.694 31.5074 119.737 31.4335C119.737 31.4335 120.125 30.5446 119.703 28.5194C119.615 28.5785 119.513 28.6129 119.407 28.6192C119.301 28.625 119.196 28.6024 119.102 28.5531L119.087 28.5726ZM119.112 27.5477C119.112 27.5477 119.191 27.9607 119.191 28.0823L119.29 28.1988H119.454L119.43 27.7468L119.112 27.5477ZM126.972 33.5075L127.747 33.0219L127.801 33.1239C127.575 33.2768 127.366 33.4544 127.181 33.6534C127.181 33.6534 127.315 33.7504 128.134 33.4927C128.305 33.4415 128.455 33.3378 128.561 33.1967C128.561 33.1967 128.72 33.0899 128.561 32.8518C128.476 32.738 128.43 32.5995 128.432 32.4584C128.488 32.4752 128.548 32.4764 128.605 32.4619C128.662 32.447 128.714 32.4177 128.755 32.3759C128.755 32.3759 128.814 32.3759 128.899 32.2011C128.886 32.1096 128.899 32.0169 128.935 31.9317C128.97 31.8464 129.028 31.7717 129.102 31.7154C129.102 31.7154 128.958 28.5531 129.162 28.3153C129.162 28.3153 129.296 27.6642 128.765 27.5477C128.765 27.5477 129.38 26.9893 128.849 26.761C128.849 26.761 129.49 26.1732 128.755 25.9351C128.755 25.9351 129.539 25.3962 129.013 24.9348C129.119 24.8015 129.17 24.6345 129.156 24.4663C129.142 24.2982 129.065 24.1414 128.938 24.0264C128.938 24.0264 129.127 23.2299 128.621 23.147C128.621 23.147 129.033 22.5937 128.546 22.4478C128.546 22.4478 128.824 21.6802 128.268 21.4424C128.268 21.4424 128.884 21.4765 129.018 22.273C129.018 22.273 129.44 22.472 129.142 22.9917C129.273 23.1036 129.367 23.2514 129.411 23.416C129.455 23.5806 129.448 23.7543 129.39 23.9146C129.5 24.0503 129.569 24.2129 129.589 24.3842C129.609 24.5559 129.58 24.7295 129.504 24.8859C129.504 24.8859 129.936 25.5468 129.321 25.8917C129.424 25.9953 129.487 26.1318 129.498 26.2765C129.509 26.4215 129.467 26.5654 129.38 26.6831C129.431 26.7355 129.471 26.7969 129.497 26.8642C129.523 26.9318 129.535 27.0034 129.532 27.0757C129.529 27.1473 129.512 27.2181 129.481 27.2834C129.45 27.3487 129.405 27.4073 129.351 27.4554C129.41 27.5727 129.44 27.7014 129.44 27.832C129.44 27.9626 129.41 28.0913 129.351 28.2082C129.351 28.2082 129.981 28.6942 130.463 28.3153C130.567 28.1957 130.637 28.0518 130.666 27.8973C130.696 27.7432 130.684 27.5845 130.632 27.4359C130.632 27.4359 130.935 27.1543 130.766 26.8919C130.812 26.8149 130.829 26.7246 130.816 26.6366C130.802 26.5482 130.758 26.4669 130.691 26.4063C130.776 26.2632 130.811 26.0966 130.789 25.9323C130.768 25.7681 130.691 25.6156 130.572 25.4983C130.608 25.3434 130.61 25.1831 130.576 25.0279C130.543 24.8726 130.476 24.7264 130.378 24.5993C130.412 24.4554 130.404 24.3044 130.355 24.1648C130.306 24.0249 130.218 23.9013 130.1 23.8078C130.1 23.8078 130.269 23.1423 129.857 22.8365C129.862 22.6875 129.832 22.5397 129.769 22.404C129.706 22.2683 129.612 22.149 129.495 22.0544C129.499 21.8671 129.448 21.6825 129.347 21.5234C129.247 21.3638 129.102 21.2364 128.928 21.1558C128.908 20.9869 128.837 20.8273 128.725 20.6971C128.613 20.5669 128.464 20.4711 128.298 20.4222C128.26 20.2728 128.178 20.1375 128.063 20.0331C127.947 19.9287 127.803 19.8595 127.647 19.8345C127.656 19.7109 127.618 19.5885 127.543 19.4888C127.468 19.3891 127.359 19.3191 127.235 19.2906C127.235 19.2906 127.161 18.7322 126.342 18.7806C126.29 18.6473 126.202 18.5312 126.086 18.4451C125.97 18.3591 125.831 18.3071 125.686 18.295C125.609 18.2093 125.512 18.1429 125.403 18.1014C125.294 18.06 125.176 18.0447 125.06 18.0568L124.842 17.9114V22.4771C124.842 22.4771 124.842 22.6226 124.748 22.6324C124.748 22.6324 124.708 23.3077 125.155 23.4825C125.092 23.6123 125.074 23.7582 125.102 23.8989C125.131 24.0397 125.205 24.1676 125.314 24.2646C125.314 24.2646 125.18 24.925 125.567 25.1628C125.567 25.1628 125.373 25.7071 125.726 25.9206C125.676 26.0798 125.674 26.2499 125.718 26.4106C125.763 26.5713 125.854 26.7164 125.979 26.829C125.979 26.829 125.979 27.3729 126.451 27.4457C126.451 27.4457 126.754 28.0576 127.26 27.9313C127.26 27.9313 127.826 28.3102 127.394 31.6083C127.27 31.6654 127.172 31.7639 127.116 31.8859C127.061 32.0083 127.052 32.1459 127.091 32.2738C127.091 32.2738 126.793 32.4486 126.63 33.1869H126.724L127.429 32.5847C127.362 32.4721 127.34 32.3391 127.367 32.2116C127.395 32.0842 127.47 31.9711 127.578 31.8949C127.62 31.6603 127.697 31.4327 127.806 31.2196C127.987 30.2408 127.995 29.239 127.831 28.2571C127.755 28.1538 127.707 28.0334 127.692 27.9071C127.482 27.8433 127.305 27.7045 127.196 27.5188C127.024 27.5012 126.863 27.4257 126.742 27.3053C126.62 27.1848 126.545 27.0269 126.53 26.8579C126.158 26.6882 126.192 26.1928 126.192 26.1928C125.696 25.9206 125.974 25.2844 125.974 25.2844C125.577 25.0705 125.686 24.3518 125.686 24.3518C125.289 24.1038 125.502 23.5697 125.502 23.5697C125.19 23.4289 125.314 22.9045 125.314 22.9045C124.902 22.4818 125.249 21.7967 125.249 21.7967C125.22 21.9918 125.249 22.1909 125.333 22.37C125.416 22.5491 125.551 22.7012 125.721 22.8072C125.502 23.1618 125.885 23.497 125.885 23.497C125.631 23.9435 126.138 24.245 126.138 24.245C126.072 24.41 126.058 24.5899 126.097 24.7627C126.136 24.9356 126.226 25.0936 126.356 25.2163C126.083 25.8185 126.59 25.9789 126.59 25.9789C126.396 26.4211 126.937 26.6538 126.937 26.6538C126.774 27.2028 127.498 27.2173 127.498 27.2173C127.369 27.5379 127.995 27.8875 127.995 27.8875C127.94 27.9106 127.881 27.9255 127.821 27.9313C127.944 28.0647 128.111 28.1507 128.293 28.1746C128.388 29.1987 128.388 30.2295 128.293 31.2536C128.252 31.4479 128.198 31.6392 128.134 31.8269C128.118 31.8972 128.118 31.9704 128.134 32.0407C128.102 32.101 128.054 32.1522 127.996 32.1893C127.938 32.2269 127.871 32.2492 127.801 32.2543C127.737 32.2965 127.683 32.3516 127.643 32.4165C127.603 32.4807 127.577 32.5534 127.568 32.6285L126.972 33.5075ZM116.048 26.6053L116.197 26.7512C116.331 27.0718 115.924 27.0961 115.924 27.0961C115.725 27.1348 115.74 27.3585 115.954 27.3972H115.978C116.028 27.4019 116.076 27.4202 116.116 27.4503C116.155 27.4805 116.185 27.5211 116.202 27.5673C116.281 27.7323 116.073 27.9071 116.073 27.9071C116.042 27.9591 116.03 28.0201 116.04 28.0795C116.05 28.139 116.081 28.1933 116.127 28.2324C116.217 28.3009 116.331 28.155 116.331 28.155V27.8637C116.331 27.5767 116.659 27.6111 116.659 27.6111C116.8 27.6267 116.942 27.5943 117.061 27.5188C116.83 27.3811 116.634 27.193 116.49 26.9698L116.192 26.4258L116.048 26.6053Z" fill="#CC0011"/>
<path d="M118.842 5.03277C119.511 5.084 120.182 4.94049 120.768 4.62C120.768 4.62 122.302 3.72131 123.594 4.62C124.068 4.36629 124.6 4.23087 125.141 4.22591C125.683 4.22078 126.217 4.34607 126.697 4.59082C126.697 4.59082 128.032 5.25617 128.946 5.07653V5.19799L129.984 5.28535V6.1111H130.56V7.62176H129.974V8.02477H130.56V9.54504H129.974V10.2106H130.56V11.6677H129.974V12.2748H130.56V13.7757H129.974V14.2614H124.462C124.207 14.3781 123.929 14.4386 123.648 14.4386C123.367 14.4386 123.088 14.3781 122.834 14.2614H117.635V13.6251L117.044 13.5813L117.292 13.732L116.796 14.2177L115.946 13.4551L115.53 13.4259C115.53 13.4259 115.172 13.2269 115.53 12.9694L115.932 12.9256L116.771 12.1971L117.342 12.6829L117.049 12.7168V12.882L117.625 12.8043V11.4249L117.004 11.3666L117.267 11.5462L116.771 12.066L115.917 11.2743H115.544C115.544 11.2743 115.127 11.0313 115.544 10.7885L115.932 10.7594L116.756 10.0163L117.312 10.502L117.019 10.6525L117.625 10.6233V9.23914L116.94 9.15162L117.267 9.33142L116.771 9.81713L115.946 9.12742L115.544 9.09825C115.544 9.09825 115.157 8.89909 115.544 8.61254H115.932L116.771 7.84016L117.312 8.32602L116.94 8.51047L117.655 8.45229V7.11169L117.034 7.06794L117.342 7.18939L116.786 7.73825L116.021 7.05335H115.599C115.599 7.05335 115.102 6.8931 115.599 6.56764L115.842 6.53366L116.781 5.73227L117.277 6.21798L116.89 6.44618L117.605 6.39762V5.31929L118.812 5.24655L118.842 5.03277ZM118.206 13.3336L118.812 12.7266V5.78564L118.191 5.83417L118.206 13.3336ZM122.71 13.6688L123.266 12.5468C119.824 13.29 119.169 13.0617 119.169 13.0617L118.563 13.6834L122.71 13.6688ZM123.623 12.9548L123.162 13.863C123.483 13.9743 123.833 13.9743 124.154 13.863L123.623 12.9548ZM123.921 12.5128L124.586 13.6834H129.09L128.42 13.1054C127.171 13.1137 125.928 12.9503 124.726 12.6197C124.46 12.5685 124.191 12.5329 123.921 12.5128ZM128.961 12.9256L129.398 13.3046V5.83417L128.961 5.78564V12.9256ZM119.328 12.6051C120.027 12.6033 120.724 12.5334 121.408 12.3963C122.466 12.2019 123.365 12.0465 123.365 12.0465V5.51368L123.613 5.22716L123.862 5.51368V12.0125C124.636 12.1028 125.404 12.2391 126.16 12.4205C126.919 12.5804 127.694 12.6474 128.47 12.6197V5.59622C127.775 5.52478 127.101 5.32363 126.483 5.0036C126.032 4.79713 125.536 4.70332 125.038 4.73035C124.541 4.75752 124.058 4.90487 123.633 5.15904C123.266 4.89095 122.825 4.73551 122.368 4.71212C121.91 4.68878 121.455 4.79862 121.061 5.02797C120.531 5.32277 119.937 5.48931 119.328 5.51368V12.6051Z" fill="#CC0011"/>
</g>
</svg>
