<?xml version="1.0" encoding="UTF-8"?>
<svg version="1.1" xmlns="http://www.w3.org/2000/svg" width="48" height="48">
<path d="M0 0 C0.33 0 0.66 0 1 0 C1.10824843 1.6026782 1.18570645 3.20745748 1.25 4.8125 C1.29640625 5.70582031 1.3428125 6.59914063 1.390625 7.51953125 C1 10 1 10 -0.828125 11.82421875 C-3 13 -3 13 -6 13 C-5.67 13.66 -5.34 14.32 -5 15 C-4.625 17.9375 -4.625 17.9375 -5 21 C-7.375 22.9375 -7.375 22.9375 -10 24 C-12.7839183 22.60804085 -12.97898997 20.84424221 -14 18 C-14.99 18 -15.98 18 -17 18 C-17 16.35 -17 14.7 -17 13 C-16.4225 13.226875 -15.845 13.45375 -15.25 13.6875 C-12.92335329 14.22699219 -12.92335329 14.22699219 -10.75 12.875 C-8.73265199 11.09676112 -8.73265199 11.09676112 -8.75 8.3125 C-8.87375 7.1678125 -8.87375 7.1678125 -9 6 C-9.66 5.67 -10.32 5.34 -11 5 C-9.68 4.34 -8.36 3.68 -7 3 C-7 3.66 -7 4.32 -7 5 C-5.02 5 -3.04 5 -1 5 C-0.67 3.35 -0.34 1.7 0 0 Z " fill="#093215" transform="translate(29,13)"/>
<path d="M0 0 C2.5 1 2.5 1 5 2 C5.99 1.34 6.98 0.68 8 0 C8.33 0.99 8.66 1.98 9 3 C8.01 4.485 8.01 4.485 7 6 C6.34 6 5.68 6 5 6 C4.34 7.32 3.68 8.64 3 10 C5.35953094 12.35953094 6.77895617 12.49141413 10 13 C10 13.33 10 13.66 10 14 C4.36529617 14.5497272 1.61012242 12.95047835 -3 10 C-3.29296875 3.9453125 -3.29296875 3.9453125 -3 2 C-2.01 1.34 -1.02 0.68 0 0 Z " fill="#05140D" transform="translate(28,25)"/>
<path d="M0 0 C0.33 0 0.66 0 1 0 C1 3.3 1 6.6 1 10 C-0.32 10 -1.64 10 -3 10 C-5.00401011 10.30830925 -7.00511766 10.63729412 -9 11 C-9 9.35 -9 7.7 -9 6 C-9.66 5.67 -10.32 5.34 -11 5 C-9.68 4.34 -8.36 3.68 -7 3 C-7 3.66 -7 4.32 -7 5 C-5.02 5 -3.04 5 -1 5 C-0.67 3.35 -0.34 1.7 0 0 Z " fill="#01231B" transform="translate(29,13)"/>
<path d="M0 0 C2.375 0.8125 2.375 0.8125 3.375 2.8125 C1.725 3.1425 0.075 3.4725 -1.625 3.8125 C-1.295 4.8025 -0.965 5.7925 -0.625 6.8125 C-2.5 7.4375 -2.5 7.4375 -4.625 7.8125 C-5.285 7.1525 -5.945 6.4925 -6.625 5.8125 C-5.31489459 1.88218377 -4.42268052 -0.31590575 0 0 Z " fill="#0A4E39" transform="translate(24.625,22.1875)"/>
<path d="M0 0 C2.31 0.33 4.62 0.66 7 1 C6.875 2.875 6.875 2.875 6 5 C2.9375 6.25 2.9375 6.25 0 7 C-1.125 2.25 -1.125 2.25 0 0 Z " fill="#030E06" transform="translate(17,30)"/>
<path d="M0 0 C0.625 1.875 0.625 1.875 1 4 C0.34 4.66 -0.32 5.32 -1 6 C-0.01 6.99 0.98 7.98 2 9 C0.35 9 -1.3 9 -3 9 C-3.1875 5.625 -3.1875 5.625 -3 2 C-2.01 1.34 -1.02 0.68 0 0 Z " fill="#163B30" transform="translate(28,25)"/>
<path d="M0 0 C0.66 0 1.32 0 2 0 C2 0.66 2 1.32 2 2 C3.32 2 4.64 2 6 2 C6 2.66 6 3.32 6 4 C4.02 4.66 2.04 5.32 0 6 C0 5.01 0 4.02 0 3 C-0.66 2.67 -1.32 2.34 -2 2 C-1.34 1.34 -0.68 0.68 0 0 Z " fill="#020804" transform="translate(20,16)"/>
<path d="M0 0 C0.66 0.33 1.32 0.66 2 1 C1.67 2.65 1.34 4.3 1 6 C-0.65 6.33 -2.3 6.66 -4 7 C-3.6875 4.625 -3.6875 4.625 -3 2 C-2.01 1.34 -1.02 0.68 0 0 Z " fill="#020302" transform="translate(35,25)"/>
<path d="M0 0 C0.226875 0.639375 0.45375 1.27875 0.6875 1.9375 C1.83913693 4.25653741 1.83913693 4.25653741 4.5 4.6875 C5.325 4.790625 6.15 4.89375 7 5 C7.66 5.33 8.32 5.66 9 6 C6.75 7.1875 6.75 7.1875 4 8 C1.6875 6.9375 1.6875 6.9375 0 5 C-0.25 2.3125 -0.25 2.3125 0 0 Z " fill="#060C0C" transform="translate(8,32)"/>
<path d="M0 0 C0.99 0.495 0.99 0.495 2 1 C2 2.98 2 4.96 2 7 C1.67 7 1.34 7 1 7 C0.67 4.69 0.34 2.38 0 0 Z " fill="#010101" transform="translate(38,30)"/>
<path d="M0 0 C1.65 0 3.3 0 5 0 C5 0.33 5 0.66 5 1 C3.35 1 1.7 1 0 1 C0 0.67 0 0.34 0 0 Z " fill="#000400" transform="translate(22,9)"/>
<path d="M0 0 C0 3 0 3 0 3 Z " fill="#091407" transform="translate(10,29)"/>
<path d="" fill="#000000" transform="translate(0,0)"/>
<path d="" fill="#0A1C0D" transform="translate(0,0)"/>
<path d="" fill="#000000" transform="translate(0,0)"/>
<path d="" fill="#040405" transform="translate(0,0)"/>
<path d="" fill="#000000" transform="translate(0,0)"/>
<path d="" fill="#000505" transform="translate(0,0)"/>
<path d="" fill="#000200" transform="translate(0,0)"/>
<path d="" fill="#000200" transform="translate(0,0)"/>
<path d="" fill="#000200" transform="translate(0,0)"/>
<path d="" fill="#000300" transform="translate(0,0)"/>
</svg>
