<svg width="45" height="17" viewBox="0 0 45 17" fill="none" xmlns="http://www.w3.org/2000/svg">
<path d="M42.1333 4.08799C42.4526 3.78969 42.7635 3.47458 43.0576 3.14267C43.1585 3.02923 43.2551 2.91579 43.3517 2.79815C43.3643 2.78554 43.3728 2.76874 43.3854 2.75614L42.9694 1.89904L42.8098 1.57553C42.5115 1.74779 42.2048 1.91164 41.8896 2.0713C41.8896 2.23095 41.8854 2.39901 41.8812 2.57547C41.8728 3.18468 41.8602 3.86531 41.8476 4.35268C41.9401 4.27285 42.0325 4.18882 42.1207 4.10479L42.1333 4.09219V4.08799Z" fill="#004D43"/>
<path d="M40.5494 6.26434L40.1586 6.06267C40.0746 6.12149 39.9948 6.17611 39.9108 6.23493C39.8393 6.28535 39.7679 6.33156 39.6965 6.37778L39.9234 6.49542L40.2343 6.65928L40.3267 6.70969H40.3351L40.1082 6.93657H40.0956L40.0074 6.95758L39.9528 6.97018L39.2679 7.10043L38.1798 7.3105C38.0159 7.40293 37.8563 7.49116 37.705 7.57099L38.2638 7.69283L39.2595 7.9071L41.2258 8.33145C41.5829 7.9155 41.9022 7.51637 42.1963 7.12983L40.709 6.34837L40.5536 6.26434H40.5494Z" fill="#004D43"/>
<path d="M36.579 7.65923C36.4992 7.23488 36.3942 6.66349 36.2765 6.05008C36.1547 5.41146 36.0244 4.72662 35.9026 4.10481C35.3606 4.23085 34.8228 4.34009 34.2976 4.44092L34.0161 7.45756L33.8985 8.72219L35.7723 7.99114C35.7723 7.99114 36.0791 7.8819 36.579 7.65923Z" fill="#004D43"/>
<path d="M43.8265 2.17214C44.1248 1.7562 44.3937 1.31925 44.629 0.857091C44.7424 0.634414 44.8475 0.403335 44.9483 0.168055L44.9777 0C44.5239 0.415942 44.0198 0.798269 43.482 1.15119L43.5996 1.49571L43.8307 2.16794L43.8265 2.17214Z" fill="#004D43"/>
<path d="M32.6507 9.20955C32.6507 9.20955 32.6507 9.20955 32.6549 9.20955C32.9742 9.10872 33.2389 9.00788 33.4279 8.90705L33.2641 7.92391L32.7263 4.70561C32.0625 4.81064 31.4239 4.89047 30.823 4.9619L30.1382 9.63389L30.1088 9.83977C30.1088 9.83977 30.113 9.83977 30.1172 9.83977C31.0625 9.6423 31.9742 9.42802 32.6465 9.21375L32.6507 9.20955Z" fill="#004D43"/>
<path d="M39.0032 4.35689L38.7386 3.32754C38.1924 3.504 37.6378 3.66785 37.079 3.8149L37.0496 5.5711L37.016 7.46175C37.6714 7.15504 38.5327 6.71389 39.457 6.12989L39.0032 4.35689Z" fill="#004D43"/>
<path d="M39.894 5.8484C40.4107 5.50388 40.9443 5.11315 41.4653 4.6804L41.0157 3.10906L40.8561 2.54186C40.4948 2.69731 40.125 2.84437 39.7511 2.97881L39.7973 3.86532L39.8982 5.84419L39.894 5.8484Z" fill="#004D43"/>
<path d="M34.2682 9.3356L34.0119 9.17594L33.8565 9.23476L33.512 9.36921L33.4027 9.41122L33.4994 9.46585L34.8354 10.2347L34.5959 10.4658L31.2852 10.2977L31.1382 10.2893L31.0163 10.3355C31.0373 10.3481 31.0625 10.3565 31.0919 10.3692C31.8356 10.6885 34.2934 11.7514 35.7219 12.3942C36.1421 12.5833 36.3017 12.6505 36.474 12.7388L37.9949 11.6422L36.8689 10.9447L34.2724 9.3356H34.2682Z" fill="#004D43"/>
<path d="M44.9945 0.815073V0.806675C44.9945 0.73525 44.9861 0.68903 44.9861 0.663821C44.9861 0.663821 44.9861 0.659624 44.9861 0.655423C44.9861 0.64702 44.9861 0.642819 44.9861 0.642819C44.9273 0.777265 44.8685 0.91171 44.8012 1.04195C44.5533 1.54613 44.2635 2.02509 43.9357 2.47465C43.9147 2.50406 43.8979 2.53346 43.8769 2.55867H43.9651L44.5365 2.57968H44.7046C44.9819 1.68478 45.0071 1.08817 44.9987 0.815073H44.9945Z" fill="#004D43"/>
<path d="M44.1248 3.04183L43.6248 2.88218C43.5912 2.92839 43.5534 2.97041 43.5156 3.01663C43.4526 3.09645 43.3896 3.17208 43.3223 3.24771L43.8475 3.46198L42.7593 3.86952C42.6795 3.95355 42.5955 4.03757 42.5157 4.1174L43.2215 4.17202L44.0282 4.23504C44.2214 3.84851 44.3769 3.49139 44.4987 3.16368L44.4315 3.14267L44.1248 3.04604V3.04183Z" fill="#004D43"/>
<path d="M42.0787 4.52916C41.9989 4.60058 41.9149 4.6762 41.835 4.74763C41.8014 4.78124 41.7678 4.80645 41.73 4.84006L41.8266 4.90729L41.9359 4.98711L42.2678 5.22659L41.125 5.5291L40.7511 5.62993C40.646 5.70976 40.5368 5.78959 40.4318 5.86521L40.8099 5.92823L41.0872 5.97445L42.814 6.26435C43.0913 5.86101 43.3349 5.47448 43.545 5.11316C43.3601 5.05434 42.835 4.87367 42.4274 4.70141C42.2888 4.64259 42.1669 4.58378 42.0745 4.52916H42.0787Z" fill="#004D43"/>
<path d="M37.8184 7.95332L37.3941 7.73484C37.2597 7.80627 37.0454 7.91131 36.995 7.93652L37.9235 8.50791L37.537 8.76419H35.7597H35.0707L34.5287 8.97007L37.663 9.9322L39.2721 10.428C39.6713 10.033 40.041 9.6507 40.3897 9.27677L38.8184 8.4701L37.8184 7.95752V7.95332Z" fill="#004D43"/>
<path d="M29.7811 10.9405L31.281 12.0119L30.4701 12.4741L27.2056 11.6422L26.4073 11.8943L33.7809 14.747L35.3858 13.5875L30.0584 10.8397L29.7811 10.9405Z" fill="#004D43"/>
<path d="M20.8194 13.5454C21.2858 13.8563 21.6849 14.1673 22.0252 14.4614C20.6304 15.8226 20.164 16.9612 20.164 16.9612L18.5128 16.0915C19.1178 15.0832 19.9203 14.2429 20.8194 13.5454Z" fill="#004D43"/>
<path d="M29.5584 10.5918C27.3023 11.1296 25.5503 11.9153 24.21 12.7598C23.8865 12.5287 23.5462 12.306 23.1848 12.0959C25.6175 10.9195 28.1635 10.4574 29.4198 10.3355L29.5542 10.5918H29.5584Z" fill="#004D43"/>
<path d="M25.504 10.6591C25.504 10.6591 25.504 10.6591 25.5082 10.6591C25.5082 10.6591 25.5124 10.6591 25.5166 10.6591C25.525 10.6591 25.5292 10.6591 25.5376 10.6591C25.546 10.6591 25.5544 10.6591 25.5671 10.6591C25.5713 10.6591 25.5797 10.6591 25.5839 10.6591C25.9326 10.6044 27.1636 10.4154 28.5669 10.1549L28.5837 9.98683L29.1425 5.02074H27.4115L25.483 10.6759H25.4872C25.4872 10.6759 25.4914 10.6759 25.4956 10.6759L25.504 10.6591Z" fill="#004D43"/>
<path d="M2.87088 4.08798C2.55157 3.78968 2.24066 3.47457 1.94656 3.14266C1.84573 3.02922 1.7491 2.91578 1.65246 2.79814C1.63986 2.78553 1.63145 2.76873 1.61885 2.75612L2.03479 1.89903L2.19444 1.57552C2.49275 1.74778 2.79945 1.91163 3.11456 2.07129C3.11456 2.23094 3.11876 2.399 3.12297 2.57546C3.13137 3.18467 3.14397 3.8653 3.15658 4.35267C3.06415 4.27284 2.97171 4.18881 2.88348 4.10478L2.87088 4.09218V4.08798Z" fill="#004D43"/>
<path d="M4.45482 6.26433L4.84555 6.06266C4.92958 6.12148 5.00942 6.1761 5.09344 6.23492C5.16487 6.28534 5.23629 6.33155 5.30772 6.37777L5.08084 6.49541L4.76993 6.65926L4.6775 6.70968H4.66909L4.89598 6.93656H4.90858L4.99681 6.95757L5.05143 6.97017L5.73626 7.10042L6.82443 7.31049C6.98829 7.40292 7.14795 7.49115 7.2992 7.57098L6.74041 7.69282L5.74466 7.90709L3.77839 8.33143C3.42127 7.91549 3.10196 7.51636 2.80786 7.12982L4.29517 6.34836L4.45062 6.26433H4.45482Z" fill="#004D43"/>
<path d="M8.42099 7.65922C8.50081 7.23487 8.60585 6.66348 8.72349 6.05007C8.84533 5.41145 8.97558 4.72661 9.09742 4.1048C9.6394 4.23084 10.1772 4.34008 10.7024 4.44091L10.9839 7.45755L11.1015 8.72218L9.22766 7.99113C9.22766 7.99113 8.92096 7.88189 8.42099 7.65922Z" fill="#004D43"/>
<path d="M1.17376 2.17216C0.875461 1.75622 0.606568 1.31926 0.371287 0.857106C0.257848 0.63443 0.152814 0.403351 0.05198 0.16807L0.0225668 1.52685e-05C0.476322 0.415958 0.980494 0.798284 1.51828 1.15121L1.40064 1.49573L1.16956 2.16795L1.17376 2.17216Z" fill="#004D43"/>
<path d="M12.3535 9.20954C12.3535 9.20954 12.3535 9.20954 12.3493 9.20954C12.03 9.1087 11.7653 9.00787 11.5763 8.90704L11.7401 7.92389L12.2779 4.7056C12.9417 4.81063 13.5803 4.89046 14.1811 4.96189L14.866 9.63388L14.8954 9.83976C14.8954 9.83976 14.8912 9.83976 14.887 9.83976C13.9417 9.64229 13.03 9.42801 12.3577 9.21374L12.3535 9.20954Z" fill="#004D43"/>
<path d="M6.00095 4.35687L6.26564 3.32752C6.81183 3.50398 7.36641 3.66784 7.92521 3.81489L7.95462 5.57109L7.98823 7.46174C7.33281 7.15503 6.47151 6.71388 5.5472 6.12988L6.00095 4.35687Z" fill="#004D43"/>
<path d="M5.11024 5.84839C4.59346 5.50387 4.05988 5.11313 3.5389 4.68039L3.98846 3.10905L4.14811 2.54185C4.50944 2.6973 4.87916 2.84436 5.25309 2.9788L5.20687 3.86531L5.10604 5.84418L5.11024 5.84839Z" fill="#004D43"/>
<path d="M10.736 9.33558L10.9923 9.17593L11.1477 9.23475L11.4922 9.36919L11.6015 9.41121L11.5048 9.46583L10.1688 10.2347L10.4083 10.4658L13.719 10.2977L13.866 10.2893L13.9879 10.3355C13.9669 10.3481 13.9417 10.3565 13.9123 10.3691C13.1686 10.6884 10.7108 11.7514 9.28227 12.3942C8.86213 12.5833 8.70247 12.6505 8.53021 12.7387L7.00929 11.6422L8.13527 10.9447L10.7318 9.33558H10.736Z" fill="#004D43"/>
<path d="M0.00550291 0.815062V0.806663C0.00550291 0.735239 0.0139012 0.689018 0.0139012 0.663809C0.0139012 0.663809 0.0139012 0.659613 0.0139012 0.655411C0.0139012 0.647008 0.0139012 0.642807 0.0139012 0.642807C0.0727213 0.777253 0.131542 0.911698 0.198765 1.04194C0.44665 1.54612 0.736549 2.02508 1.06426 2.47463C1.08527 2.50404 1.10207 2.53345 1.12308 2.55866H1.03485L0.463458 2.57967H0.295403C0.0181082 1.68476 -0.00710551 1.08815 0.00129737 0.815062H0.00550291Z" fill="#004D43"/>
<path d="M0.879399 3.04182L1.37936 2.88216C1.41298 2.92838 1.45079 2.9704 1.48861 3.01661C1.55163 3.09644 1.61465 3.17207 1.68187 3.24769L1.15669 3.46197L2.24487 3.86951C2.32469 3.95353 2.40872 4.03756 2.48854 4.11739L1.78271 4.17201L0.97603 4.23503C0.782764 3.8485 0.627313 3.49138 0.505471 3.16367L0.572689 3.14266L0.879399 3.04603V3.04182Z" fill="#004D43"/>
<path d="M2.9255 4.52915C3.00533 4.60057 3.08936 4.67619 3.16918 4.74762C3.20279 4.78123 3.23641 4.80644 3.27422 4.84005L3.17759 4.90727L3.06835 4.9871L2.73644 5.22658L3.87923 5.52908L4.25315 5.62992C4.35819 5.70975 4.46743 5.78958 4.57246 5.8652L4.19433 5.92822L3.91704 5.97444L2.19025 6.26434C1.91295 5.861 1.66927 5.47447 1.45919 5.11315C1.64406 5.05433 2.16924 4.87366 2.57678 4.7014C2.71543 4.64258 2.83727 4.58377 2.9297 4.52915H2.9255Z" fill="#004D43"/>
<path d="M7.18576 7.95331L7.6101 7.73483C7.74455 7.80626 7.95883 7.9113 8.00925 7.93651L7.08072 8.5079L7.46726 8.76418H9.24446H9.9335L10.4755 8.97006L7.34121 9.93219L5.73206 10.428C5.33292 10.033 4.9632 9.65069 4.61448 9.27676L6.18582 8.47008L7.18576 7.95751V7.95331Z" fill="#004D43"/>
<path d="M18.5927 11.8943L18.0675 12.0959L11.2233 14.747L9.61419 13.5874L14.5551 11.0414L14.9458 10.8397L15.2231 10.9405L14.9458 11.1338L13.719 12.0119L14.5299 12.4741L17.2398 11.785L17.7944 11.6422L18.5927 11.8943Z" fill="#004D43"/>
<path d="M26.4914 16.0915L24.8402 16.9612C24.8402 16.9612 24.2688 15.5705 22.5042 14.0202C22.1723 13.7303 21.7984 13.432 21.3782 13.1379C19.9707 12.159 18.0465 11.2052 15.45 10.5876L15.5844 10.3313C16.9583 10.4616 19.8825 11.0036 22.5042 12.4447C22.8865 12.6547 23.2689 12.8858 23.6302 13.1379C24.7562 13.911 25.7645 14.8773 26.4914 16.0873V16.0915Z" fill="#004D43"/>
<path d="M19.5086 10.6632H19.5044C19.5044 10.6632 19.5002 10.6632 19.496 10.6632C19.496 10.6632 19.496 10.6632 19.4918 10.6632C19.4918 10.6632 19.4876 10.6632 19.4834 10.6632C19.475 10.6632 19.4708 10.6632 19.4624 10.6632C19.454 10.6632 19.4456 10.6632 19.433 10.6632C19.4287 10.6632 19.4203 10.6632 19.4161 10.6632C19.0674 10.6086 17.8364 10.4196 16.4331 10.1591L16.4163 9.99101L16.3953 9.80194L15.8575 5.02491H17.5885L19.454 10.4994L19.517 10.68L19.5086 10.6632Z" fill="#004D43"/>
</svg>
