<svg width="12" height="22" viewBox="0 0 12 22" fill="none" xmlns="http://www.w3.org/2000/svg">
<path d="M11.9916 0V2.25474C11.9916 2.25474 11.979 2.25894 11.9705 2.26315C-0.531462 5.52326 0.372956 19.3125 0.520187 20.9741C0.520187 21.0078 0.524395 21.0372 0.528602 21.0624V21.0751C0.532808 21.1045 0.537017 21.1213 0.537017 21.1297C0.503364 20.9993 -0.0434956 18.7152 0.00277696 15.6948C0.0406364 13.1793 0.490745 10.1463 1.99671 7.42885C2.66556 6.21735 3.54474 5.06474 4.68472 4.05095C4.68472 4.05095 4.68893 4.05095 4.69313 4.04675C7.54941 1.19047 12 0 12 0H11.9916Z" fill="#00352D"/>
</svg>
