<svg width="172" height="4" viewBox="0 0 172 4" fill="none" xmlns="http://www.w3.org/2000/svg">
<path d="M1.44662 2.43484L0 0.0672657H0.727517L1.77463 1.79143L2.81754 0.0672657H3.52823L2.08581 2.43484V3.75529H1.45083V2.43484H1.44662Z" fill="#004D43"/>
<path d="M3.974 1.90919C3.974 0.824231 4.81084 0 5.91263 0C7.01441 0 7.85127 0.824231 7.85127 1.90919C7.85127 2.99415 7.01861 3.81839 5.91263 3.81839C4.80664 3.81839 3.974 2.99415 3.974 1.90919ZM7.20365 1.90919C7.20365 1.17327 6.64855 0.613967 5.91684 0.613967C5.18512 0.613967 4.63423 1.16906 4.63423 1.90919C4.63423 2.64932 5.18932 3.20442 5.91684 3.20442C6.64435 3.20442 7.20365 2.64932 7.20365 1.90919Z" fill="#004D43"/>
<path d="M8.91938 2.33392V0.0672657H9.55017V2.32129C9.55017 2.82172 9.92865 3.2044 10.4333 3.2044C10.9379 3.2044 11.3164 2.82593 11.3164 2.32129V0.0672657H11.9514V2.33392C11.9514 3.18338 11.2996 3.81838 10.4333 3.81838C9.567 3.81838 8.91938 3.18338 8.91938 2.33392Z" fill="#004D43"/>
<path d="M13.2046 0.067266H14.8194C15.5048 0.067266 16.0263 0.5677 16.0263 1.23634C16.0263 1.78723 15.6647 2.21616 15.1516 2.34232L16.1399 3.75109H15.345L14.4157 2.37597H13.8438V3.75109H13.2088V0.063063L13.2046 0.067266ZM13.8396 0.664421V1.82507H14.8026C15.1264 1.82507 15.3745 1.57276 15.3745 1.24054C15.3745 0.908325 15.1264 0.664421 14.8026 0.664421H13.8396Z" fill="#004D43"/>
<path d="M18.7556 1.90919C18.7556 0.824231 19.5924 0 20.6942 0C21.5478 0 22.2585 0.496219 22.4856 1.1985H21.7749C21.5647 0.845257 21.1694 0.613967 20.6942 0.613967C19.9667 0.613967 19.4116 1.16906 19.4116 1.90919C19.4116 2.64932 19.9667 3.20442 20.6942 3.20442C21.3039 3.20442 21.7833 2.83436 21.9053 2.30029H20.8203V1.72837H22.5824V1.94284C22.5824 3.01098 21.7791 3.81839 20.69 3.81839C19.6008 3.81839 18.7513 2.99415 18.7513 1.90919H18.7556Z" fill="#004D43"/>
<path d="M24.6219 0.0672657H25.3746L26.8297 3.75529H26.1316L25.833 2.96891H24.1551L23.8565 3.75529H23.1711L24.6219 0.0672657ZM25.6059 2.38017L24.992 0.76114L24.378 2.38017H25.6059Z" fill="#004D43"/>
<path d="M28.1754 0.664421H27.124V0.0672657H29.8575V0.664421H28.8104V3.75109H28.1754V0.664421Z" fill="#004D43"/>
<path d="M30.934 0.0672815H33.331V0.664436H31.569V1.59801H33.1544V2.19516H31.569V3.14975H33.3605V3.7469H30.934V0.0588756V0.0672815Z" fill="#004D43"/>
<path d="M34.1973 0.0672657H34.9038L35.7953 2.89321L36.691 0.0672657H37.2714L38.1797 2.89321L39.067 0.0672657H39.7525L38.4951 3.75529H37.8517L36.9728 1.03028L36.1023 3.75529H35.4631L34.1973 0.0672657Z" fill="#004D43"/>
<path d="M41.4262 0.0672657H42.1789L43.634 3.75529H42.9359L42.6373 2.96891H40.9594L40.6608 3.75529H39.9754L41.4262 0.0672657ZM42.4102 2.38017L41.7963 0.76114L41.1823 2.38017H42.4102Z" fill="#004D43"/>
<path d="M45.1563 2.43484L43.7096 0.0672657H44.4372L45.4843 1.79143L46.5272 0.0672657H47.2379L45.7955 2.43484V3.75529H45.1605V2.43484H45.1563Z" fill="#004D43"/>
<path d="M50.7703 0.664421H49.719V0.0672657H52.4524V0.664421H51.4053V3.75109H50.7703V0.664421Z" fill="#004D43"/>
<path d="M53.0748 1.90919C53.0748 0.824231 53.9116 0 55.0134 0C56.1152 0 56.9521 0.824231 56.9521 1.90919C56.9521 2.99415 56.1194 3.81839 55.0134 3.81839C53.9074 3.81839 53.0748 2.99415 53.0748 1.90919ZM56.3002 1.90919C56.3002 1.17327 55.7451 0.613967 55.0134 0.613967C54.2817 0.613967 53.7308 1.16906 53.7308 1.90919C53.7308 2.64932 54.2859 3.20442 55.0134 3.20442C55.7409 3.20442 56.3002 2.64932 56.3002 1.90919Z" fill="#004D43"/>
<path d="M60.6821 0.664421H59.6308V0.0672657H62.3642V0.664421H61.3171V3.75109H60.6821V0.664421Z" fill="#004D43"/>
<path d="M63.4408 0.0672657H64.0758V1.6022H65.8799V0.0672657H66.5107V3.75529H65.8799V2.19934H64.0758V3.75529H63.4408V0.0672657Z" fill="#004D43"/>
<path d="M67.8437 0.0672815H70.2407V0.664436H68.4787V1.59801H70.0641V2.19516H68.4787V3.14975H70.2702V3.7469H67.8437V0.0588756V0.0672815Z" fill="#004D43"/>
<path d="M72.8858 0.0672657H73.5923L74.4838 2.89321L75.3796 0.0672657H75.9641L76.8725 2.89321L77.7598 0.0672657H78.4452L77.1878 3.75529H76.5444L75.6655 1.03028L74.795 3.75529H74.1558L72.8901 0.0672657H72.8858Z" fill="#004D43"/>
<path d="M79.0466 1.90919C79.0466 0.824231 79.8835 0 80.9852 0C82.087 0 82.9239 0.824231 82.9239 1.90919C82.9239 2.99415 82.0912 3.81839 80.9852 3.81839C79.8792 3.81839 79.0466 2.99415 79.0466 1.90919ZM82.2762 1.90919C82.2762 1.17327 81.7211 0.613967 80.9894 0.613967C80.2577 0.613967 79.7068 1.16906 79.7068 1.90919C79.7068 2.64932 80.2619 3.20442 80.9894 3.20442C81.7169 3.20442 82.2762 2.64932 82.2762 1.90919Z" fill="#004D43"/>
<path d="M84.0677 0.067266H85.6825C86.368 0.067266 86.8894 0.5677 86.8894 1.23634C86.8894 1.78723 86.5278 2.21616 86.0147 2.34232L87.003 3.75109H86.2082L85.2788 2.37597H84.7069V3.75109H84.0719V0.063063L84.0677 0.067266ZM84.7027 0.664421V1.82507H85.6657C85.9895 1.82507 86.2376 1.57276 86.2376 1.24054C86.2376 0.908325 85.9895 0.664421 85.6657 0.664421H84.7027Z" fill="#004D43"/>
<path d="M88.0164 0.067266H88.6514V3.15394H90.2789V3.75109H88.0164V0.063063V0.067266Z" fill="#004D43"/>
<path d="M91.3512 0.067266H92.781C93.8534 0.067266 94.6566 0.85786 94.6566 1.90918C94.6566 2.9605 93.8534 3.75109 92.781 3.75109H91.3512V0.063063V0.067266ZM91.9862 0.664421V3.15394H92.7726C93.4791 3.15394 94.009 2.61987 94.009 1.90918C94.009 1.19849 93.4791 0.664421 92.7726 0.664421H91.9862Z" fill="#004D43"/>
<path d="M95.6112 1.19009C95.771 1.13122 95.8845 1.01347 95.9434 0.815825C95.7457 0.786388 95.607 0.618176 95.607 0.407912C95.607 0.180827 95.7794 0 96.0233 0C96.2419 0 96.4312 0.142975 96.4312 0.475192C96.4312 1.06393 96.0443 1.53913 95.6154 1.62744V1.18588L95.6112 1.19009Z" fill="#004D43"/>
<path d="M97.2765 2.68297H97.9283C97.9283 3.00257 98.2395 3.24648 98.639 3.24648C99.0132 3.24648 99.3118 3.04462 99.3118 2.75025C99.3118 2.01853 97.3395 2.35075 97.3395 1.09337C97.3395 0.433143 97.9072 0.00420649 98.6179 0.00420649C99.3286 0.00420649 99.9048 0.470993 99.9048 1.08917H99.2529C99.2529 0.794799 98.9754 0.576124 98.6053 0.576124C98.2731 0.576124 97.9914 0.756949 97.9914 1.04711C97.9914 1.77883 99.9678 1.40036 99.9678 2.68297C99.9678 3.37263 99.3749 3.81839 98.6348 3.81839C97.8946 3.81839 97.2765 3.32638 97.2765 2.68717V2.68297Z" fill="#004D43"/>
<path d="M102.891 0.067266H103.525V3.15394H105.153V3.75109H102.891V0.063063V0.067266Z" fill="#004D43"/>
<path d="M106.229 0.0672815H108.626V0.664436H106.864V1.59801H108.45V2.19516H106.864V3.14975H108.656V3.7469H106.229V0.0588756V0.0672815Z" fill="#004D43"/>
<path d="M110.893 0.0672657H111.646L113.101 3.75529H112.403L112.104 2.96891H110.426L110.128 3.75529H109.442L110.893 0.0672657ZM111.877 2.38017L111.263 0.76114L110.649 2.38017H111.877Z" fill="#004D43"/>
<path d="M114.06 0.067266H115.49C116.562 0.067266 117.365 0.85786 117.365 1.90918C117.365 2.9605 116.562 3.75109 115.49 3.75109H114.06V0.063063V0.067266ZM114.695 0.664421V3.15394H115.481C116.188 3.15394 116.717 2.61987 116.717 1.90918C116.717 1.19849 116.188 0.664421 115.481 0.664421H114.695Z" fill="#004D43"/>
<path d="M118.505 0.0672657H119.14V3.75529H118.505V0.0672657Z" fill="#004D43"/>
<path d="M120.469 0.0672657H121.112L122.954 2.67454V0.0672657H123.589V3.75529H122.941L121.099 1.14802V3.75529H120.464V0.0672657H120.469Z" fill="#004D43"/>
<path d="M124.733 1.90919C124.733 0.824231 125.57 0 126.671 0C127.525 0 128.236 0.496219 128.463 1.1985H127.752C127.542 0.845257 127.147 0.613967 126.671 0.613967C125.944 0.613967 125.389 1.16906 125.389 1.90919C125.389 2.64932 125.944 3.20442 126.671 3.20442C127.281 3.20442 127.761 2.83436 127.882 2.30029H126.798V1.72837H128.56V1.94284C128.56 3.01098 127.756 3.81839 126.667 3.81839C125.578 3.81839 124.729 2.99415 124.729 1.90919H124.733Z" fill="#004D43"/>
<path d="M131.499 0.0672657H132.134V3.75529H131.499V0.0672657Z" fill="#004D43"/>
<path d="M133.463 0.0672657H134.106L135.948 2.67454V0.0672657H136.583V3.75529H135.936L134.094 1.14802V3.75529H133.459V0.0672657H133.463Z" fill="#004D43"/>
<path d="M137.714 2.68297H138.366C138.366 3.00257 138.677 3.24648 139.077 3.24648C139.451 3.24648 139.75 3.04462 139.75 2.75025C139.75 2.01853 137.777 2.35075 137.777 1.09337C137.777 0.433143 138.345 0.00420649 139.056 0.00420649C139.767 0.00420649 140.343 0.470993 140.343 1.08917H139.691C139.691 0.794799 139.413 0.576124 139.043 0.576124C138.711 0.576124 138.429 0.756949 138.429 1.04711C138.429 1.77883 140.406 1.40036 140.406 2.68297C140.406 3.37263 139.813 3.81839 139.073 3.81839C138.333 3.81839 137.714 3.32638 137.714 2.68717V2.68297Z" fill="#004D43"/>
<path d="M142.222 0.664421H141.171V0.0672657H143.905V0.664421H142.857V3.75109H142.222V0.664421Z" fill="#004D43"/>
<path d="M144.981 0.0672657H145.616V3.75529H144.981V0.0672657Z" fill="#004D43"/>
<path d="M147.74 0.664421H146.688V0.0672657H149.422V0.664421H148.375V3.75109H147.74V0.664421Z" fill="#004D43"/>
<path d="M150.423 2.33392V0.0672657H151.054V2.32129C151.054 2.82172 151.432 3.2044 151.937 3.2044C152.441 3.2044 152.82 2.82593 152.82 2.32129V0.0672657H153.455V2.33392C153.455 3.18338 152.803 3.81838 151.937 3.81838C151.07 3.81838 150.423 3.18338 150.423 2.33392Z" fill="#004D43"/>
<path d="M155.507 0.664421H154.456V0.0672657H157.189V0.664421H156.142V3.75109H155.507V0.664421Z" fill="#004D43"/>
<path d="M158.266 0.0672657H158.901V3.75529H158.266V0.0672657Z" fill="#004D43"/>
<path d="M160.036 1.90919C160.036 0.824231 160.873 0 161.975 0C163.076 0 163.913 0.824231 163.913 1.90919C163.913 2.99415 163.081 3.81839 161.975 3.81839C160.869 3.81839 160.036 2.99415 160.036 1.90919ZM163.266 1.90919C163.266 1.17327 162.711 0.613967 161.979 0.613967C161.247 0.613967 160.696 1.16906 160.696 1.90919C160.696 2.64932 161.251 3.20442 161.979 3.20442C162.706 3.20442 163.266 2.64932 163.266 1.90919Z" fill="#004D43"/>
<path d="M165.057 0.0672657H165.701L167.542 2.67454V0.0672657H168.177V3.75529H167.53L165.688 1.14802V3.75529H165.053V0.0672657H165.057Z" fill="#004D43"/>
<path d="M169.309 2.68297H169.96C169.96 3.00257 170.272 3.24648 170.671 3.24648C171.045 3.24648 171.344 3.04462 171.344 2.75025C171.344 2.01853 169.372 2.35075 169.372 1.09337C169.372 0.433143 169.939 0.00420649 170.65 0.00420649C171.361 0.00420649 171.937 0.470993 171.937 1.08917H171.285C171.285 0.794799 171.008 0.576124 170.637 0.576124C170.305 0.576124 170.024 0.756949 170.024 1.04711C170.024 1.77883 172 1.40036 172 2.68297C172 3.37263 171.407 3.81839 170.667 3.81839C169.927 3.81839 169.309 3.32638 169.309 2.68717V2.68297Z" fill="#004D43"/>
</svg>
