<svg width="172" height="19" viewBox="0 0 172 19" fill="none" xmlns="http://www.w3.org/2000/svg">
<path d="M7.07288 0.319202L0 18.2576H3.33064L4.78806 14.4355H12.9529L14.4103 18.2576H17.8166L10.7437 0.319202H7.07288ZM7.45507 11.5753C6.21186 12.8269 4.87625 14.1709 4.80905 14.2003C4.68725 14.2633 5.87586 11.5753 5.87586 11.5753L8.87049 3.69603L11.8609 11.5753H7.45507Z" fill="#004D43"/>
<path d="M26.5107 11.1889H32.6091C32.0127 13.7887 29.6733 15.5821 26.7081 15.5821C23.1716 15.5821 20.471 12.8773 20.471 9.28629C20.471 5.69525 23.1716 2.99463 26.7081 2.99463C29.0013 2.99463 30.9039 4.08664 31.9287 5.77086L34.2009 3.49444C32.5713 1.36922 29.8371 0 26.7081 0C21.353 0 17.2664 4.00264 17.2664 9.28209C17.2664 14.5615 21.353 18.5642 26.7081 18.5642C32.0631 18.5642 35.9145 14.6371 35.9145 9.43749V8.40008H29.2953L26.5148 11.1805L26.5107 11.1889Z" fill="#004D43"/>
<path d="M41.1646 0.319202H38.0692V18.2576H41.1646V0.319202Z" fill="#004D43"/>
<path d="M75.6595 0.319202L68.5866 18.2576H71.9173L73.3747 14.4355H81.5396L82.997 18.2576H86.4032L79.3303 0.319202H75.6595ZM76.0417 11.5753C74.7985 12.8269 73.4629 14.1709 73.3957 14.2003C73.2739 14.2633 74.4625 11.5753 74.4625 11.5753L77.4571 3.69603L80.4475 11.5753H76.0417Z" fill="#004D43"/>
<path d="M146.993 0.319202L139.92 18.2576H143.251L144.708 14.4355H152.873L154.33 18.2576H157.737L150.664 0.319202H146.993ZM147.375 11.5753C146.132 12.8269 144.796 14.1709 144.729 14.2003C144.607 14.2633 145.796 11.5753 145.796 11.5753L148.791 3.69603L151.781 11.5753H147.375Z" fill="#004D43"/>
<path d="M69.5191 8.40848H62.8998L60.1194 11.1889H66.2178C65.6214 13.7887 63.282 15.5821 60.3168 15.5821C56.7803 15.5821 54.0797 12.8773 54.0797 9.28629C54.0797 5.69525 56.7803 2.99463 60.3168 2.99463C62.61 2.99463 64.5126 4.08664 65.5374 5.77086L67.8096 3.49444C66.18 1.36922 63.4458 0 60.3168 0C54.9617 0 50.8751 4.00264 50.8751 9.28209C50.8751 14.5615 54.9617 18.5642 60.3168 18.5642C65.6718 18.5642 69.5232 14.6371 69.5232 9.43749V8.40008L69.5191 8.40848Z" fill="#004D43"/>
<path d="M113.052 0.319202H99.5325H98.1045H86.2184V3.22983H91.3382V18.2618H94.4379V6.18245L91.4852 3.22983H98.1045H99.5325H113.052V0.319202Z" fill="#004D43"/>
<path d="M104.472 10.6933H113.052V7.78267H104.472V7.77847H101.376V18.2618H113.187V15.3511H104.472V10.6933Z" fill="#004D43"/>
<path d="M138.811 0.319202L134.473 12.9235L130.31 0.319202H127.064L122.75 13.0201L118.529 0.319202H115.098L121.259 18.2618H124.384L128.614 5.46845L132.881 18.2618H136.031L142.142 0.319202H138.811Z" fill="#004D43"/>
<path d="M168.539 0.319202L163.47 8.71928L158.375 0.319202H154.839L161.886 11.8357V18.2618H164.978V11.8357L172 0.319202H168.539Z" fill="#004D43"/>
</svg>
