<svg width="65" height="56" viewBox="0 0 65 56" fill="none" xmlns="http://www.w3.org/2000/svg">
<path d="M65 38C65 47.9411 56.9411 56 47 56L20 56C17.2386 56 15 53.7614 15 51L15 17C15 11.4772 19.4772 7 25 7L60 7C62.7614 7 65 9.23858 65 12L65 38Z" fill="#E8F5E9"/>
<path d="M26.9163 19.0109C26.6043 19.0109 26.3506 18.7577 26.3506 18.4453V17.4839C26.3506 17.1719 26.6039 16.9183 26.9163 16.9183C27.2283 16.9183 27.482 17.1715 27.482 17.4839V18.4453C27.482 18.7577 27.2284 19.0109 26.9163 19.0109Z" fill="#103E13"/>
<path d="M24.5381 19.0109C24.2261 19.0109 23.9724 18.7577 23.9724 18.4453V17.4839C23.9724 17.1719 24.2257 16.9183 24.5381 16.9183C24.8501 16.9183 25.1038 17.1715 25.1038 17.4839V18.4453C25.1034 18.7577 24.8505 19.0109 24.5381 19.0109Z" fill="#103E13"/>
<path d="M22.16 19.0109C21.848 19.0109 21.5944 18.7577 21.5944 18.4453V17.4839C21.5944 17.1719 21.8476 16.9183 22.16 16.9183C22.4721 16.9183 22.7257 17.1715 22.7257 17.4839V18.4453C22.7257 18.7577 22.4725 19.0109 22.16 19.0109Z" fill="#103E13"/>
<path d="M26.9163 22.9421C26.6043 22.9421 26.3506 22.6889 26.3506 22.3765V21.4155C26.3506 21.1035 26.6039 20.8499 26.9163 20.8499C27.2283 20.8499 27.482 21.1031 27.482 21.4155V22.3765C27.482 22.6889 27.2284 22.9421 26.9163 22.9421Z" fill="#103E13"/>
<path d="M24.5381 22.9421C24.2261 22.9421 23.9724 22.6889 23.9724 22.3765V21.4155C23.9724 21.1035 24.2257 20.8499 24.5381 20.8499C24.8501 20.8499 25.1038 21.1031 25.1038 21.4155V22.3765C25.1034 22.6889 24.8505 22.9421 24.5381 22.9421Z" fill="#103E13"/>
<path d="M22.16 22.9421C21.848 22.9421 21.5944 22.6889 21.5944 22.3765V21.4155C21.5944 21.1035 21.8476 20.8499 22.16 20.8499C22.4721 20.8499 22.7257 21.1031 22.7257 21.4155V22.3765C22.7257 22.6889 22.4725 22.9421 22.16 22.9421Z" fill="#103E13"/>
<path d="M26.9163 26.8734C26.6043 26.8734 26.3506 26.6201 26.3506 26.3077V25.3464C26.3506 25.0344 26.6039 24.7807 26.9163 24.7807C27.2283 24.7807 27.482 25.0339 27.482 25.3464V26.3077C27.482 26.6201 27.2284 26.8734 26.9163 26.8734Z" fill="#103E13"/>
<path d="M24.5381 26.8734C24.2261 26.8734 23.9724 26.6201 23.9724 26.3077V25.3464C23.9724 25.0344 24.2257 24.7807 24.5381 24.7807C24.8501 24.7807 25.1038 25.0339 25.1038 25.3464V26.3077C25.1034 26.6201 24.8505 26.8734 24.5381 26.8734Z" fill="#103E13"/>
<path d="M22.16 26.8734C21.848 26.8734 21.5944 26.6201 21.5944 26.3077V25.3464C21.5944 25.0344 21.8476 24.7807 22.16 24.7807C22.4721 24.7807 22.7257 25.0339 22.7257 25.3464V26.3077C22.7257 26.6201 22.4725 26.8734 22.16 26.8734Z" fill="#103E13"/>
<path d="M26.9163 30.8039C26.6043 30.8039 26.3506 30.5506 26.3506 30.2382V29.2769C26.3506 28.9648 26.6039 28.7112 26.9163 28.7112C27.2283 28.7112 27.482 28.9644 27.482 29.2769V30.2382C27.482 30.5506 27.2284 30.8039 26.9163 30.8039Z" fill="#103E13"/>
<path d="M24.5381 30.8039C24.2261 30.8039 23.9724 30.5506 23.9724 30.2382V29.2769C23.9724 28.9648 24.2257 28.7112 24.5381 28.7112C24.8501 28.7112 25.1038 28.9644 25.1038 29.2769V30.2382C25.1034 30.5506 24.8505 30.8039 24.5381 30.8039Z" fill="#103E13"/>
<path d="M22.16 30.8039C21.848 30.8039 21.5944 30.5506 21.5944 30.2382V29.2769C21.5944 28.9648 21.8476 28.7112 22.16 28.7112C22.4721 28.7112 22.7257 28.9644 22.7257 29.2769V30.2382C22.7257 30.5506 22.4725 30.8039 22.16 30.8039Z" fill="#103E13"/>
<path d="M26.9163 34.735C26.6043 34.735 26.3506 34.4818 26.3506 34.1694V33.2084C26.3506 32.8964 26.6039 32.6428 26.9163 32.6428C27.2283 32.6428 27.482 32.896 27.482 33.2084V34.1694C27.482 34.4814 27.2284 34.735 26.9163 34.735Z" fill="#103E13"/>
<path d="M24.5381 34.735C24.2261 34.735 23.9724 34.4818 23.9724 34.1694V33.2084C23.9724 32.8964 24.2257 32.6428 24.5381 32.6428C24.8501 32.6428 25.1038 32.896 25.1038 33.2084V34.1694C25.1034 34.4814 24.8505 34.735 24.5381 34.735Z" fill="#103E13"/>
<path d="M22.16 34.735C21.848 34.735 21.5944 34.4818 21.5944 34.1694L21.5948 33.2084C21.5948 32.8964 21.848 32.6428 22.1604 32.6428C22.4725 32.6428 22.7261 32.896 22.7261 33.2084V34.1694C22.7257 34.4814 22.4725 34.735 22.16 34.735Z" fill="#103E13"/>
<path d="M6.00047 38.6472C6.00047 38.9592 6.25372 39.2129 6.56615 39.2129H41.0139C41.3259 39.2129 41.5796 38.9596 41.5796 38.6472C41.5796 38.3352 41.3263 38.0815 41.0139 38.0815H39.9682V21.8402C39.9682 21.5282 39.715 21.2746 39.4025 21.2746L30.1668 21.2749V9.56582C30.1668 9.3678 30.0635 9.18477 29.8946 9.0822C29.7262 8.97925 29.5156 8.97294 29.3404 9.06405L18.8401 14.531C18.6527 14.6285 18.5359 14.8218 18.5359 15.0328V25.2605H8.37388C8.06186 25.2605 7.8082 25.5137 7.8082 25.8262V38.0816H6.56489C6.25287 38.0812 6 38.3345 6 38.6469L6.00047 38.6472ZM30.167 29.8423H38.8374V38.082L30.167 38.0816V29.8423ZM30.167 25.9114H38.8374V28.7114L30.167 28.711V25.9114ZM30.167 22.4057H38.8374V24.7809H30.167V22.4057ZM19.6667 15.3763L29.0353 10.4982V38.0811H19.6667V15.3763ZM11.7359 33.5636C11.7359 32.3896 12.666 31.4342 13.8096 31.4342C14.9531 31.4342 15.8837 32.3892 15.8837 33.5636V38.0818H11.7359V33.5636ZM8.93952 26.3916H18.5358V38.0816H17.015V33.5634C17.015 31.7657 15.5776 30.3031 13.8096 30.3031C12.0424 30.3031 10.605 31.7653 10.605 33.5634V38.0816H8.93952V26.3916Z" fill="#103E13"/>
</svg>
