<svg width="13" height="29" viewBox="0 0 13 29" fill="none" xmlns="http://www.w3.org/2000/svg">
<path d="M7.69749 23.338C7.6501 26.4307 8.21007 28.7697 8.24023 28.9075C8.21869 28.8903 8.20146 28.8688 8.17992 28.8515C2.92909 23.394 1.61531 16.614 1.667 11.053C1.667 10.6223 1.68423 10.2001 1.70146 9.78661C1.86515 6.27601 2.3002 3.45891 2.73526 1.87806H2.72664C2.7008 1.88668 2.68787 1.88668 2.67926 1.88668L0.0215388 2.38635C0.00861629 2.38635 0 2.37773 0 2.36912V0.447976C0 0.447976 0.00861629 0.426441 0.0215388 0.430749C0.211068 0.460901 1.5507 0.671968 3.31677 0.598741H3.3383V1.2621L3.45461 1.17164L3.66568 1.00795V0.581513C4.18688 0.551361 4.73824 0.495365 5.30683 0.4006C5.87111 0.305835 6.45693 0.176607 7.02982 0C7.04275 0 7.05567 0.0043046 7.05567 0.0172271V2.05467C7.05567 2.05467 7.04274 2.0676 7.03413 2.07621L3.77767 1.8393C3.70875 1.81345 3.72167 1.8393 3.65706 1.82638C3.06263 10.2389 9.82108 10.4758 13 10.1355C7.25381 14.7402 7.68887 23.3423 7.68887 23.3423L7.69749 23.338Z" fill="#004D43"/>
</svg>
