<svg width="343" height="316" viewBox="0 0 343 316" fill="none" xmlns="http://www.w3.org/2000/svg">
<path d="M171.5 315.766C266.217 315.766 343 311.283 343 305.753C343 300.223 266.217 295.74 171.5 295.74C76.7832 295.74 0 300.223 0 305.753C0 311.283 76.7832 315.766 171.5 315.766Z" fill="#F5F5F5"/>
<path d="M259.289 82.1366L250.514 78.5985C250.514 78.5985 238.936 99.7121 235.619 100.782C231.108 102.233 221.767 106.266 216.23 106.974C215.478 107.859 214.249 110.609 214.364 111.609C221.803 114.094 238.149 110.795 241.651 108.195C249.621 102.295 259.289 82.1366 259.289 82.1366Z" fill="#E58A7B"/>
<path d="M261.987 77.3336C263.623 83.3749 254.76 95.5283 254.76 95.5283L243.146 89.0182C243.146 89.0182 245.322 84.0206 247.976 78.9346C252.23 70.7174 260.12 70.4432 261.987 77.3336Z" fill="#4CAF4F"/>
<path opacity="0.2" d="M261.987 77.3336C263.623 83.3749 254.76 95.5283 254.76 95.5283L243.146 89.0182C243.146 89.0182 245.322 84.0206 247.976 78.9346C252.23 70.7174 260.12 70.4432 261.987 77.3336Z" fill="black"/>
<path opacity="0.2" d="M247.755 91.6187L252.328 94.1839L253.133 80.1465C250.47 82.1897 248.595 88.346 247.755 91.6187Z" fill="black"/>
<path d="M254.344 72.7873C254.344 72.7873 245.305 92.9013 250.576 130.352H286.196C286.762 124.886 284.887 98.2085 291.671 72.4512C287.764 71.6875 283.81 71.1823 279.836 70.9387C274.796 70.6466 269.743 70.6466 264.702 70.9387C261.208 71.2935 257.746 71.9114 254.344 72.7873Z" fill="#4CAF4F"/>
<path opacity="0.2" d="M254.344 72.7873C254.344 72.7873 245.305 92.9013 250.576 130.352H286.196C286.762 124.886 284.887 98.2085 291.671 72.4512C287.764 71.6875 283.81 71.1823 279.836 70.9387C274.796 70.6466 269.743 70.6466 264.702 70.9387C261.208 71.2935 257.746 71.9114 254.344 72.7873Z" fill="black"/>
<g style="mix-blend-mode:multiply">
<path d="M246.083 306.549C246.03 307.504 259.536 308.274 276.245 308.274C292.954 308.274 306.558 307.504 306.611 306.549C306.664 305.594 293.166 304.833 276.449 304.833C259.731 304.833 246.145 305.602 246.083 306.549Z" fill="#E8ECF1"/>
</g>
<path d="M269.859 281.449L263.542 283.894L268.984 297.952L275.301 295.507L269.859 281.449Z" fill="#E58A7B"/>
<path d="M298.031 299.747H291.37L288.929 284.33H295.59L298.031 299.747Z" fill="#E58A7B"/>
<path d="M290.91 298.977H298.394C298.523 298.978 298.649 299.024 298.748 299.108C298.846 299.193 298.912 299.309 298.933 299.437L299.897 305.355C299.918 305.503 299.906 305.654 299.862 305.798C299.819 305.941 299.745 306.074 299.646 306.186C299.547 306.298 299.425 306.388 299.289 306.449C299.152 306.51 299.003 306.541 298.853 306.54C296.244 306.496 294.988 306.336 291.698 306.336C289.672 306.336 285.506 306.549 282.693 306.549C279.88 306.549 279.695 303.789 280.853 303.533C286.054 302.409 288.071 300.879 289.805 299.393C290.11 299.124 290.504 298.977 290.91 298.977Z" fill="#263238"/>
<path d="M268.797 296.695L275.874 294.625C276 294.59 276.135 294.598 276.255 294.65C276.376 294.701 276.475 294.793 276.537 294.908L279.191 300.216C279.252 300.35 279.284 300.497 279.283 300.645C279.282 300.793 279.249 300.939 279.186 301.073C279.122 301.207 279.031 301.325 278.917 301.42C278.803 301.515 278.67 301.584 278.527 301.622C275.953 302.33 274.228 302.763 271.009 303.701C268.789 304.346 266.524 305.399 264.331 306.098C262.809 306.584 259.236 306.602 257.387 306.602C254.654 306.602 254.044 303.718 255.22 303.586C258.183 303.258 258.581 303.409 260.218 302.586C262.895 301.416 265.322 299.74 267.365 297.65C267.75 297.211 268.244 296.882 268.797 296.695Z" fill="#263238"/>
<path d="M217.345 106.939L210.021 103.869L207.005 111.989C210.007 112.447 213.06 112.447 216.062 111.989L217.345 106.939Z" fill="#E58A7B"/>
<path d="M204.572 103.657L204.378 109.053L207.005 111.972L210.021 103.852L204.572 103.657Z" fill="#E58A7B"/>
<path d="M270.726 282.642L264.389 285.089L267.195 292.359L273.533 289.912L270.726 282.642Z" fill="#CF6F64"/>
<path d="M295.59 284.33H288.929L290.194 292.281H296.854L295.59 284.33Z" fill="#CF6F64"/>
<path opacity="0.2" d="M249.444 120.224C249.577 121.825 249.727 123.462 249.922 125.142L276.404 116.545C280.54 115.319 284.134 112.72 286.594 109.177C286.7 106.815 286.833 104.329 287.036 101.738C287.125 100.482 287.231 99.1902 287.346 97.8812C287.461 96.5721 287.62 95.1214 287.788 93.7239L249.444 120.224Z" fill="black"/>
<path d="M258.095 91.2118L257.21 91.1057C257.732 86.6831 261.031 83.198 264.507 83.2865V84.171C261.465 84.1091 258.564 87.2491 258.095 91.2118Z" fill="white"/>
<path d="M262.809 99.3759H262.659V98.4914C265.702 98.6064 268.559 95.431 269.027 91.4772L269.912 91.5833C269.443 95.9086 266.25 99.3759 262.809 99.3759Z" fill="white"/>
<path d="M279.341 53.8938C278.094 58.7675 276.625 67.6923 279.836 70.9385C279.836 70.9385 277.59 75.883 268.541 75.883C260.271 75.883 264.702 70.9385 264.702 70.9385C270.204 69.6471 270.301 65.6314 269.576 61.828L279.341 53.8938Z" fill="#E58A7B"/>
<path d="M275.361 57.1312L269.585 61.828C269.764 62.702 269.867 63.5898 269.894 64.4816C271.584 66.1621 274.971 61.9076 275.316 59.7317C275.492 58.875 275.507 57.9933 275.361 57.1312Z" fill="#CF6F64"/>
<path d="M259.651 53.8319C260.053 54.5285 260.595 55.1347 261.241 55.6126C261.888 56.0905 262.627 56.4298 263.411 56.6093C265.534 57.0781 266.595 55.1233 266.011 53.1597C265.489 51.3906 263.747 49.0113 261.589 49.4182C261.126 49.5134 260.693 49.718 260.327 50.0149C259.96 50.3118 259.669 50.6922 259.479 51.1245C259.29 51.5567 259.206 52.028 259.236 52.4991C259.266 52.9702 259.409 53.4272 259.651 53.8319Z" fill="#CF6F64"/>
<path d="M263.163 38.2379C259.855 39.7504 258.687 52.8944 262.845 54.8404C267.002 56.7863 269.425 35.3632 263.163 38.2379Z" fill="#263238"/>
<path d="M280.349 46.5611C279.553 53.1596 279.465 57.0427 275.927 60.4216C274.83 61.5428 273.445 62.3393 271.925 62.7231C270.404 63.1068 268.807 63.0629 267.31 62.5962C265.813 62.1295 264.474 61.2581 263.441 60.0783C262.408 58.8985 261.721 57.4562 261.456 55.9105C260.386 49.9842 261.863 40.1925 268.479 37.5655C269.869 36.9524 271.398 36.7222 272.907 36.8988C274.416 37.0755 275.85 37.6526 277.061 38.5702C278.272 39.4879 279.216 40.7127 279.794 42.1178C280.372 43.5228 280.564 45.057 280.349 46.5611Z" fill="#E58A7B"/>
<path d="M269.478 41.6521C274.379 40.4049 277.979 39.5558 276.687 43.6334C274.98 49.0821 272.928 54.3538 275.679 54.5926C277.36 54.743 284.79 51.5941 283.843 48.401C283.021 45.6236 286.497 44.8629 287.116 43.4565C289.407 38.3616 282.852 39.0339 284.02 35.9381C285.188 32.8422 278.713 27.8535 275.175 30.339C269.417 34.3548 259.536 34.2928 264.729 27.6855C268.452 22.971 261.81 23.9351 261.81 23.9351C261.81 23.9351 265.825 26.3145 259.068 29.9941C251.921 33.9213 258.475 44.4737 269.478 41.6521Z" fill="#263238"/>
<path d="M282.95 53.8319C281.982 55.2317 280.529 56.2217 278.872 56.6093C276.687 57.0781 275.847 55.1233 276.67 53.1597C277.404 51.3906 279.421 49.0113 281.508 49.4182C283.595 49.825 284.073 52.0983 282.95 53.8319Z" fill="#E58A7B"/>
<path d="M250.576 130.352C250.576 130.352 244.597 183.866 244.128 204.174C243.65 225.297 264.392 291.202 264.392 291.202L275.007 286.78C275.007 286.78 262.623 226.561 264.392 205.819C266.268 183.202 274.016 130.387 274.016 130.387L250.576 130.352Z" fill="#4CAF4F"/>
<path opacity="0.2" d="M265.436 145.044C260.669 154.933 263.879 174.49 266.462 186.077C267.444 177.895 268.612 169.014 269.717 160.797C269.611 148.166 268.629 138.41 265.436 145.044Z" fill="black"/>
<path d="M274.538 283.277C274.591 283.277 275.794 286.656 275.794 286.656L263.552 291.804L261.624 288.213L274.538 283.277Z" fill="#4CAF4F"/>
<path d="M263.216 130.352C263.216 130.352 267.789 181.247 270.814 200.309C274.14 221.192 287.178 290.742 287.178 290.742H299.375C299.375 290.742 292.069 222.882 290.689 202.202C289.186 179.77 286.196 130.352 286.196 130.352H263.216Z" fill="#4CAF4F"/>
<path d="M299.561 287.567C299.614 287.567 299.968 290.972 299.968 290.972H286.559L285.603 287.063L299.561 287.567Z" fill="#4CAF4F"/>
<path opacity="0.2" d="M294.891 283.534C294.863 283.534 294.836 283.524 294.815 283.506C294.794 283.488 294.78 283.464 294.776 283.436C294.705 282.817 288.115 221.52 286.877 202.945C285.533 182.795 282.826 138.1 282.799 137.649C282.798 137.635 282.8 137.62 282.805 137.606C282.81 137.592 282.817 137.579 282.827 137.568C282.837 137.558 282.849 137.549 282.863 137.543C282.876 137.537 282.891 137.534 282.906 137.534C282.935 137.534 282.963 137.545 282.984 137.565C283.005 137.585 283.018 137.612 283.021 137.64C283.021 138.092 285.754 182.751 287.098 202.936C288.337 221.511 294.926 282.764 294.988 283.427C294.991 283.442 294.99 283.457 294.986 283.471C294.983 283.486 294.976 283.499 294.967 283.511C294.958 283.523 294.946 283.532 294.933 283.539C294.92 283.546 294.906 283.55 294.891 283.551V283.534Z" fill="black"/>
<path d="M270.23 48.4009C270.23 48.9405 269.894 49.3739 269.54 49.3739C269.187 49.3739 268.93 48.9405 268.965 48.4009C269.001 47.8614 269.302 47.4279 269.655 47.4279C270.009 47.4279 270.266 47.8702 270.23 48.4009Z" fill="#263238"/>
<path d="M264.163 48.4009C264.163 48.9405 263.818 49.3739 263.473 49.3739C263.128 49.3739 262.862 48.9405 262.889 48.4009C262.915 47.8614 263.234 47.4279 263.588 47.4279C263.941 47.4279 264.198 47.8702 264.163 48.4009Z" fill="#263238"/>
<path d="M266.073 48.6751C265.335 50.3227 264.383 51.8661 263.243 53.2658C264.127 54.1503 265.781 53.7434 265.781 53.7434L266.073 48.6751Z" fill="#DF5753"/>
<path d="M266.232 55.999C266.212 55.9991 266.191 55.9949 266.173 55.9868C266.154 55.9787 266.137 55.9668 266.123 55.9519C266.109 55.937 266.098 55.9193 266.091 55.9001C266.084 55.8808 266.081 55.8603 266.082 55.8398C266.084 55.7968 266.103 55.7563 266.134 55.7266C266.165 55.697 266.207 55.6805 266.25 55.6806C266.926 55.6853 267.595 55.5383 268.208 55.2506C268.82 54.9628 269.36 54.5415 269.788 54.0177C269.819 53.9909 269.858 53.9762 269.899 53.9762C269.939 53.9762 269.979 53.9909 270.009 54.0177C270.038 54.0474 270.054 54.087 270.054 54.1283C270.054 54.1695 270.038 54.2091 270.009 54.2388C269.551 54.7956 268.974 55.2426 268.32 55.5472C267.667 55.8518 266.953 56.0062 266.232 55.999Z" fill="#263238"/>
<path d="M271.309 46.7734C271.267 46.7951 271.22 46.8065 271.172 46.8065C271.125 46.8065 271.078 46.7951 271.035 46.7734C270.704 46.5595 270.328 46.4264 269.936 46.385C269.544 46.3435 269.148 46.3947 268.78 46.5346C268.744 46.5526 268.705 46.5631 268.665 46.5657C268.625 46.5683 268.584 46.5628 268.546 46.5497C268.509 46.5365 268.474 46.5158 268.444 46.4889C268.414 46.462 268.39 46.4294 268.373 46.3931C268.34 46.3144 268.339 46.2259 268.371 46.1466C268.402 46.0673 268.463 46.0034 268.541 45.9685C269.003 45.7796 269.505 45.7051 270.002 45.7513C270.499 45.7975 270.978 45.9631 271.398 46.2339C271.432 46.2569 271.461 46.2865 271.483 46.3208C271.506 46.3552 271.521 46.3936 271.528 46.4339C271.536 46.4742 271.535 46.5156 271.526 46.5557C271.518 46.5958 271.501 46.6337 271.478 46.6673C271.433 46.718 271.374 46.7548 271.309 46.7734Z" fill="#263238"/>
<path d="M261.819 45.0045C261.771 44.9931 261.728 44.9685 261.695 44.9337C261.665 44.9049 261.642 44.8705 261.626 44.8325C261.61 44.7945 261.602 44.7538 261.602 44.7126C261.602 44.6714 261.61 44.6306 261.626 44.5926C261.642 44.5547 261.665 44.5203 261.695 44.4914C262.034 44.1112 262.456 43.8144 262.928 43.6242C263.401 43.4339 263.911 43.3554 264.419 43.3946C264.46 43.4009 264.499 43.4155 264.534 43.4374C264.568 43.4594 264.598 43.4883 264.622 43.5223C264.645 43.5563 264.661 43.5947 264.668 43.6351C264.676 43.6755 264.676 43.7171 264.667 43.7573C264.648 43.8392 264.6 43.9114 264.531 43.9602C264.463 44.0091 264.379 44.0313 264.295 44.0226C263.893 43.9973 263.491 44.0638 263.118 44.2171C262.746 44.3703 262.413 44.6063 262.146 44.9072C262.105 44.9519 262.054 44.9847 261.996 45.0019C261.938 45.0191 261.877 45.0199 261.819 45.0045Z" fill="#263238"/>
<path d="M295.094 81.1548L285.895 78.7047C285.895 78.7047 276.873 100.915 273.68 102.357C269.346 104.338 258.369 111.202 253.699 114.448C253.442 115.554 253.646 118.482 254.229 119.287C262.19 117.836 277.43 111.972 280.615 108.991C287.877 102.189 295.094 81.1548 295.094 81.1548Z" fill="#E58A7B"/>
<path d="M288.673 300.145C288.224 300.18 287.776 300.058 287.408 299.8C287.294 299.697 287.209 299.566 287.161 299.42C287.112 299.275 287.103 299.119 287.134 298.968C287.139 298.874 287.17 298.784 287.223 298.706C287.276 298.628 287.349 298.566 287.434 298.526C288.177 298.146 290.256 299.464 290.495 299.614C290.521 299.63 290.541 299.655 290.552 299.683C290.564 299.712 290.565 299.744 290.557 299.773C290.549 299.804 290.534 299.833 290.512 299.856C290.49 299.879 290.463 299.896 290.433 299.906C289.856 300.048 289.266 300.128 288.673 300.145ZM287.788 298.765C287.721 298.75 287.652 298.75 287.585 298.765C287.551 298.782 287.523 298.809 287.504 298.842C287.485 298.875 287.476 298.913 287.479 298.951C287.455 299.054 287.459 299.161 287.49 299.262C287.521 299.363 287.578 299.454 287.655 299.526C288 299.835 288.867 299.871 290.008 299.649C289.329 299.202 288.564 298.901 287.762 298.765H287.788Z" fill="#4CAF4F"/>
<path d="M290.389 299.906C290.366 299.913 290.341 299.913 290.318 299.906C289.654 299.534 288.407 298.075 288.593 297.332C288.621 297.214 288.687 297.109 288.782 297.034C288.877 296.958 288.994 296.917 289.115 296.916C289.234 296.9 289.354 296.91 289.469 296.945C289.583 296.981 289.689 297.04 289.778 297.12C290.512 297.748 290.557 299.676 290.557 299.773C290.561 299.802 290.555 299.832 290.541 299.858C290.527 299.883 290.504 299.903 290.477 299.915C290.447 299.921 290.417 299.918 290.389 299.906ZM289.203 297.208H289.141C288.938 297.208 288.911 297.323 288.903 297.367C288.796 297.801 289.584 298.906 290.238 299.428C290.235 298.681 290.004 297.953 289.575 297.341C289.472 297.251 289.34 297.204 289.203 297.208Z" fill="#4CAF4F"/>
<path d="M265.189 299.039C264.647 299.228 264.058 299.228 263.517 299.039C263.394 298.973 263.29 298.876 263.214 298.759C263.138 298.641 263.093 298.506 263.083 298.367C263.072 298.279 263.083 298.191 263.116 298.109C263.148 298.027 263.201 297.954 263.269 297.898C263.977 297.261 266.869 297.898 267.196 298.022C267.228 298.03 267.255 298.048 267.274 298.074C267.294 298.1 267.304 298.131 267.303 298.163C267.304 298.197 267.295 298.229 267.278 298.258C267.261 298.286 267.235 298.309 267.205 298.323C266.554 298.617 265.879 298.856 265.189 299.039ZM263.747 297.987C263.646 298.007 263.551 298.053 263.473 298.119C263.444 298.14 263.423 298.169 263.41 298.202C263.398 298.235 263.395 298.271 263.402 298.305C263.408 298.398 263.437 298.488 263.486 298.567C263.535 298.645 263.604 298.71 263.685 298.756C264.154 299.004 265.242 298.809 266.648 298.217C265.701 297.978 264.72 297.9 263.747 297.987Z" fill="#4CAF4F"/>
<path d="M267.179 298.323H267.108C266.223 298.164 264.454 297.146 264.401 296.386C264.401 296.209 264.481 295.961 264.906 295.82C265.049 295.768 265.201 295.747 265.353 295.756C265.505 295.765 265.654 295.805 265.79 295.873C266.745 296.341 267.25 298.04 267.276 298.119C267.282 298.146 267.281 298.174 267.274 298.2C267.266 298.227 267.252 298.251 267.232 298.27C267.219 298.291 267.2 298.31 267.179 298.323ZM265.082 296.085H264.994C264.72 296.182 264.72 296.297 264.72 296.333C264.72 296.793 266.002 297.633 266.896 297.916C266.69 297.205 266.254 296.583 265.657 296.147C265.48 296.057 265.275 296.034 265.082 296.085Z" fill="#4CAF4F"/>
<path d="M254.45 113.926L245.225 118.172L244.155 120.826L247.56 123.117C247.56 123.117 253.929 122.427 255.742 118.331L254.45 113.926Z" fill="#E58A7B"/>
<path d="M254.84 119.437C254.633 117.664 254.048 115.957 253.124 114.431L254.583 113.334C255.681 115.092 256.381 117.07 256.635 119.127L254.84 119.437Z" fill="#263238"/>
<path d="M256.414 115.182C256.609 115.489 256.705 115.849 256.689 116.212C256.672 116.575 256.544 116.924 256.322 117.212C256.1 117.5 255.795 117.712 255.448 117.82C255.101 117.929 254.729 117.927 254.383 117.817C254.036 117.706 253.733 117.491 253.513 117.202C253.293 116.912 253.167 116.562 253.154 116.199C253.14 115.836 253.238 115.477 253.435 115.172C253.633 114.866 253.919 114.629 254.256 114.492C254.634 114.3 255.073 114.264 255.477 114.393C255.881 114.523 256.218 114.806 256.414 115.182Z" fill="#263238"/>
<path d="M238.989 121.604L240.219 122.842L248.498 119.304L245.225 118.172L238.989 121.604Z" fill="#E58A7B"/>
<path opacity="0.2" d="M274.538 283.277C274.591 283.277 275.794 286.656 275.794 286.656L263.552 291.804L261.624 288.213L274.538 283.277Z" fill="black"/>
<path opacity="0.2" d="M299.561 287.567C299.614 287.567 299.968 290.972 299.968 290.972H286.559L285.603 287.063L299.561 287.567Z" fill="black"/>
<path d="M297.491 78.6073C299.924 86.4531 290.415 97.1823 290.415 97.1823L277.28 91.8221C278.837 87.2874 280.632 82.8379 282.658 78.4923C286.691 69.7975 295.032 70.6909 297.491 78.6073Z" fill="#4CAF4F"/>
<path opacity="0.2" d="M297.491 78.6073C299.924 86.4531 290.415 97.1823 290.415 97.1823L277.28 91.8221C278.837 87.2874 280.632 82.8379 282.658 78.4923C286.691 69.7975 295.032 70.6909 297.491 78.6073Z" fill="black"/>
<path d="M166.971 0H161.319V0.911057H166.971V0Z" fill="#4CAF4F"/>
<path d="M240.137 36.0588L239.453 51.2395L240.363 51.2805L241.047 36.0998L240.137 36.0588Z" fill="#4CAF4F"/>
<path d="M238.379 4.08644H134.005L124.293 221.431H228.667L238.379 4.08644Z" fill="#4CAF4F"/>
<path opacity="0.56" d="M235.265 7.07623H130.892L121.18 224.421H225.553L235.265 7.07623Z" fill="#FAFAFA"/>
<path opacity="0.07" d="M232.152 10.057H127.778L118.057 227.402H222.431L232.152 10.057Z" fill="#4CAF4F"/>
<path d="M220.273 104.851H131.183L130.44 121.48H219.53L220.273 104.851Z" fill="white"/>
<path d="M180.177 92.7156H131.723L131.396 100.154H179.85L180.177 92.7156Z" fill="#4CAF4F"/>
<path d="M218.265 149.732H129.176L128.433 166.361H217.522L218.265 149.732Z" fill="white"/>
<path opacity="0.47" d="M201.928 188.819H142.019L141.126 208.747H201.034L201.928 188.819Z" fill="#4CAF4F"/>
<path d="M197.921 211.843H138.012C137.986 211.85 137.959 211.85 137.932 211.843C137.924 211.817 137.924 211.789 137.932 211.763L138.817 191.826C138.817 191.813 138.82 191.799 138.825 191.787C138.831 191.774 138.838 191.763 138.848 191.754C138.858 191.745 138.87 191.738 138.883 191.734C138.896 191.729 138.91 191.728 138.923 191.729H198.832C198.843 191.724 198.855 191.721 198.867 191.721C198.879 191.721 198.892 191.724 198.903 191.729C198.909 191.74 198.912 191.752 198.912 191.764C198.912 191.777 198.909 191.789 198.903 191.8L198.036 211.781C198.025 211.802 198.008 211.819 197.988 211.83C197.967 211.841 197.944 211.846 197.921 211.843ZM138.118 211.631H197.815L198.699 191.906H139.003L138.118 211.631Z" fill="white"/>
<path d="M169.713 137.596H129.715L129.388 145.044H169.377L169.713 137.596Z" fill="#4CAF4F"/>
<path d="M200.787 51.1342C200.558 55.9738 198.837 60.6239 195.86 64.4462C193.656 67.3335 190.82 69.6774 187.569 71.298C184.319 72.9187 180.74 73.7731 177.108 73.7957C174.173 73.818 171.264 73.2393 168.561 72.095C165.858 70.9507 163.418 69.2651 161.391 67.1421C159.364 65.0191 157.794 62.5036 156.776 59.7505C155.758 56.9975 155.314 54.0651 155.472 51.1342C155.784 45.0522 158.406 39.3188 162.804 35.1065C167.203 30.8942 173.044 28.5212 179.133 28.4727C182.071 28.4453 184.983 29.0206 187.689 30.1629C190.395 31.3052 192.838 32.9903 194.868 35.1142C196.897 37.238 198.469 39.7554 199.487 42.5108C200.505 45.2662 200.947 48.2011 200.787 51.1342Z" fill="white"/>
<path d="M202.918 33.2138C202.861 34.5007 202.403 35.7374 201.609 36.7519C201.022 37.5188 200.267 38.1413 199.402 38.5721C198.538 39.0028 197.586 39.2304 196.62 39.2374C195.685 39.2431 194.762 39.0195 193.932 38.5863C193.103 38.153 192.392 37.5232 191.862 36.7519C191.16 35.7096 190.812 34.469 190.871 33.2138C190.957 31.599 191.655 30.0777 192.823 28.96C193.992 27.8424 195.543 27.2126 197.16 27.1991C197.94 27.192 198.713 27.3446 199.432 27.6477C200.151 27.9508 200.8 28.3979 201.34 28.9614C201.879 29.5249 202.297 30.1929 202.569 30.9243C202.84 31.6556 202.959 32.4348 202.918 33.2138Z" fill="#4CAF4F"/>
<path d="M140.781 113.166C140.738 113.879 140.427 114.549 139.91 115.041C139.393 115.534 138.708 115.812 137.994 115.819C137.65 115.823 137.308 115.757 136.99 115.624C136.672 115.49 136.384 115.293 136.146 115.044C135.907 114.796 135.722 114.501 135.602 114.178C135.481 113.854 135.429 113.51 135.447 113.166C135.485 112.452 135.795 111.779 136.313 111.286C136.831 110.792 137.518 110.516 138.233 110.512C138.577 110.509 138.919 110.577 139.236 110.711C139.554 110.844 139.84 111.042 140.079 111.29C140.317 111.538 140.503 111.833 140.623 112.155C140.744 112.478 140.797 112.822 140.781 113.166Z" fill="#263238"/>
<path d="M152.704 113.166C152.663 113.879 152.353 114.551 151.835 115.044C151.318 115.536 150.632 115.814 149.918 115.819C149.574 115.822 149.233 115.755 148.916 115.621C148.599 115.487 148.313 115.29 148.075 115.041C147.837 114.793 147.653 114.498 147.533 114.175C147.413 113.853 147.361 113.509 147.379 113.166C147.417 112.453 147.726 111.782 148.242 111.289C148.758 110.796 149.443 110.518 150.156 110.512C150.501 110.508 150.843 110.575 151.161 110.708C151.479 110.841 151.766 111.038 152.005 111.287C152.244 111.536 152.429 111.831 152.549 112.154C152.669 112.477 152.722 112.821 152.704 113.166Z" fill="#263238"/>
<path d="M164.636 113.166C164.596 113.879 164.285 114.551 163.768 115.044C163.25 115.536 162.564 115.814 161.85 115.819C161.505 115.822 161.164 115.755 160.847 115.621C160.529 115.487 160.243 115.29 160.004 115.042C159.766 114.793 159.58 114.499 159.46 114.176C159.339 113.854 159.286 113.51 159.302 113.166C159.343 112.452 159.653 111.781 160.171 111.288C160.688 110.795 161.374 110.518 162.089 110.512C162.433 110.508 162.775 110.575 163.093 110.708C163.411 110.841 163.698 111.038 163.937 111.287C164.176 111.536 164.361 111.831 164.481 112.154C164.602 112.477 164.654 112.821 164.636 113.166Z" fill="#263238"/>
<path d="M138.773 158.046C138.73 158.759 138.419 159.429 137.902 159.922C137.385 160.414 136.7 160.692 135.986 160.7C135.642 160.703 135.301 160.635 134.983 160.501C134.666 160.368 134.379 160.171 134.141 159.922C133.902 159.674 133.717 159.379 133.596 159.057C133.476 158.734 133.422 158.39 133.439 158.046C133.479 157.333 133.79 156.661 134.307 156.169C134.825 155.676 135.511 155.398 136.225 155.393C136.57 155.39 136.911 155.457 137.228 155.591C137.546 155.725 137.832 155.922 138.071 156.171C138.309 156.419 138.495 156.713 138.615 157.036C138.736 157.359 138.79 157.702 138.773 158.046Z" fill="#263238"/>
<path d="M150.696 158.046C150.656 158.758 150.346 159.428 149.831 159.921C149.315 160.414 148.632 160.692 147.919 160.7C147.574 160.704 147.232 160.637 146.914 160.504C146.596 160.371 146.309 160.174 146.07 159.925C145.831 159.676 145.646 159.381 145.526 159.058C145.406 158.735 145.353 158.391 145.371 158.046C145.412 157.333 145.722 156.661 146.24 156.169C146.757 155.676 147.443 155.398 148.157 155.393C148.501 155.39 148.842 155.457 149.159 155.591C149.476 155.725 149.762 155.922 150 156.171C150.238 156.42 150.422 156.714 150.542 157.037C150.662 157.359 150.714 157.703 150.696 158.046Z" fill="#263238"/>
<path d="M162.655 158.046C162.614 158.76 162.304 159.431 161.786 159.924C161.269 160.417 160.583 160.694 159.869 160.7C159.525 160.702 159.184 160.633 158.867 160.499C158.55 160.365 158.264 160.168 158.026 159.92C157.788 159.671 157.602 159.377 157.481 159.055C157.36 158.733 157.306 158.39 157.321 158.046C157.364 157.334 157.675 156.664 158.192 156.171C158.709 155.679 159.393 155.401 160.107 155.393C160.452 155.389 160.794 155.455 161.112 155.589C161.43 155.722 161.717 155.919 161.956 156.168C162.195 156.417 162.38 156.712 162.5 157.035C162.62 157.358 162.673 157.702 162.655 158.046Z" fill="#263238"/>
<path d="M174.56 158.046C174.518 158.759 174.207 159.429 173.69 159.922C173.173 160.414 172.488 160.692 171.774 160.7C171.43 160.701 171.089 160.633 170.773 160.499C170.456 160.365 170.17 160.168 169.931 159.919C169.693 159.671 169.508 159.377 169.387 159.055C169.266 158.733 169.211 158.39 169.227 158.046C169.269 157.334 169.58 156.663 170.097 156.171C170.615 155.679 171.299 155.4 172.013 155.393C172.357 155.39 172.699 155.457 173.016 155.591C173.333 155.725 173.62 155.922 173.859 156.171C174.097 156.419 174.282 156.713 174.403 157.036C174.524 157.359 174.577 157.702 174.56 158.046Z" fill="#263238"/>
<path d="M186.537 158.046C186.494 158.759 186.183 159.429 185.666 159.922C185.149 160.414 184.465 160.692 183.751 160.7C183.406 160.704 183.064 160.637 182.746 160.504C182.428 160.371 182.141 160.174 181.902 159.925C181.663 159.676 181.478 159.381 181.358 159.058C181.238 158.735 181.185 158.391 181.203 158.046C181.244 157.333 181.554 156.661 182.072 156.169C182.589 155.676 183.275 155.398 183.989 155.393C184.334 155.39 184.675 155.457 184.993 155.591C185.31 155.725 185.597 155.922 185.835 156.171C186.074 156.419 186.259 156.713 186.38 157.036C186.5 157.359 186.554 157.702 186.537 158.046Z" fill="#263238"/>
<path d="M184.727 49.9539C188.429 46.3335 188.625 40.5304 185.165 36.9924C181.705 33.4543 175.899 33.5211 172.197 37.1415C168.495 40.7619 168.299 46.565 171.759 50.103C175.218 53.6411 181.024 53.5743 184.727 49.9539Z" fill="#4CAF4F"/>
<path d="M195.86 64.4463C193.656 67.3335 190.82 69.6774 187.569 71.2981C184.319 72.9188 180.74 73.7732 177.108 73.7957C173.586 73.8256 170.11 72.9883 166.988 71.3579C163.866 69.7274 161.193 67.3538 159.205 64.4463C163.504 60.1652 170.306 57.3701 177.842 57.3701C185.378 57.3701 191.941 60.1652 195.86 64.4463Z" fill="#4CAF4F"/>
<path opacity="0.1" d="M184.727 49.9539C188.429 46.3335 188.625 40.5304 185.165 36.9924C181.705 33.4543 175.899 33.5211 172.197 37.1415C168.495 40.7619 168.299 46.565 171.759 50.103C175.218 53.6411 181.024 53.5743 184.727 49.9539Z" fill="white"/>
<path opacity="0.1" d="M195.86 64.4463C193.656 67.3335 190.82 69.6774 187.569 71.2981C184.319 72.9188 180.74 73.7732 177.108 73.7957C173.586 73.8256 170.11 72.9883 166.988 71.3579C163.866 69.7274 161.193 67.3538 159.205 64.4463C163.504 60.1652 170.306 57.3701 177.842 57.3701C185.378 57.3701 191.941 60.1652 195.86 64.4463Z" fill="white"/>
<path d="M65.72 125.487C64.8797 127.327 63.9952 129.352 63.2256 131.316C62.4561 133.28 61.6689 135.305 60.9878 137.322C59.5972 141.296 58.538 145.379 57.8212 149.528L57.6266 150.829C57.6081 151.052 57.629 151.276 57.6885 151.492C57.8973 152.225 58.2261 152.919 58.6615 153.544C59.7974 155.163 61.1151 156.647 62.5888 157.967C64.1425 159.412 65.7724 160.773 67.4713 162.044C69.1696 163.353 70.9564 164.627 72.7166 165.83L71.0625 168.935C66.8594 167.103 62.87 164.817 59.1657 162.115C57.1894 160.674 55.4059 158.985 53.8586 157.091C52.9414 155.963 52.2262 154.686 51.7445 153.314C51.4645 152.457 51.3212 151.562 51.32 150.661C51.32 150.448 51.32 150.139 51.32 149.988V149.555L51.4084 148.67C51.9155 144.062 52.8845 139.516 54.3008 135.102C54.9907 132.926 55.7249 130.759 56.5652 128.645C57.4055 126.531 58.2723 124.461 59.3426 122.312L65.72 125.487Z" fill="#E58A7B"/>
<path d="M71.4694 165.282L77.7229 162.115L76.1043 168.979C76.1043 168.979 71.8143 170.182 69.8242 168.095L71.4694 165.282Z" fill="#E58A7B"/>
<path d="M83.4458 163.239L81.7829 168.917L76.1043 168.979L77.723 162.115L83.4458 163.239Z" fill="#E58A7B"/>
<path d="M92.2733 92.3706C92.6078 93.5964 93.0734 94.7826 93.662 95.9087C93.4901 96.1037 93.2686 96.2486 93.021 96.328C92.7734 96.4074 92.509 96.4184 92.2557 96.3598L92.2733 92.3706Z" fill="#DF5753"/>
<path d="M92.0876 92.4236C92.454 92.4236 92.751 91.9682 92.751 91.4064C92.751 90.8446 92.454 90.3892 92.0876 90.3892C91.7212 90.3892 91.4242 90.8446 91.4242 91.4064C91.4242 91.9682 91.7212 92.4236 92.0876 92.4236Z" fill="#263238"/>
<path d="M91.893 90.4246L93.2375 90.0443C93.2375 90.0443 92.5829 91.088 91.893 90.4246Z" fill="#263238"/>
<path d="M74.9986 98.863C75.8036 102.976 76.6085 110.521 73.7249 113.272C73.7249 113.272 74.8571 117.447 82.5082 117.447C90.92 117.447 86.524 113.272 86.524 113.272C81.9333 112.175 82.0483 108.77 82.8532 105.568L74.9986 98.863Z" fill="#E58A7B"/>
<path d="M72.7608 89.4871C73.1854 96.3598 73.2208 99.2787 76.6881 102.808C81.9156 108.115 90.2655 106.098 91.9019 99.2699C93.379 93.0782 92.4414 82.8885 85.7102 80.1554C84.2327 79.5467 82.6243 79.325 81.0372 79.5113C79.4501 79.6975 77.9367 80.2856 76.6403 81.2199C75.3438 82.1541 74.3072 83.4037 73.6283 84.8503C72.9494 86.2969 72.6509 87.8928 72.7608 89.4871Z" fill="#E58A7B"/>
<path d="M73.4419 81.7563C69.9922 83.0123 65.3927 82.0747 67.1971 92.7155C69.1077 103.984 66.1711 107.691 66.1711 107.691C66.1711 107.691 79.2532 110.477 92.6095 107.522C92.6095 107.522 88.5318 100.393 89.6728 95.1391C91.1323 88.5052 89.9824 86.0551 89.9824 86.0551C89.9824 86.0551 78.289 79.9873 73.4419 81.7563Z" fill="#263238"/>
<path d="M88.0365 93.0693C88.0401 94.3761 88.4143 95.6551 89.1156 96.7578C90.0532 98.1907 91.1589 97.6423 91.4331 96.1209C91.6807 94.7853 91.495 92.4236 90.3009 91.5037C89.1068 90.5838 88.0542 91.486 88.0365 93.0693Z" fill="#E58A7B"/>
<path d="M70.4433 82.915C69.4527 80.1288 74.176 75.8389 84.1711 77.6079C94.1662 79.3769 94.5996 87.7003 94.5996 87.7003L92.5829 85.2944L92.6714 87.8241L82.4021 89.7966L70.4433 82.915Z" fill="#263238"/>
<path d="M71.2925 113.741C71.2335 113.337 71.3345 112.926 71.5741 112.595C71.8137 112.265 72.1729 112.041 72.5751 111.972C75.6886 111.459 82.7647 110.415 86.3205 110.91C88.9741 111.282 89.664 112.821 89.779 114.086C89.797 114.307 89.7674 114.53 89.6921 114.739C89.6169 114.948 89.4978 115.139 89.3427 115.298C89.1877 115.457 89.0004 115.581 88.7934 115.662C88.5864 115.743 88.3645 115.778 88.1426 115.766L72.7696 115.076C72.4072 115.058 72.0622 114.915 71.7931 114.672C71.5239 114.428 71.3471 114.099 71.2925 113.741Z" fill="#4CAF4F"/>
<path opacity="0.6" d="M71.2925 113.741C71.2335 113.337 71.3345 112.926 71.5741 112.595C71.8137 112.265 72.1729 112.041 72.5751 111.972C75.6886 111.459 82.7647 110.415 86.3205 110.91C88.9741 111.282 89.664 112.821 89.779 114.086C89.797 114.307 89.7674 114.53 89.6921 114.739C89.6169 114.948 89.4978 115.139 89.3427 115.298C89.1877 115.457 89.0004 115.581 88.7934 115.662C88.5864 115.743 88.3645 115.778 88.1426 115.766L72.7696 115.076C72.4072 115.058 72.0622 114.915 71.7931 114.672C71.5239 114.428 71.3471 114.099 71.2925 113.741Z" fill="black"/>
<path d="M80.1819 268.267L85.8871 272.229L95.4311 259.289L89.7259 255.335L80.1819 268.267Z" fill="#E58A7B"/>
<path d="M66.8787 268.01L72.9023 271.442L81.3495 257.759L75.3259 254.327L66.8787 268.01Z" fill="#E58A7B"/>
<path d="M95.4223 259.289L90.5043 265.958L84.7991 262.004L89.7171 255.335L95.4223 259.289Z" fill="#CF6F64"/>
<path d="M75.3171 254.327L81.3495 257.767L76.9977 264.817L70.9652 261.376L75.3171 254.327Z" fill="#CF6F64"/>
<path d="M84.9937 156.941C84.9937 156.941 107.266 185.007 103.082 211.852C99.7122 233.531 80.1642 262.889 80.1642 262.889L70.9741 258.325C77.4518 245.344 82.9799 231.912 87.5146 218.132C88.913 213.854 89.3212 209.314 88.7083 204.855C88.0953 200.396 86.4774 196.134 83.9765 192.392C72.69 175.914 54.6104 185.723 66.7726 156.941H84.9937Z" fill="#4CAF4F"/>
<path opacity="0.6" d="M84.9937 156.941C84.9937 156.941 107.266 185.007 103.082 211.852C99.7122 233.531 80.1642 262.889 80.1642 262.889L70.9741 258.325C77.4518 245.344 82.9799 231.912 87.5146 218.132C88.913 213.854 89.3212 209.314 88.7083 204.855C88.0953 200.396 86.4774 196.134 83.9765 192.392C72.69 175.914 54.6104 185.723 66.7726 156.941H84.9937Z" fill="black"/>
<path opacity="0.4" d="M95.9176 174.967L92.6802 171.748C92.6802 172.004 98.9515 210.72 100.712 221.599C101.75 218.421 102.546 215.168 103.091 211.87C105.161 198.699 100.836 185.245 95.9176 174.967Z" fill="black"/>
<path d="M94.9358 156.941C94.9358 156.941 121.754 192.215 122.515 213.364C123.143 231.055 93.3259 265.33 93.3259 265.33L84.6576 259.722C84.6576 259.722 102.109 235.38 106.505 215.496C104.807 195.789 68.8954 156.941 68.8954 156.941H94.9358Z" fill="#4CAF4F"/>
<path opacity="0.6" d="M94.9358 156.941C94.9358 156.941 121.754 192.215 122.515 213.364C123.143 231.055 93.3259 265.33 93.3259 265.33L84.6576 259.722C84.6576 259.722 102.109 235.38 106.505 215.496C104.807 195.789 68.8954 156.941 68.8954 156.941H94.9358Z" fill="black"/>
<path d="M61.7573 114.846C58.8915 115.527 56.1406 125.947 56.1406 125.947L67.3475 133.43C67.3475 133.43 71.0802 125.186 69.7711 121.577C68.4178 117.818 65.3573 113.988 61.7573 114.846Z" fill="#4CAF4F"/>
<path opacity="0.2" d="M63.9509 121.56L63.1726 130.644L67.3387 133.439C68.489 130.849 69.3407 128.137 69.8772 125.354L63.9509 121.56Z" fill="black"/>
<path d="M98.2527 115.05C98.2527 115.05 101.561 116.208 94.9358 156.932H66.7549C67.2325 145.433 67.2414 138.357 61.7573 114.846C65.7033 114.033 69.7029 113.507 73.7249 113.272C77.9858 112.966 82.2631 112.966 86.5239 113.272C92.0257 113.776 98.2527 115.05 98.2527 115.05Z" fill="#4CAF4F"/>
<path d="M101.119 121.56C101.755 123.329 102.428 125.231 103.135 127.062C103.843 128.892 104.515 130.776 105.232 132.634L107.399 138.189L107.947 139.577L108.23 140.267L108.363 140.612C108.363 140.674 108.363 140.674 108.363 140.665C108.201 140.438 107.989 140.25 107.744 140.117C107.394 139.911 106.999 139.793 106.594 139.772C106.257 139.762 105.922 139.825 105.612 139.958C105.205 140.144 105.205 140.223 105.214 140.214C105.287 140.155 105.353 140.087 105.408 140.011C105.898 139.368 106.322 138.678 106.673 137.95C107.089 137.136 107.487 136.269 107.885 135.394C108.664 133.625 109.38 131.794 110.096 129.945C110.813 128.096 111.494 126.23 112.157 124.346L114.174 118.703L117.58 119.587C116.907 123.621 116.04 127.548 114.997 131.546C114.493 133.536 113.9 135.509 113.228 137.499C112.892 138.498 112.52 139.489 112.095 140.506C111.653 141.61 111.108 142.67 110.468 143.673C110.233 144.01 109.972 144.33 109.69 144.628C109.238 145.116 108.69 145.505 108.08 145.769C107.539 146.001 106.952 146.11 106.364 146.088C105.704 146.063 105.062 145.871 104.497 145.53C103.831 145.114 103.278 144.54 102.888 143.859C102.755 143.629 102.64 143.399 102.56 143.231L102.392 142.894L102.056 142.205L101.384 140.834C100.499 138.994 99.6149 137.136 98.8453 135.27C98.0758 133.404 97.262 131.511 96.5014 129.609C95.7407 127.707 95.0596 125.805 94.4139 123.753L101.119 121.56Z" fill="#E58A7B"/>
<path d="M98.2527 115.05C101.64 115.855 105.453 125.867 105.453 125.867L95.378 134.438C95.378 134.438 88.8591 123.523 90.177 119.923C91.548 116.173 93.8301 113.997 98.2527 115.05Z" fill="#4CAF4F"/>
<path d="M115.775 115.536L119.313 112.582L121.772 116.412L119.959 119.605C119.959 119.605 117.075 122.259 114.528 120.905C114.124 119.996 114.027 118.981 114.252 118.012C114.477 117.043 115.012 116.174 115.775 115.536Z" fill="#E58A7B"/>
<path d="M125.699 112.591L125.434 113.555L119.835 114.492L119.287 112.582L125.699 112.591Z" fill="#E58A7B"/>
<path d="M94.0158 265.781L83.9146 259.253L85.7279 256.104L97.0763 263.083L94.0158 265.781Z" fill="#4CAF4F"/>
<path d="M76.8561 270.982C75.9699 270.874 75.1183 270.572 74.3618 270.098C74.3306 270.087 74.3035 270.066 74.2843 270.039C74.2652 270.013 74.2549 269.98 74.2549 269.947C74.2549 269.914 74.2652 269.882 74.2843 269.855C74.3035 269.828 74.3306 269.808 74.3618 269.797C74.636 269.708 77.0154 268.974 77.7053 269.54C77.7828 269.605 77.8417 269.689 77.876 269.784C77.9102 269.879 77.9184 269.981 77.8999 270.08C77.8876 270.239 77.8348 270.393 77.7466 270.526C77.6583 270.659 77.5376 270.767 77.3957 270.841C77.23 270.931 77.0448 270.98 76.8561 270.982ZM74.866 270.009C75.9716 270.575 76.8561 270.779 77.2807 270.566C77.3731 270.515 77.4509 270.441 77.5067 270.351C77.5624 270.262 77.5943 270.159 77.5991 270.053C77.5991 269.912 77.5991 269.85 77.5195 269.815C77.148 269.514 75.8212 269.744 74.8483 270.009H74.866Z" fill="#263238"/>
<path d="M74.4237 270.16C74.377 270.159 74.3325 270.14 74.2999 270.106C74.2867 270.082 74.2798 270.055 74.2798 270.027C74.2798 269.999 74.2867 269.972 74.2999 269.947C74.2999 269.868 74.8748 267.948 75.777 267.515C75.8922 267.462 76.0174 267.435 76.1441 267.435C76.2708 267.435 76.3959 267.462 76.5112 267.515C76.6354 267.554 76.7429 267.634 76.8166 267.741C76.8904 267.849 76.9261 267.977 76.9181 268.107C76.8561 268.904 75.2375 270 74.4945 270.186L74.4237 270.16ZM76.1397 267.745C76.0536 267.747 75.9692 267.769 75.892 267.807C75.3436 268.072 74.8925 269.107 74.6714 269.735C75.4497 269.408 76.52 268.541 76.5554 268.054C76.5554 267.975 76.5554 267.878 76.3519 267.789C76.2858 267.753 76.214 267.73 76.1397 267.718V267.745Z" fill="#263238"/>
<path d="M89.4783 274.803C88.4788 274.803 87.0901 273.521 86.3294 272.733C86.3099 272.706 86.2995 272.674 86.2995 272.641C86.2995 272.607 86.3099 272.575 86.3294 272.548C86.3468 272.519 86.3717 272.496 86.4012 272.48C86.4308 272.465 86.464 272.457 86.4974 272.459C86.8512 272.459 89.9205 272.919 90.3539 273.786C90.3998 273.864 90.4241 273.952 90.4241 274.043C90.4241 274.133 90.3998 274.221 90.3539 274.299C90.2889 274.434 90.1907 274.55 90.0685 274.637C89.9463 274.724 89.8041 274.778 89.6552 274.794L89.4783 274.803ZM86.9131 272.857C88.0276 273.936 89.0095 274.538 89.5667 274.467C89.6643 274.454 89.7573 274.418 89.8375 274.361C89.9177 274.304 89.9826 274.228 90.0267 274.14C90.0465 274.11 90.057 274.074 90.057 274.038C90.057 274.002 90.0465 273.967 90.0267 273.936C89.7967 273.459 88.1603 273.052 86.9131 272.857Z" fill="#263238"/>
<path d="M87.0104 272.813C86.8119 272.819 86.6133 272.804 86.4178 272.769C86.3905 272.765 86.3647 272.754 86.343 272.737C86.3213 272.72 86.3044 272.697 86.294 272.672C86.2808 272.646 86.2739 272.617 86.2739 272.588C86.2739 272.558 86.2808 272.53 86.294 272.503C86.3471 272.442 87.5412 271 88.6734 270.903C88.9939 270.878 89.3114 270.979 89.5579 271.186C89.9028 271.486 89.8852 271.752 89.7967 271.92C89.5756 272.521 88.0453 272.813 87.0104 272.813ZM86.7805 272.486C87.7711 272.539 89.3544 272.212 89.5579 271.778C89.5579 271.778 89.6286 271.637 89.3987 271.442C89.3071 271.362 89.2002 271.303 89.0846 271.266C88.969 271.23 88.847 271.217 88.7264 271.23C87.9638 271.443 87.2846 271.884 86.7805 272.495V272.486Z" fill="#263238"/>
<path d="M74.6625 269.204L67.1617 267.081C67.0325 267.042 66.8933 267.052 66.7708 267.109C66.6484 267.166 66.5514 267.267 66.4984 267.391L63.9686 273.078C63.9092 273.224 63.8813 273.381 63.8868 273.538C63.8922 273.695 63.9309 273.849 64.0002 273.991C64.0696 274.132 64.168 274.257 64.2891 274.357C64.4102 274.458 64.5512 274.531 64.7028 274.573C67.3563 275.263 68.63 275.458 71.9293 276.404C73.9637 276.97 76.8649 278.023 79.6689 278.819C82.4728 279.615 83.4104 276.882 82.3225 276.298C77.4045 273.698 77.0153 271.876 75.6709 269.93C75.4301 269.577 75.0732 269.321 74.6625 269.204Z" fill="#4CAF4F"/>
<path d="M86.5328 271.699L80.1288 267.276C80.0203 267.197 79.8864 267.16 79.7527 267.173C79.6191 267.186 79.4948 267.248 79.4035 267.347L75.1578 271.911C75.0544 272.029 74.9772 272.167 74.9315 272.318C74.8857 272.468 74.8724 272.626 74.8925 272.781C74.9126 272.937 74.9656 273.087 75.0479 273.22C75.1303 273.354 75.2401 273.468 75.3701 273.556C77.6257 275.069 78.7932 275.679 81.6149 277.634C83.3839 278.837 86.807 281.508 89.1952 283.171C91.5834 284.834 93.3613 282.552 92.5122 281.649C88.7087 277.59 87.8773 275.042 87.2493 272.733C87.1402 272.315 86.8864 271.948 86.5328 271.699Z" fill="#4CAF4F"/>
<path d="M81.3406 263.472L69.7976 257.732L70.9917 254.601L83.322 260.651L81.3406 263.472Z" fill="#4CAF4F"/>
<path d="M66.3303 155.278L65.3573 157.825C65.26 158.02 65.49 158.223 65.8173 158.223H95.0773C95.3338 158.223 95.5461 158.099 95.5638 157.94L95.8114 155.411C95.8114 155.242 95.608 155.092 95.3338 155.092H66.7902C66.7043 155.084 66.6177 155.097 66.5377 155.129C66.4576 155.161 66.3865 155.212 66.3303 155.278Z" fill="#4CAF4F"/>
<path opacity="0.4" d="M66.3303 155.278L65.3573 157.825C65.26 158.02 65.49 158.223 65.8173 158.223H95.0773C95.3338 158.223 95.5461 158.099 95.5638 157.94L95.8114 155.411C95.8114 155.242 95.608 155.092 95.3338 155.092H66.7902C66.7043 155.084 66.6177 155.097 66.5377 155.129C66.4576 155.161 66.3865 155.212 66.3303 155.278Z" fill="white"/>
<path d="M70.9387 158.471H70.1691C70.0188 158.471 69.9038 158.391 69.9126 158.294L70.2753 155.012C70.2753 154.924 70.4168 154.844 70.5672 154.844H71.3367C71.4871 154.844 71.6021 154.924 71.5932 155.012L71.2306 158.294C71.2217 158.391 71.089 158.471 70.9387 158.471Z" fill="#4CAF4F"/>
<path d="M88.9829 158.471H88.2222C88.0719 158.471 87.9569 158.391 87.9657 158.294L88.3195 155.012C88.3195 154.924 88.4699 154.844 88.6203 154.844H89.381C89.5313 154.844 89.6552 154.924 89.6375 155.012L89.2837 158.294C89.2394 158.391 89.1421 158.471 88.9829 158.471Z" fill="#4CAF4F"/>
<g style="mix-blend-mode:multiply">
<path d="M70.2664 308.265C83.3536 308.265 93.9628 307.497 93.9628 306.549C93.9628 305.601 83.3536 304.833 70.2664 304.833C57.1793 304.833 46.5701 305.601 46.5701 306.549C46.5701 307.497 57.1793 308.265 70.2664 308.265Z" fill="#F5F5F5"/>
</g>
<path d="M84.7018 304.125C80.5092 302.905 75.8566 301.339 73.0438 299.703C72.9642 299.649 72.8758 299.623 72.7962 299.579V280.597H81.2787C81.9227 280.559 82.5277 280.276 82.9701 279.807C83.4125 279.337 83.659 278.717 83.659 278.072C83.659 277.427 83.4125 276.806 82.9701 276.336C82.5277 275.867 81.9227 275.584 81.2787 275.546H72.8404V189.022H67.7456V275.546H59.3161C58.9719 275.526 58.6271 275.576 58.303 275.694C57.9789 275.811 57.6823 275.994 57.4314 276.231C57.1805 276.467 56.9806 276.752 56.8439 277.069C56.7073 277.386 56.6368 277.727 56.6368 278.072C56.6368 278.416 56.7073 278.758 56.8439 279.074C56.9806 279.391 57.1805 279.676 57.4314 279.912C57.6823 280.149 57.9789 280.332 58.303 280.449C58.6271 280.567 58.9719 280.617 59.3161 280.597H67.7456V299.552C67.6659 299.552 67.5863 299.623 67.5067 299.676C64.6497 301.339 60.0325 302.905 55.8399 304.099C55.5567 304.184 55.3135 304.368 55.1543 304.618C54.9952 304.867 54.9306 305.166 54.9723 305.458C55.014 305.751 55.1592 306.02 55.3816 306.215C55.604 306.41 55.889 306.519 56.1848 306.522H84.3569C84.6396 306.503 84.9072 306.387 85.1149 306.195C85.3227 306.002 85.458 305.744 85.4984 305.463C85.5388 305.183 85.4817 304.897 85.3367 304.653C85.1918 304.41 84.9677 304.223 84.7018 304.125Z" fill="#E0E0E0"/>
<path d="M86.0021 180.212H54.5485C52.018 180.212 49.9667 182.264 49.9667 184.794V194.144C49.9667 196.674 52.018 198.726 54.5485 198.726H86.0021C88.5326 198.726 90.5839 196.674 90.5839 194.144V184.794C90.5839 182.264 88.5326 180.212 86.0021 180.212Z" fill="#4CAF4F"/>
<path d="M54.2566 198.734V200.344C54.2566 201.671 55.6984 202.75 57.4674 202.75H83.1185C84.8876 202.75 86.3294 201.671 86.3294 200.344V198.734H54.2566Z" fill="#4CAF4F"/>
<path opacity="0.3" d="M54.2566 198.734V200.344C54.2566 201.671 55.6984 202.75 57.4674 202.75H83.1185C84.8876 202.75 86.3294 201.671 86.3294 200.344V198.734H54.2566Z" fill="white"/>
</svg>
