<svg width="108" height="111" viewBox="0 0 108 111" fill="none" xmlns="http://www.w3.org/2000/svg">
<path d="M62.393 32.57L61.913 32.99L61.673 33.2V33.72L62.393 33.31V33.13L62.203 33.26V33.13L62.393 32.83V32.57Z" fill="#004D43"/>
<path d="M62.393 34.04L62.243 34.08L62.393 33.79V33.54L62.303 33.64L61.993 33.9V34.44L62.393 34.23V34.04Z" fill="#004D43"/>
<path d="M63.583 32.1C63.583 32.1 63.623 32.13 63.643 32.14V32.7L63.413 32.58L62.623 32.2V32.59L63.083 32.99L63.323 33.2V33.72L62.623 33.32V33.56L62.693 33.63L62.983 33.94V34.46L62.623 34.24V34.54L62.853 34.76V34.88L62.553 35.27L62.253 34.88V34.77L62.483 34.55L62.503 31.64L61.953 32.1V32.29L62.393 32.04V32.2L61.573 32.59L61.343 32.71V32.15C61.343 32.15 61.373 32.13 61.403 32.11C61.423 32.1 61.433 32.09 61.463 32.07C61.503 32.04 61.543 32.02 61.583 31.98C61.833 31.81 62.133 31.6 62.343 31.45V30.6L60.343 30.69C59.533 32.99 57.363 34.64 54.793 34.64C51.543 34.64 48.903 32 48.903 28.75C48.903 27.35 49.393 26.06 50.213 25.06L51.513 26.51L48.483 20.9H59.673L65.173 30.49L62.853 30.59V31.61C63.093 31.77 63.383 31.98 63.593 32.12L63.583 32.1Z" fill="#004D43"/>
<path d="M53.7431 81.56H53.7131L52.4631 80.93L26.5031 68.39V31.34L32.923 34.44C32.923 34.44 31.6731 66.17 53.7131 81.53C53.7131 81.54 53.7331 81.55 53.7431 81.56Z" fill="#004D43"/>
<path d="M86.8131 36.68V72.06L61.6431 80.93L89.7331 73.88V36.68H86.8131Z" fill="#004D43"/>
<path d="M85.3631 34.02H82.4431V69.31L58.3931 80.93L85.3631 71.14V34.02Z" fill="#004D43"/>
<path d="M20.653 36.69H17.743V73.88L45.823 80.93L20.653 72.06V36.69Z" fill="#004D43"/>
<path d="M25.033 34.02H22.113V71.14L49.083 80.93L25.033 69.32V34.02Z" fill="#004D43"/>
<path d="M80.993 36.69V68.39L55.033 80.92L53.773 81.55H53.7631C53.7631 81.55 53.763 81.49 53.743 81.42V81.39C53.743 81.33 53.733 81.27 53.723 81.18C53.383 77.23 51.223 44.45 80.943 36.7C80.963 36.7 80.973 36.69 80.993 36.68V36.69Z" fill="#004D43"/>
<path d="M53.753 81.55C53.753 81.55 53.753 81.48 53.743 81.42C53.753 81.49 53.763 81.53 53.763 81.55H53.753Z" fill="white"/>
<path d="M52.483 68.63C52.373 75.81 53.673 81.24 53.743 81.56C53.693 81.52 53.653 81.47 53.603 81.43C41.413 68.76 38.363 53.02 38.483 40.11C38.483 39.11 38.523 38.13 38.563 37.17C38.943 29.02 39.953 22.48 40.963 18.81H40.943C40.883 18.83 40.853 18.83 40.833 18.83L34.663 19.99C34.633 19.99 34.613 19.97 34.613 19.95V15.49C34.613 15.49 34.633 15.44 34.663 15.45C35.103 15.52 38.213 16.01 42.313 15.84H42.363V17.38L42.633 17.17L43.123 16.79V15.8C44.333 15.73 45.613 15.6 46.933 15.38C48.243 15.16 49.603 14.86 50.933 14.45C50.963 14.45 50.993 14.46 50.993 14.49V19.22C50.993 19.22 50.963 19.25 50.943 19.27L43.383 18.72C43.223 18.66 43.253 18.72 43.103 18.69C41.723 38.22 57.413 38.77 64.793 37.98C51.453 48.67 52.463 68.64 52.463 68.64L52.483 68.63Z" fill="#004D43"/>
<path d="M80.9931 31.33V36.69C80.9931 36.69 80.963 36.7 80.943 36.71C51.223 44.46 53.373 77.24 53.723 81.19C53.723 81.27 53.7331 81.34 53.7431 81.4V81.43C53.7531 81.5 53.7631 81.54 53.7631 81.56C53.6831 81.25 52.3831 75.82 52.4931 68.64C52.5831 62.66 53.6531 55.45 57.2331 48.99C58.8231 46.11 60.9131 43.37 63.6231 40.96C63.6231 40.96 63.633 40.96 63.643 40.95C70.433 34.16 81.0131 31.33 81.0131 31.33H80.9931Z" fill="#00352D"/>
<path d="M53.713 81.53C31.673 66.17 32.923 34.44 32.923 34.44L37.163 36.48C37.163 36.48 36.883 39.48 37.213 44.14C37.873 53.44 40.983 69.39 53.613 81.42C53.643 81.46 53.683 81.49 53.713 81.53Z" fill="#00352D"/>
<path d="M36.023 7.45001L36.663 9.40001H38.723L37.053 10.61L37.693 12.57L36.023 11.36L34.363 12.57L35.003 10.61L33.333 9.40001H35.393L36.023 7.45001Z" fill="#004D43"/>
<path d="M48.363 7.45001L48.993 9.40001H51.053L49.393 10.61L50.023 12.57L48.363 11.36L46.693 12.57L47.333 10.61L45.673 9.40001H47.723L48.363 7.45001Z" fill="#004D43"/>
<path d="M100.283 79.86C101.043 79.15 101.783 78.4 102.483 77.61C102.723 77.34 102.953 77.07 103.183 76.79C103.213 76.76 103.233 76.72 103.263 76.69L102.273 74.65L101.893 73.88C101.183 74.29 100.453 74.68 99.7031 75.06C99.7031 75.44 99.6931 75.84 99.6831 76.26C99.6631 77.71 99.6331 79.33 99.6031 80.49C99.8231 80.3 100.043 80.1 100.253 79.9L100.283 79.87V79.86Z" fill="#004D43"/>
<path d="M96.5131 85.04L95.5831 84.56C95.3831 84.7 95.1931 84.83 94.9931 84.97C94.8231 85.09 94.6531 85.2 94.4831 85.31L95.0231 85.59L95.7631 85.98L95.9831 86.1H96.0031L95.4631 86.64H95.4331L95.2231 86.69L95.0931 86.72L93.4631 87.03L90.8731 87.53C90.4831 87.75 90.1031 87.96 89.7431 88.15L91.0731 88.44L93.4431 88.95L98.1231 89.96C98.9731 88.97 99.7331 88.02 100.433 87.1L96.8931 85.24L96.5231 85.04H96.5131Z" fill="#004D43"/>
<path d="M87.0631 88.36C86.8731 87.35 86.6231 85.99 86.3431 84.53C86.0531 83.01 85.7431 81.38 85.4531 79.9C84.1631 80.2 82.8831 80.46 81.6331 80.7L80.9631 87.88L80.6831 90.89L85.1431 89.15C85.1431 89.15 85.8731 88.89 87.0631 88.36Z" fill="#004D43"/>
<path d="M104.313 75.3C105.023 74.31 105.663 73.27 106.223 72.17C106.493 71.64 106.743 71.09 106.983 70.53L107.053 70.13C105.973 71.12 104.773 72.03 103.493 72.87L103.773 73.69L104.323 75.29L104.313 75.3Z" fill="#004D43"/>
<path d="M77.7131 92.05C77.7131 92.05 77.7131 92.05 77.7231 92.05C78.4831 91.81 79.1131 91.57 79.5631 91.33L79.1731 88.99L77.8931 81.33C76.3131 81.58 74.7931 81.77 73.3631 81.94L71.7331 93.06L71.6631 93.55C71.6631 93.55 71.6731 93.55 71.6831 93.55C73.9331 93.08 76.1031 92.57 77.7031 92.06L77.7131 92.05Z" fill="#004D43"/>
<path d="M92.8331 80.5L92.2031 78.05C90.9031 78.47 89.5831 78.86 88.2531 79.21L88.1831 83.39L88.1031 87.89C89.6631 87.16 91.7131 86.11 93.9131 84.72L92.8331 80.5Z" fill="#004D43"/>
<path d="M94.9531 84.05C96.1831 83.23 97.4531 82.3 98.6931 81.27L97.6231 77.53L97.2431 76.18C96.3831 76.55 95.5031 76.9 94.6131 77.22L94.7231 79.33L94.9631 84.04L94.9531 84.05Z" fill="#004D43"/>
<path d="M81.5631 92.35L80.9531 91.97L80.5831 92.11L79.7631 92.43L79.5031 92.53L79.7331 92.66L82.9131 94.49L82.3431 95.04L74.4631 94.64L74.1131 94.62L73.8231 94.73C73.8731 94.76 73.9331 94.78 74.0031 94.81C75.7731 95.57 81.6231 98.1 85.0231 99.63C86.0231 100.08 86.4031 100.24 86.8131 100.45L90.4331 97.84L87.7531 96.18L81.5731 92.35H81.5631Z" fill="#004D43"/>
<path d="M107.093 72.07V72.05C107.093 71.88 107.073 71.77 107.073 71.71C107.073 71.71 107.073 71.7 107.073 71.69C107.073 71.67 107.073 71.66 107.073 71.66C106.933 71.98 106.793 72.3 106.633 72.61C106.043 73.81 105.353 74.95 104.573 76.02C104.523 76.09 104.483 76.16 104.433 76.22H104.643L106.003 76.27H106.403C107.063 74.14 107.123 72.72 107.103 72.07H107.093Z" fill="#004D43"/>
<path d="M105.023 77.37L103.833 76.99C103.753 77.1 103.663 77.2 103.573 77.31C103.423 77.5 103.273 77.68 103.113 77.86L104.363 78.37L101.773 79.34C101.583 79.54 101.383 79.74 101.193 79.93L102.873 80.06L104.793 80.21C105.253 79.29 105.623 78.44 105.913 77.66L105.753 77.61L105.023 77.38V77.37Z" fill="#004D43"/>
<path d="M100.153 80.91C99.9631 81.08 99.7631 81.26 99.5731 81.43C99.4931 81.51 99.4131 81.57 99.3231 81.65L99.5531 81.81L99.8131 82L100.603 82.57L97.8831 83.29L96.9931 83.53C96.7431 83.72 96.4831 83.91 96.2331 84.09L97.1331 84.24L97.7931 84.35L101.903 85.04C102.563 84.08 103.143 83.16 103.643 82.3C103.203 82.16 101.953 81.73 100.983 81.32C100.653 81.18 100.363 81.04 100.143 80.91H100.153Z" fill="#004D43"/>
<path d="M90.0131 89.06L89.0031 88.54C88.6831 88.71 88.1731 88.96 88.0531 89.02L90.2631 90.38L89.3431 90.99H85.1131H83.4731L82.1831 91.48L89.6431 93.77L93.4731 94.95C94.4231 94.01 95.3031 93.1 96.1331 92.21L92.3931 90.29L90.0131 89.07V89.06Z" fill="#004D43"/>
<path d="M70.8831 96.17L74.4531 98.72L72.5231 99.82L64.7531 97.84L62.8531 98.44L80.4031 105.23L84.2231 102.47L71.5431 95.93L70.8831 96.17Z" fill="#004D43"/>
<path d="M49.5531 102.37C50.6631 103.11 51.6131 103.85 52.4231 104.55C49.1031 107.79 47.9931 110.5 47.9931 110.5L44.0631 108.43C45.5031 106.03 47.4131 104.03 49.5531 102.37Z" fill="#004D43"/>
<path d="M70.3531 95.34C64.9831 96.62 60.8131 98.49 57.6231 100.5C56.8531 99.95 56.0431 99.42 55.1831 98.92C60.9731 96.12 67.0331 95.02 70.0231 94.73L70.3431 95.34H70.3531Z" fill="#004D43"/>
<path d="M60.7031 95.5C60.7031 95.5 60.7031 95.5 60.7131 95.5C60.7131 95.5 60.7231 95.5 60.7331 95.5C60.7531 95.5 60.7631 95.5 60.7831 95.5C60.8031 95.5 60.8231 95.5 60.8531 95.5C60.8631 95.5 60.8831 95.5 60.8931 95.5C61.7231 95.37 64.6531 94.92 67.9931 94.3L68.0331 93.9L69.3631 82.08H65.2431L60.6531 95.54H60.6631C60.6631 95.54 60.6731 95.54 60.6831 95.54L60.7031 95.5Z" fill="#004D43"/>
<path d="M6.83308 79.86C6.07308 79.15 5.33309 78.4 4.63309 77.61C4.39309 77.34 4.16309 77.07 3.93309 76.79C3.90309 76.76 3.88309 76.72 3.85309 76.69L4.84309 74.65L5.22308 73.88C5.93308 74.29 6.66309 74.68 7.41309 75.06C7.41309 75.44 7.42309 75.84 7.43309 76.26C7.45309 77.71 7.48309 79.33 7.51309 80.49C7.29309 80.3 7.07308 80.1 6.86308 79.9L6.83308 79.87V79.86Z" fill="#004D43"/>
<path d="M10.6031 85.04L11.5331 84.56C11.7331 84.7 11.9231 84.83 12.1231 84.97C12.2931 85.09 12.4631 85.2 12.6331 85.31L12.0931 85.59L11.3531 85.98L11.1331 86.1H11.1131L11.6531 86.64H11.6831L11.8931 86.69L12.0231 86.72L13.6531 87.03L16.2431 87.53C16.6331 87.75 17.0131 87.96 17.3731 88.15L16.0431 88.44L13.6731 88.95L8.99309 89.96C8.14309 88.97 7.38309 88.02 6.68309 87.1L10.2231 85.24L10.5931 85.04H10.6031Z" fill="#004D43"/>
<path d="M20.0431 88.36C20.2331 87.35 20.4831 85.99 20.7631 84.53C21.0531 83.01 21.3631 81.38 21.6531 79.9C22.9431 80.2 24.2231 80.46 25.4731 80.7L26.1431 87.88L26.4231 90.89L21.9631 89.15C21.9631 89.15 21.2331 88.89 20.0431 88.36Z" fill="#004D43"/>
<path d="M2.79309 75.3C2.08309 74.31 1.44309 73.27 0.883087 72.17C0.613087 71.64 0.363093 71.09 0.123093 70.53L0.0530853 70.13C1.13309 71.12 2.33308 72.03 3.61308 72.87L3.33308 73.69L2.78308 75.29L2.79309 75.3Z" fill="#004D43"/>
<path d="M29.4031 92.05C29.4031 92.05 29.4031 92.05 29.3931 92.05C28.6331 91.81 28.0031 91.57 27.5531 91.33L27.9431 88.99L29.2231 81.33C30.8031 81.58 32.3231 81.77 33.7531 81.94L35.3831 93.06L35.4531 93.55C35.4531 93.55 35.4431 93.55 35.4331 93.55C33.1831 93.08 31.0131 92.57 29.4131 92.06L29.4031 92.05Z" fill="#004D43"/>
<path d="M14.2831 80.5L14.9131 78.05C16.2131 78.47 17.5331 78.86 18.8631 79.21L18.9331 83.39L19.0131 87.89C17.4531 87.16 15.4031 86.11 13.2031 84.72L14.2831 80.5Z" fill="#004D43"/>
<path d="M12.1631 84.05C10.9331 83.23 9.66308 82.3 8.42308 81.27L9.49309 77.53L9.87309 76.18C10.7331 76.55 11.6131 76.9 12.5031 77.22L12.3931 79.33L12.1531 84.04L12.1631 84.05Z" fill="#004D43"/>
<path d="M25.5531 92.35L26.1631 91.97L26.5331 92.11L27.3531 92.43L27.6131 92.53L27.3831 92.66L24.2031 94.49L24.7731 95.04L32.6531 94.64L33.0031 94.62L33.2931 94.73C33.2431 94.76 33.1831 94.78 33.1131 94.81C31.3431 95.57 25.4931 98.1 22.0931 99.63C21.0931 100.08 20.7131 100.24 20.3031 100.45L16.6831 97.84L19.3631 96.18L25.5431 92.35H25.5531Z" fill="#004D43"/>
<path d="M0.0130977 72.07V72.05C0.0130977 71.88 0.0330867 71.77 0.0330867 71.71C0.0330867 71.71 0.0330867 71.7 0.0330867 71.69C0.0330867 71.67 0.0330867 71.66 0.0330867 71.66C0.173087 71.98 0.313089 72.3 0.473089 72.61C1.06309 73.81 1.75309 74.95 2.53309 76.02C2.58309 76.09 2.62309 76.16 2.67309 76.22H2.46309L1.10309 76.27H0.7031C0.0431001 74.14 -0.0169121 72.72 0.00308792 72.07H0.0130977Z" fill="#004D43"/>
<path d="M2.09309 77.37L3.28308 76.99C3.36308 77.1 3.45309 77.2 3.54309 77.31C3.69309 77.5 3.84308 77.68 4.00308 77.86L2.75308 78.37L5.34309 79.34C5.53309 79.54 5.73308 79.74 5.92308 79.93L4.24309 80.06L2.32309 80.21C1.86309 79.29 1.49309 78.44 1.20309 77.66L1.36308 77.61L2.09309 77.38V77.37Z" fill="#004D43"/>
<path d="M6.96309 80.91C7.15309 81.08 7.35309 81.26 7.54309 81.43C7.62309 81.51 7.70309 81.57 7.79309 81.65L7.5631 81.81L7.30309 82L6.51309 82.57L9.23309 83.29L10.1231 83.53C10.3731 83.72 10.6331 83.91 10.8831 84.09L9.98309 84.24L9.32309 84.35L5.21309 85.04C4.55309 84.08 3.97308 83.16 3.47308 82.3C3.91308 82.16 5.16309 81.73 6.13309 81.32C6.46309 81.18 6.75308 81.04 6.97308 80.91H6.96309Z" fill="#004D43"/>
<path d="M17.1031 89.06L18.1131 88.54C18.4331 88.71 18.9431 88.96 19.0631 89.02L16.8531 90.38L17.7731 90.99H22.0031H23.6431L24.9331 91.48L17.4731 93.77L13.6431 94.95C12.6931 94.01 11.8131 93.1 10.9831 92.21L14.7231 90.29L17.1031 89.07V89.06Z" fill="#004D43"/>
<path d="M44.2531 98.44L43.0031 98.92L26.7131 105.23L22.8831 102.47L34.6431 96.41L35.5731 95.93L36.2331 96.17L35.5731 96.63L32.6531 98.72L34.5831 99.82L41.0331 98.18L42.3531 97.84L44.2531 98.44Z" fill="#004D43"/>
<path d="M63.0531 108.43L59.1231 110.5C59.1231 110.5 57.7631 107.19 53.5631 103.5C52.7731 102.81 51.8831 102.1 50.8831 101.4C47.5331 99.07 42.9531 96.8 36.7731 95.33L37.0931 94.72C40.3631 95.03 47.3231 96.32 53.5631 99.75C54.4731 100.25 55.3831 100.8 56.2431 101.4C58.9231 103.24 61.3231 105.54 63.0531 108.42V108.43Z" fill="#004D43"/>
<path d="M46.4331 95.51H46.4231C46.4231 95.51 46.4131 95.51 46.4031 95.51C46.4031 95.51 46.4031 95.51 46.3931 95.51C46.3931 95.51 46.3831 95.51 46.3731 95.51C46.3531 95.51 46.3431 95.51 46.3231 95.51C46.3031 95.51 46.2831 95.51 46.2531 95.51C46.2431 95.51 46.2231 95.51 46.2131 95.51C45.3831 95.38 42.4531 94.93 39.1131 94.31L39.0731 93.91L39.0231 93.46L37.7431 82.09H41.8631L46.3031 95.12L46.4531 95.55L46.4331 95.51Z" fill="#004D43"/>
<path d="M42.0731 0L43.0631 3.03999H46.2631L43.6731 4.92L44.6631 7.95999L42.0731 6.08L39.4931 7.95999L40.4831 4.92L37.8931 3.03999H41.0931L42.0731 0Z" fill="#004D43"/>
</svg>
